<svg 
 xmlns="http://www.w3.org/2000/svg"
 xmlns:xlink="http://www.w3.org/1999/xlink"
 width="31px" height="30px">
<path fill-rule="evenodd"  fill="rgb(0, 71, 133)"
 d="M15.973,29.992 C7.692,29.992 0.981,23.276 0.981,14.991 C0.981,6.706 7.692,-0.011 15.973,-0.011 C24.255,-0.011 30.966,6.706 30.966,14.991 C30.966,23.276 24.255,29.992 15.973,29.992 ZM15.973,7.490 C13.489,7.490 11.475,9.505 11.475,11.991 C11.475,14.476 13.489,16.491 15.973,16.491 C18.458,16.491 20.471,14.476 20.471,11.991 C20.471,9.505 18.458,7.490 15.973,7.490 ZM15.973,17.536 L7.246,22.177 L7.949,23.503 L15.973,19.234 L23.995,23.503 L24.701,22.177 L15.973,17.536 ZM15.973,14.991 C14.318,14.991 12.975,13.646 12.975,11.991 C12.975,10.335 14.318,8.990 15.973,8.990 C17.631,8.990 18.972,10.335 18.972,11.991 C18.972,13.646 17.631,14.991 15.973,14.991 Z"/>
</svg>