<svg 
 xmlns="http://www.w3.org/2000/svg"
 xmlns:xlink="http://www.w3.org/1999/xlink"
 width="31px" height="30px">
<path fill-rule="evenodd"  fill="rgb(0, 71, 133)"
 d="M15.973,30.007 C7.693,30.007 0.981,23.288 0.981,14.999 C0.981,6.711 7.693,-0.009 15.973,-0.009 C24.253,-0.009 30.966,6.711 30.966,14.999 C30.966,23.288 24.253,30.007 15.973,30.007 ZM24.778,10.124 L23.731,10.680 C22.009,8.594 19.421,7.422 16.719,7.503 C16.058,7.504 15.398,7.573 14.752,7.710 L11.499,5.995 L9.992,5.995 L9.992,10.362 C9.593,10.841 9.267,11.376 9.024,11.950 L6.978,11.950 L6.978,16.508 L9.008,16.508 C9.545,17.690 10.403,18.697 11.483,19.414 L11.483,22.591 L21.970,22.591 L21.970,19.414 C23.784,18.288 24.910,16.325 24.969,14.189 C24.965,13.418 24.803,12.656 24.493,11.950 L25.492,11.442 L24.778,10.124 ZM20.479,18.573 L20.479,21.003 L17.480,21.003 L17.480,19.494 L15.973,19.494 L15.973,21.003 L12.927,21.003 L12.927,18.573 C11.505,17.878 10.464,16.586 10.087,15.047 L8.501,15.047 L8.501,13.538 L10.087,13.538 C10.257,12.569 10.723,11.675 11.420,10.981 L11.420,7.710 L14.514,9.298 C15.234,9.077 15.981,8.955 16.735,8.933 C20.463,8.933 23.477,11.283 23.477,14.189 L23.477,14.253 C23.351,16.137 22.198,17.797 20.479,18.573 ZM20.748,12.184 C18.512,9.931 14.876,9.919 12.626,12.157 L14.006,12.887 C14.773,12.267 15.733,11.936 16.719,11.950 C17.757,11.947 18.758,12.332 19.527,13.030 L20.860,12.300 C20.823,12.260 20.786,12.222 20.748,12.184 Z"/>
</svg>