<svg 
 xmlns="http://www.w3.org/2000/svg"
 xmlns:xlink="http://www.w3.org/1999/xlink"
 width="31px" height="30px">
<path fill-rule="evenodd"  fill="rgb(0, 71, 133)"
 d="M15.973,29.989 C7.692,29.989 0.981,23.271 0.981,14.988 C0.981,6.705 7.692,-0.013 15.973,-0.013 C24.255,-0.013 30.966,6.705 30.966,14.988 C30.966,23.271 24.255,29.989 15.973,29.989 ZM24.971,7.489 L20.472,7.489 L20.472,5.986 L18.973,5.986 L18.973,7.489 L12.976,7.489 L12.976,5.986 L11.476,5.986 L11.476,7.489 L6.979,7.489 L6.979,19.488 C6.979,21.974 8.992,23.988 11.476,23.988 L20.472,23.988 C22.958,23.988 24.970,21.974 24.970,19.488 L24.970,19.486 L24.971,19.488 L24.971,7.489 ZM20.472,22.502 L11.476,22.502 C9.812,22.502 8.478,21.155 8.478,19.488 L8.478,13.488 L23.472,13.488 L23.485,19.488 C23.485,21.155 22.138,22.502 20.472,22.502 ZM19.932,14.988 L14.039,18.094 L12.800,15.726 L11.476,16.432 L12.711,18.794 L12.696,18.802 L13.402,20.126 L20.635,16.312 L19.932,14.988 ZM8.478,8.989 L11.476,8.989 L11.476,10.487 L12.976,10.487 L12.976,8.989 L18.973,8.989 L18.973,10.487 L20.472,10.487 L20.472,8.989 L23.472,8.989 L23.472,11.988 L8.478,11.988 L8.478,8.989 Z"/>
</svg>