<svg 
 xmlns="http://www.w3.org/2000/svg"
 xmlns:xlink="http://www.w3.org/1999/xlink"
 width="31px" height="30px">
<path fill-rule="evenodd"  fill="rgb(0, 71, 133)"
 d="M15.973,-0.009 C7.693,-0.009 0.981,6.704 0.981,14.984 C0.981,23.264 7.693,29.976 15.973,29.976 C24.253,29.976 30.966,23.264 30.966,14.984 C30.966,6.704 24.253,-0.009 15.973,-0.009 ZM5.756,9.463 L8.057,10.684 C10.418,6.365 15.812,4.746 20.162,7.051 L20.177,7.051 C21.790,7.907 23.102,9.236 23.937,10.859 L22.637,11.620 C21.954,10.253 20.868,9.128 19.526,8.396 C15.902,6.422 11.364,7.759 9.389,11.382 L11.864,12.715 L5.994,16.380 L5.756,9.463 ZM23.811,19.347 C21.430,23.697 15.974,25.295 11.623,22.915 C10.047,22.053 8.766,20.738 7.946,19.140 L9.246,18.379 C11.093,22.069 15.582,23.564 19.273,21.717 C20.630,21.038 21.747,19.962 22.478,18.633 L20.082,17.364 L25.952,13.699 L26.190,20.616 L23.811,19.347 Z"/>
</svg>