<svg 
 xmlns="http://www.w3.org/2000/svg"
 xmlns:xlink="http://www.w3.org/1999/xlink"
 width="31px" height="30px">
<path fill-rule="evenodd"  fill="rgb(0, 71, 133)"
 d="M15.973,30.007 C7.693,30.007 0.981,23.288 0.981,14.999 C0.981,6.711 7.693,-0.009 15.973,-0.009 C24.253,-0.009 30.966,6.711 30.966,14.999 C30.966,23.288 24.253,30.007 15.973,30.007 ZM21.039,24.419 C21.871,24.419 22.546,23.743 22.546,22.910 C22.546,22.077 21.871,21.401 21.039,21.401 C20.206,21.401 19.531,22.077 19.531,22.910 C19.531,23.743 20.206,24.419 21.039,24.419 ZM13.661,24.430 C14.461,24.388 15.088,23.727 15.089,22.926 C15.090,22.093 14.417,21.416 13.584,21.415 C13.557,21.415 13.530,21.416 13.503,21.417 C12.672,21.461 12.033,22.171 12.077,23.003 C12.121,23.835 12.830,24.474 13.661,24.430 ZM23.989,9.411 L10.552,9.411 L10.552,7.902 L6.062,7.902 L6.062,9.411 L9.061,9.411 L9.061,16.907 C9.061,16.912 9.060,16.917 9.060,16.923 C9.061,18.580 10.403,19.924 12.059,19.924 L22.546,19.924 L22.546,18.416 L12.059,18.416 C11.249,18.376 10.600,17.733 10.552,16.923 L18.310,16.923 L23.989,13.905 L23.989,9.411 ZM10.552,15.366 L10.552,10.856 L22.546,10.856 L22.546,13.016 L18.056,15.366 L10.552,15.366 Z"/>
</svg>