<svg 
 xmlns="http://www.w3.org/2000/svg"
 xmlns:xlink="http://www.w3.org/1999/xlink"
 width="31px" height="30px">
<path fill-rule="evenodd"  fill="rgb(0, 71, 133)"
 d="M15.973,29.976 C7.696,29.976 0.982,23.264 0.982,14.984 C0.982,6.705 7.696,-0.009 15.973,-0.009 C24.253,-0.009 30.968,6.705 30.968,14.984 C30.968,23.264 24.253,29.976 15.973,29.976 ZM23.467,5.988 L8.478,5.988 L8.478,24.001 L18.325,24.001 L22.133,21.975 C22.938,21.436 23.467,20.520 23.467,19.481 L23.467,5.988 ZM21.018,20.869 L17.991,22.480 L17.473,22.480 L17.473,19.481 L21.968,19.481 C21.968,20.116 21.646,20.512 21.018,20.869 ZM15.974,22.480 L9.977,22.480 L9.977,7.487 L21.968,7.487 L21.968,17.982 L15.974,17.982 L15.974,22.480 ZM20.603,11.809 L19.900,10.486 L14.005,13.587 L12.769,11.223 L11.446,11.929 L13.372,15.613 L20.603,11.809 Z"/>
</svg>