<svg 
 xmlns="http://www.w3.org/2000/svg"
 xmlns:xlink="http://www.w3.org/1999/xlink"
 width="31px" height="30px">
<path fill-rule="evenodd"  fill="rgb(0, 71, 133)"
 d="M15.973,30.007 C7.693,30.007 0.981,23.288 0.981,14.999 C0.981,6.711 7.693,-0.009 15.973,-0.009 C24.253,-0.009 30.966,6.711 30.966,14.999 C30.966,23.288 24.253,30.007 15.973,30.007 ZM26.476,8.996 L5.486,8.996 L5.486,21.003 L26.476,21.003 L26.476,8.996 ZM6.978,13.538 L6.978,10.505 L12.594,10.505 L6.978,13.538 ZM12.197,14.920 C12.025,17.140 13.611,19.110 15.815,19.414 L6.978,19.414 L6.978,15.126 L13.324,11.744 C12.590,12.639 12.192,13.762 12.197,14.920 ZM13.736,14.999 C13.736,13.284 14.736,11.950 15.973,11.950 C17.211,11.950 18.226,13.300 18.226,14.952 C18.226,16.603 17.227,17.953 15.973,17.953 C14.720,17.953 13.736,16.715 13.736,14.999 ZM16.195,10.537 L24.969,10.537 L24.969,14.920 L18.353,18.462 C19.245,17.538 19.735,16.299 19.717,15.015 C19.878,12.835 18.350,10.892 16.195,10.537 ZM24.969,19.573 L19.670,19.462 L24.969,16.715 L24.969,19.573 Z"/>
</svg>