<svg 
 xmlns="http://www.w3.org/2000/svg"
 xmlns:xlink="http://www.w3.org/1999/xlink"
 width="31px" height="31px">
<path fill-rule="evenodd"  fill="rgb(0, 71, 133)"
 d="M15.425,30.804 C7.136,30.804 0.416,24.084 0.416,15.795 C0.416,7.506 7.136,0.787 15.425,0.787 C23.714,0.787 30.433,7.506 30.433,15.795 C30.433,24.084 23.714,30.804 15.425,30.804 ZM25.824,10.130 C25.059,8.690 23.271,8.142 21.830,8.907 L17.814,11.046 L10.222,6.004 L6.279,8.115 L11.922,14.256 L9.474,15.561 L7.305,14.095 L3.348,16.206 L7.041,20.192 L8.272,25.498 L12.244,23.402 L12.244,20.779 L14.692,19.474 L16.539,27.623 L20.599,25.483 L20.599,16.323 L24.600,14.124 C26.041,13.359 26.589,11.571 25.824,10.130 ZM19.309,15.561 L19.309,24.707 L17.447,25.703 L15.527,17.554 L11.028,20.002 L11.028,22.611 L9.210,23.578 L8.214,19.562 L5.400,16.558 L7.217,15.590 L9.386,17.056 L14.003,14.623 L8.287,8.496 L10.148,7.500 L17.741,12.615 L22.445,10.138 C23.179,9.837 24.023,10.092 24.466,10.750 C24.981,11.515 24.779,12.553 24.014,13.069 L19.309,15.561 Z"/>
</svg>