<svg 
 xmlns="http://www.w3.org/2000/svg"
 xmlns:xlink="http://www.w3.org/1999/xlink"
 width="31px" height="31px">
<path fill-rule="evenodd"  fill="rgb(0, 71, 133)"
 d="M15.425,30.804 C7.136,30.804 0.416,24.084 0.416,15.795 C0.416,7.506 7.136,0.787 15.425,0.787 C23.714,0.787 30.433,7.506 30.433,15.795 C30.433,24.084 23.714,30.804 15.425,30.804 ZM21.316,16.162 L21.316,13.582 C21.323,11.466 20.057,9.552 18.107,8.731 C17.626,7.270 16.053,6.474 14.592,6.955 C13.751,7.231 13.092,7.890 12.815,8.731 C10.865,9.552 9.599,11.466 9.606,13.582 L9.606,16.162 L6.469,21.497 L11.790,21.497 C12.104,23.520 13.999,24.906 16.023,24.592 C17.619,24.344 18.870,23.092 19.118,21.497 L24.453,21.497 L21.316,16.162 ZM11.394,16.645 L19.470,16.645 L21.273,19.709 L9.591,19.709 L11.394,16.645 ZM11.452,13.582 C11.502,11.543 13.195,9.930 15.235,9.979 C15.308,9.981 15.381,9.985 15.454,9.991 C17.486,9.813 19.278,11.315 19.457,13.347 C19.463,13.425 19.468,13.504 19.470,13.582 L19.470,14.696 L11.452,14.696 L11.452,13.582 ZM15.454,23.006 C14.575,23.017 13.812,22.402 13.636,21.541 L17.271,21.541 C17.095,22.402 16.333,23.017 15.454,23.006 Z"/>
</svg>