<svg 
 xmlns="http://www.w3.org/2000/svg"
 xmlns:xlink="http://www.w3.org/1999/xlink"
 width="11px" height="11px">
<path fill-rule="evenodd"  fill="rgb(215, 227, 58)"
 d="M10.747,5.622 C10.747,5.582 10.742,5.542 10.735,5.502 C10.731,5.484 10.725,5.467 10.720,5.450 C10.714,5.429 10.709,5.408 10.702,5.388 C10.693,5.367 10.682,5.348 10.671,5.329 C10.663,5.314 10.657,5.298 10.647,5.283 C10.626,5.249 10.601,5.218 10.574,5.189 L6.336,0.786 C6.105,0.548 5.733,0.548 5.503,0.786 C5.273,1.025 5.273,1.412 5.503,1.651 L8.737,5.010 L1.466,5.010 C1.141,5.010 0.878,5.284 0.878,5.622 C0.878,5.960 1.141,6.233 1.466,6.233 L8.737,6.233 L5.503,9.593 C5.273,9.832 5.273,10.219 5.503,10.457 C5.618,10.577 5.769,10.637 5.919,10.637 C6.070,10.637 6.220,10.577 6.336,10.457 L10.574,6.055 C10.601,6.026 10.626,5.995 10.647,5.961 C10.657,5.946 10.663,5.930 10.672,5.915 C10.682,5.895 10.693,5.876 10.702,5.856 C10.709,5.835 10.714,5.814 10.720,5.793 C10.725,5.776 10.731,5.760 10.735,5.742 C10.742,5.702 10.747,5.662 10.747,5.622 L10.747,5.622 L10.747,5.622 Z"/>
</svg>