<svg 
 xmlns="http://www.w3.org/2000/svg"
 xmlns:xlink="http://www.w3.org/1999/xlink"
 width="17px" height="14px">
<path fill-rule="evenodd"  fill="rgb(255, 255, 255)"
 d="M15.262,10.677 C15.249,10.678 15.236,10.679 15.223,10.680 C14.675,8.481 14.128,6.282 13.579,4.077 C10.327,4.077 7.087,4.077 3.825,4.077 C3.968,3.360 4.108,2.657 4.250,1.943 C4.310,1.943 4.363,1.943 4.415,1.943 C4.929,1.943 6.426,1.943 8.222,1.942 L8.222,0.880 L13.402,0.880 L13.402,1.940 C15.154,1.939 16.578,1.939 17.002,1.939 C16.419,4.864 15.841,7.771 15.262,10.677 ZM14.875,13.120 C10.617,13.120 6.376,13.120 2.123,13.120 C1.416,10.279 0.709,8.000 0.000,5.152 C4.251,5.152 8.491,5.152 12.752,5.152 C13.457,7.986 14.164,10.263 14.875,13.120 Z"/>
</svg>