<svg 
 xmlns="http://www.w3.org/2000/svg"
 xmlns:xlink="http://www.w3.org/1999/xlink"
 width="11px" height="11px">
<path fill-rule="evenodd"  fill="rgb(234, 247, 62)"
 d="M6.894,5.537 L10.794,1.672 C11.057,1.412 11.057,0.989 10.794,0.729 C10.531,0.468 10.104,0.468 9.842,0.729 L5.942,4.593 L2.043,0.729 C1.780,0.468 1.354,0.468 1.091,0.729 C0.828,0.989 0.828,1.412 1.091,1.672 L4.990,5.537 L1.091,9.402 C0.828,9.662 0.828,10.085 1.091,10.345 C1.223,10.475 1.395,10.540 1.567,10.540 C1.740,10.540 1.911,10.475 2.043,10.345 L5.942,6.480 L9.842,10.345 C9.973,10.475 10.146,10.540 10.317,10.540 C10.490,10.540 10.662,10.475 10.794,10.345 C11.057,10.085 11.057,9.662 10.794,9.402 L6.894,5.537 Z"/>
</svg>