<svg 
 xmlns="http://www.w3.org/2000/svg"
 xmlns:xlink="http://www.w3.org/1999/xlink"
 width="12px" height="13px">
<path fill-rule="evenodd"  fill="rgb(0, 0, 0)"
 d="M7.067,6.542 L11.449,2.200 C11.744,1.907 11.744,1.432 11.449,1.140 C11.154,0.847 10.675,0.847 10.379,1.140 L5.998,5.482 L1.617,1.140 C1.321,0.847 0.842,0.847 0.547,1.140 C0.252,1.432 0.252,1.907 0.547,2.200 L4.928,6.542 L0.547,10.884 C0.252,11.177 0.252,11.652 0.547,11.945 C0.695,12.091 0.888,12.164 1.082,12.164 C1.275,12.164 1.469,12.091 1.617,11.945 L5.998,7.602 L10.379,11.945 C10.527,12.091 10.721,12.164 10.914,12.164 C11.108,12.164 11.301,12.091 11.449,11.945 C11.744,11.652 11.744,11.177 11.449,10.884 L7.067,6.542 Z"/>
</svg>