<svg 
 xmlns="http://www.w3.org/2000/svg"
 xmlns:xlink="http://www.w3.org/1999/xlink"
 width="112px" height="81px">
<path fill-rule="evenodd"  fill="rgb(255, 255, 255)"
 d="M111.034,1.790 L93.883,1.790 C93.385,1.790 92.980,1.385 92.980,0.887 C92.980,0.389 93.385,-0.015 93.883,-0.015 L111.034,-0.015 C111.532,-0.015 111.937,0.389 111.937,0.887 C111.937,1.385 111.532,1.790 111.034,1.790 ZM99.043,6.859 C99.043,7.357 98.639,7.762 98.140,7.762 L91.481,7.762 C90.982,7.762 90.578,7.357 90.578,6.859 C90.578,6.361 90.982,5.957 91.481,5.957 L98.140,5.957 C98.639,5.957 99.043,6.361 99.043,6.859 ZM103.236,11.199 C103.301,11.203 103.363,11.220 103.426,11.238 C103.482,11.253 103.538,11.264 103.589,11.289 C103.641,11.314 103.685,11.351 103.732,11.385 C103.786,11.425 103.837,11.462 103.881,11.511 C103.893,11.524 103.910,11.530 103.921,11.544 C103.946,11.576 103.954,11.615 103.974,11.649 C104.009,11.706 104.042,11.762 104.065,11.826 C104.086,11.886 104.094,11.946 104.102,12.009 C104.108,12.051 104.127,12.088 104.127,12.132 L104.127,61.706 C104.127,62.227 103.704,62.650 103.183,62.650 L52.159,62.650 C51.033,71.790 43.228,78.896 33.780,78.896 C23.560,78.896 15.245,70.588 15.245,60.377 C15.245,52.307 20.447,45.444 27.670,42.913 C27.594,42.777 27.539,42.629 27.539,42.462 L27.539,12.132 C27.539,12.088 27.558,12.051 27.564,12.009 C27.572,11.946 27.580,11.886 27.601,11.826 C27.623,11.762 27.656,11.706 27.691,11.649 C27.712,11.615 27.719,11.576 27.745,11.544 C27.756,11.530 27.772,11.524 27.784,11.511 C27.829,11.461 27.881,11.424 27.935,11.384 C27.981,11.350 28.025,11.314 28.076,11.289 C28.128,11.264 28.184,11.253 28.240,11.237 C28.304,11.220 28.364,11.203 28.430,11.199 C28.448,11.198 28.464,11.188 28.483,11.188 L103.183,11.188 C103.201,11.188 103.217,11.198 103.236,11.199 ZM52.294,60.763 L100.926,60.763 L75.479,35.337 L66.420,42.531 C66.380,42.562 66.335,42.577 66.293,42.601 C66.259,42.620 66.228,42.641 66.193,42.656 C66.076,42.705 65.956,42.737 65.833,42.737 C65.833,42.737 65.833,42.736 65.832,42.736 C65.832,42.736 65.832,42.737 65.831,42.737 C65.709,42.737 65.588,42.705 65.472,42.656 C65.436,42.641 65.406,42.620 65.372,42.601 C65.330,42.577 65.284,42.562 65.245,42.531 L56.891,35.897 L44.825,45.541 C49.359,48.920 52.314,54.303 52.314,60.377 C52.314,60.508 52.297,60.634 52.294,60.763 ZM16.850,60.377 C16.850,69.705 24.444,77.293 33.780,77.293 C43.115,77.293 50.710,69.705 50.710,60.377 C50.710,54.575 47.769,49.449 43.301,46.400 C43.057,46.375 42.821,46.273 42.657,46.067 C42.633,46.037 42.626,46.001 42.607,45.970 C40.033,44.389 37.016,43.461 33.780,43.461 C24.444,43.461 16.850,51.049 16.850,60.377 ZM29.427,42.395 C30.826,42.057 32.279,41.858 33.780,41.858 C37.212,41.858 40.418,42.812 43.177,44.443 L55.376,34.694 L29.427,14.086 L29.427,42.395 ZM31.187,13.075 L65.832,40.589 L100.478,13.075 L31.187,13.075 ZM102.239,14.086 L76.965,34.156 L102.239,59.409 L102.239,14.086 ZM42.687,54.331 C43.383,55.738 43.643,57.257 43.458,58.846 C43.077,62.085 41.349,64.539 38.321,66.140 C38.204,66.202 38.171,66.255 38.171,66.385 C38.181,67.713 38.181,68.802 38.173,69.810 C38.168,70.508 37.897,71.066 37.367,71.469 C37.067,71.698 36.741,71.843 36.400,71.897 C36.247,71.920 36.232,71.953 36.232,72.099 C36.232,72.670 35.985,73.088 35.516,73.306 C35.293,73.409 35.046,73.471 34.820,73.478 C34.486,73.488 34.148,73.491 33.813,73.491 C33.497,73.491 33.182,73.488 32.872,73.486 L32.734,73.484 C31.910,73.477 31.331,72.906 31.328,72.093 C31.327,71.969 31.312,71.952 31.185,71.937 C30.186,71.812 29.549,71.258 29.294,70.289 C29.241,70.090 29.231,69.880 29.228,69.682 C29.221,69.291 29.222,68.898 29.224,68.507 L29.225,68.038 L29.224,67.656 C29.222,67.189 29.221,66.722 29.227,66.255 C29.227,66.162 29.202,66.121 29.114,66.075 C27.086,65.009 25.616,63.433 24.745,61.389 C24.139,59.969 23.925,58.524 24.108,57.094 C24.551,53.645 26.461,51.129 29.784,49.617 C31.191,48.977 32.685,48.701 34.211,48.808 C38.156,49.078 41.007,50.936 42.687,54.331 ZM30.599,69.187 C30.598,69.390 30.597,69.591 30.602,69.793 C30.617,70.326 30.937,70.637 31.483,70.646 C31.847,70.652 32.144,70.652 32.414,70.646 C32.419,70.646 32.424,70.645 32.429,70.645 C32.491,70.645 32.574,70.655 32.632,70.715 C32.696,70.777 32.702,70.866 32.700,70.928 C32.697,71.125 32.698,71.321 32.699,71.518 C32.699,71.702 32.700,71.885 32.697,72.069 C32.697,72.101 32.701,72.144 32.719,72.162 C32.733,72.177 32.768,72.185 32.816,72.185 C32.816,72.185 32.817,72.185 32.818,72.185 C33.455,72.181 34.091,72.184 34.726,72.185 C34.784,72.185 34.824,72.176 34.841,72.158 C34.862,72.136 34.866,72.087 34.865,72.048 C34.861,71.881 34.862,71.713 34.863,71.545 C34.864,71.356 34.864,71.167 34.859,70.977 C34.856,70.892 34.863,70.786 34.937,70.715 C35.010,70.643 35.121,70.639 35.191,70.645 C35.408,70.658 35.632,70.653 35.848,70.647 L35.906,70.646 C36.473,70.633 36.792,70.321 36.803,69.767 C36.806,69.599 36.805,69.431 36.804,69.262 C36.803,69.056 36.801,68.849 36.809,68.642 C36.811,68.565 36.798,68.544 36.793,68.540 C36.788,68.535 36.766,68.521 36.682,68.521 C36.681,68.521 36.679,68.521 36.678,68.521 C35.935,68.527 35.195,68.526 34.453,68.526 L33.712,68.525 L32.957,68.526 C32.201,68.527 31.449,68.526 30.694,68.523 C30.625,68.525 30.605,68.534 30.604,68.535 C30.604,68.535 30.594,68.547 30.595,68.601 C30.600,68.796 30.599,68.991 30.599,69.187 ZM32.132,50.259 C30.963,50.479 29.871,50.933 28.884,51.607 C26.232,53.422 24.939,56.536 25.588,59.538 C25.903,60.998 26.609,62.297 27.688,63.398 C28.431,64.158 29.315,64.759 30.317,65.188 C30.524,65.277 30.609,65.405 30.603,65.617 C30.596,65.896 30.596,66.176 30.597,66.457 C30.598,66.678 30.599,66.899 30.595,67.121 C30.594,67.192 30.607,67.206 30.607,67.206 C30.608,67.207 30.622,67.219 30.691,67.219 C30.692,67.219 30.693,67.219 30.694,67.219 C31.438,67.212 32.209,67.212 32.992,67.218 C32.993,67.218 32.995,67.218 32.996,67.218 C33.068,67.218 33.085,67.206 33.087,67.203 C33.089,67.202 33.102,67.186 33.101,67.112 C33.094,66.229 33.094,65.301 33.101,64.273 C33.101,64.177 33.073,64.115 32.999,64.044 C32.553,63.622 32.108,63.197 31.665,62.772 L30.893,62.034 C30.709,61.860 30.526,61.685 30.347,61.505 C30.146,61.302 30.095,61.055 30.205,60.807 C30.319,60.546 30.550,60.402 30.856,60.402 C30.857,60.402 30.858,60.402 30.859,60.402 C31.107,60.402 31.275,60.543 31.412,60.675 L32.049,61.285 C32.602,61.814 33.156,62.343 33.706,62.876 C33.776,62.944 33.781,62.944 33.852,62.876 C34.358,62.384 34.869,61.896 35.380,61.409 L35.705,61.098 C35.757,61.049 35.808,60.998 35.859,60.948 C35.990,60.820 36.126,60.688 36.269,60.566 C36.457,60.411 36.693,60.359 36.915,60.422 C37.132,60.482 37.301,60.643 37.376,60.863 C37.490,61.197 37.295,61.433 37.138,61.583 L36.174,62.505 C35.642,63.015 35.108,63.524 34.573,64.033 C34.489,64.113 34.457,64.184 34.459,64.289 C34.466,64.619 34.465,64.949 34.463,65.280 L34.462,65.674 L34.463,66.089 C34.465,66.436 34.466,66.783 34.459,67.129 C34.459,67.194 34.470,67.207 34.470,67.207 C34.470,67.207 34.482,67.218 34.546,67.218 C34.547,67.218 34.548,67.218 34.549,67.218 C35.265,67.212 35.984,67.212 36.704,67.218 C36.705,67.218 36.706,67.218 36.707,67.218 C36.776,67.218 36.792,67.206 36.794,67.203 C36.796,67.200 36.809,67.184 36.808,67.120 C36.804,66.960 36.807,66.801 36.810,66.641 C36.814,66.391 36.819,66.131 36.797,65.882 C36.761,65.489 36.938,65.327 37.259,65.177 C40.186,63.817 41.817,61.584 42.105,58.540 C42.261,56.906 41.861,55.350 40.918,53.915 C39.597,51.906 37.686,50.666 35.236,50.231 C34.755,50.145 34.267,50.103 33.773,50.103 C33.231,50.103 32.682,50.155 32.132,50.259 ZM36.297,53.110 C36.241,53.287 36.123,53.430 35.963,53.513 C35.793,53.600 35.591,53.613 35.393,53.551 C34.769,53.355 34.102,53.279 33.410,53.323 C31.360,53.459 29.602,54.742 28.932,56.592 C28.899,56.687 28.869,56.784 28.839,56.881 C28.811,56.977 28.782,57.072 28.749,57.166 C28.651,57.440 28.398,57.607 28.109,57.607 C28.046,57.607 27.980,57.600 27.916,57.583 C27.572,57.495 27.365,57.160 27.445,56.822 C27.736,55.574 28.383,54.503 29.367,53.640 C30.581,52.579 32.071,52.025 33.799,51.996 C34.547,52.014 35.192,52.113 35.778,52.297 C36.186,52.428 36.405,52.770 36.297,53.110 ZM19.744,38.396 C19.568,38.396 19.403,38.328 19.277,38.201 L18.275,37.193 C18.019,36.935 18.020,36.513 18.276,36.254 C18.402,36.129 18.567,36.059 18.744,36.059 L18.745,36.059 C18.921,36.060 19.086,36.129 19.212,36.255 L20.212,37.263 C20.469,37.522 20.469,37.943 20.212,38.202 C20.087,38.328 19.921,38.396 19.744,38.396 ZM19.271,34.771 C19.146,34.897 18.981,34.965 18.803,34.965 C18.625,34.965 18.459,34.897 18.335,34.771 C18.080,34.511 18.080,34.090 18.335,33.830 L19.277,32.883 C19.402,32.758 19.567,32.688 19.743,32.688 C19.744,32.688 19.744,32.688 19.744,32.688 C19.921,32.688 20.087,32.757 20.212,32.883 C20.469,33.142 20.469,33.564 20.212,33.822 L19.271,34.771 ZM15.836,38.201 C15.711,38.328 15.545,38.396 15.368,38.396 C15.192,38.396 15.026,38.328 14.902,38.202 C14.643,37.943 14.643,37.522 14.901,37.263 L15.901,36.255 C16.026,36.129 16.191,36.060 16.369,36.059 C16.546,36.059 16.711,36.129 16.837,36.254 C17.093,36.513 17.093,36.935 16.837,37.193 L15.836,38.201 ZM16.309,34.965 C16.132,34.965 15.965,34.897 15.842,34.771 L14.901,33.822 C14.643,33.564 14.643,33.142 14.901,32.883 C15.025,32.758 15.191,32.688 15.367,32.688 C15.368,32.688 15.368,32.688 15.368,32.688 C15.544,32.688 15.711,32.757 15.836,32.883 L16.778,33.830 C17.034,34.090 17.034,34.511 16.778,34.771 C16.653,34.897 16.486,34.965 16.309,34.965 ZM9.185,52.088 C8.982,52.088 8.778,52.009 8.622,51.855 L6.182,49.416 C5.871,49.105 5.871,48.602 6.182,48.291 C6.493,47.982 6.997,47.982 7.308,48.291 L9.749,50.729 C10.059,51.041 10.059,51.543 9.749,51.855 C9.593,52.009 9.389,52.088 9.185,52.088 ZM7.308,45.931 C7.152,46.085 6.949,46.164 6.745,46.164 C6.541,46.164 6.337,46.085 6.182,45.931 C5.871,45.619 5.871,45.117 6.182,44.805 L8.622,42.367 C8.934,42.058 9.437,42.058 9.749,42.367 C10.059,42.678 10.059,43.181 9.749,43.492 L7.308,45.931 ZM1.379,51.855 C1.223,52.009 1.020,52.088 0.816,52.088 C0.612,52.088 0.409,52.009 0.253,51.855 C-0.058,51.543 -0.058,51.041 0.253,50.729 L2.693,48.291 C3.005,47.982 3.508,47.982 3.820,48.291 C4.130,48.602 4.130,49.105 3.820,49.416 L1.379,51.855 ZM3.257,46.164 C3.053,46.164 2.849,46.085 2.693,45.931 L0.253,43.492 C-0.058,43.181 -0.058,42.678 0.253,42.367 C0.564,42.058 1.068,42.058 1.379,42.367 L3.820,44.805 C4.130,45.117 4.130,45.619 3.820,45.931 C3.664,46.085 3.460,46.164 3.257,46.164 ZM49.942,79.177 L56.601,79.177 C57.100,79.177 57.504,79.581 57.504,80.079 C57.504,80.577 57.100,80.981 56.601,80.981 L49.942,80.981 C49.443,80.981 49.039,80.577 49.039,80.079 C49.039,79.581 49.443,79.177 49.942,79.177 ZM51.441,74.107 C51.441,73.609 51.846,73.205 52.344,73.205 L69.495,73.205 C69.993,73.205 70.398,73.609 70.398,74.107 C70.398,74.605 69.993,75.009 69.495,75.009 L52.344,75.009 C51.846,75.009 51.441,74.605 51.441,74.107 Z"/>
</svg>