<?xml version="1.0" encoding="utf-8"?>
<!-- Generator: Adobe Illustrator 21.0.2, SVG Export Plug-In . SVG Version: 6.00 Build 0)  -->
<svg version="1.1" id="Layer_1" xmlns="http://www.w3.org/2000/svg" xmlns:xlink="http://www.w3.org/1999/xlink" x="0px" y="0px"
	 viewBox="0 0 120 846" style="enable-background:new 0 0 120 846;" xml:space="preserve">
<style type="text/css">
	.st0{fill:#272727;}
	.st1{fill:#E5E544;}
	.st2{fill:#555555;}
	.st3{clip-path:url(#SVGID_2_);fill:#FFFFFF;}
	.st4{clip-path:url(#SVGID_2_);fill:#6078BA;}
	.st5{fill:#969696;}
</style>
<image style="overflow:visible;enable-background:new    ;" width="623" height="533" xlink:href="F74C4573.jpeg"  transform="matrix(0.9984 0 0 1 -8132 -7769)">
</image>
<rect x="0" width="120" height="846"/>
<rect x="0" y="66" class="st0" width="120" height="130"/>
<g>
	<g>
		<path class="st1" d="M48.1,126v-1l21.5,0c0.7,0,1.1-0.4,1.1-1.2v-2.7h1v2.7c0,1.3-0.9,2.1-2.1,2.1L48.1,126z"/>
	</g>
	<g>
		<rect x="70.6" y="118.3" class="st1" width="1" height="4"/>
	</g>
	<g>
		<path class="st1" d="M48.1,126c-1.7,0-3.1-1.4-3.1-3.1l0-16.9c0-0.9,0.4-1.5,1.1-1.9c0.3-0.1,0.6-0.2,0.9-0.2c3,0,6.1,0,9.1,0
			c1.1,0,2,0.9,2,2c0,1,0.6,1.7,1.5,2c0.2,0,0.3,0.1,0.6,0.1c1,0,2.1,0,3.1,0l3,0c0.6,0,1.1,0.3,1.5,0.7c0.4,0.5,0.6,1.1,0.4,1.7
			l0,1.3c0.4,0,0.9,0,1.3,0c1.2,0,2.1,0.9,2.1,2.1v0.7h-1v-0.7c0-0.7-0.4-1.1-1.1-1.1c-5.8,0-11.6,0-17.3,0c-0.1,0-0.2,0-0.3,0
			c-0.5,0.1-0.8,0.5-0.8,1.1l0,8.9l0,0.3C51.1,124.6,49.8,126,48.1,126z M52.4,104.9c-1.8,0-3.6,0-5.4,0c-0.2,0-0.3,0-0.4,0.1
			c-0.4,0.2-0.6,0.5-0.6,1l0,16.9c0,1.1,0.9,2.1,2.1,2.1s2.1-0.9,2.1-2.1l0-0.3l0-8.9c0-1,0.6-1.8,1.5-2c0.2,0,0.4-0.1,0.5-0.1
			c5,0,10,0,15,0v-1.4c0.1-0.4,0-0.7-0.2-1c-0.2-0.2-0.4-0.4-0.7-0.4l-3,0c-1,0-2.1,0-3.1,0c-0.3,0-0.6,0-0.9-0.1
			c-1.3-0.4-2.2-1.5-2.2-2.9c0-0.6-0.4-1.1-1-1.1C54.9,104.9,53.6,104.9,52.4,104.9z"/>
	</g>
	<g>
		<polygon class="st1" points="65.8,122.8 62.5,120.7 63,119.8 65.7,121.5 69.7,117.6 70.4,118.3 		"/>
	</g>
	<g>
		<rect x="51" y="125.2" transform="matrix(0.6639 -0.7478 0.7478 0.6639 -75.151 84.2717)" class="st1" width="10.3" height="1"/>
	</g>
	<g>
		<path class="st1" d="M60.8,122.6c-1.3,0-2.4-1.1-2.4-2.4s1.1-2.4,2.4-2.4s2.4,1.1,2.4,2.4S62.2,122.6,60.8,122.6z M60.8,118.8
			c-0.8,0-1.4,0.6-1.4,1.4s0.6,1.4,1.4,1.4s1.4-0.6,1.4-1.4S61.6,118.8,60.8,118.8z"/>
	</g>
	<g>
		<path class="st1" d="M71.1,118.8c-1.3,0-2.4-1.1-2.4-2.4s1.1-2.4,2.4-2.4s2.4,1.1,2.4,2.4S72.4,118.8,71.1,118.8z M71.1,115
			c-0.8,0-1.4,0.6-1.4,1.4s0.6,1.4,1.4,1.4s1.4-0.6,1.4-1.4S71.9,115,71.1,115z"/>
	</g>
	<g>
		<path class="st1" d="M51,132.8c-1.3,0-2.4-1.1-2.4-2.4c0-1.3,1.1-2.4,2.4-2.4s2.4,1.1,2.4,2.4C53.4,131.7,52.3,132.8,51,132.8z
			 M51,129c-0.8,0-1.4,0.6-1.4,1.4s0.6,1.4,1.4,1.4s1.4-0.6,1.4-1.4S51.8,129,51,129z"/>
	</g>
	<g>
		
			<rect x="46.5" y="127.2" transform="matrix(0.3999 -0.9166 0.9166 0.3999 -90.3572 120.7659)" class="st1" width="1" height="4.5"/>
	</g>
	<g>
		
			<rect x="72.1" y="113.2" transform="matrix(0.7129 -0.7012 0.7012 0.7129 -58.5748 84.4007)" class="st1" width="3.4" height="1"/>
	</g>
	<g>
		
			<rect x="72.9" y="104.6" transform="matrix(0.7071 -0.7071 0.7071 0.7071 -52.6843 82.9275)" class="st1" width="1.7" height="1"/>
	</g>
	<g>
		<rect x="70.5" y="104.2" transform="matrix(0.707 -0.7072 0.7072 0.707 -53.502 80.9901)" class="st1" width="1" height="1.7"/>
	</g>
	<g>
		<rect x="73.3" y="107" transform="matrix(0.7071 -0.7071 0.7071 0.7071 -54.6311 83.7339)" class="st1" width="1" height="1.7"/>
	</g>
	<g>
		<rect x="70.1" y="107.3" transform="matrix(0.7071 -0.7071 0.7071 0.7071 -55.444 81.7714)" class="st1" width="1.7" height="1"/>
	</g>
</g>
<g>
	<g>
		<path class="st2" d="M75,395H45c-0.4,0-0.6-0.3-0.6-0.6v-30c0-0.4,0.3-0.6,0.6-0.6h30c0.4,0,0.6,0.3,0.6,0.6v30
			C75.6,394.7,75.4,395,75,395z M45.6,393.7h28.7V365H45.6V393.7z"/>
	</g>
	<g>
		<g>
			<g>
				<path class="st2" d="M69.2,373.8H50.8c-0.4,0-0.6-0.3-0.6-0.6s0.3-0.6,0.6-0.6h18.5c0.4,0,0.6,0.3,0.6,0.6
					S69.6,373.8,69.2,373.8z"/>
			</g>
			<g>
				<path class="st2" d="M50.8,373.8c-0.2,0-0.3-0.1-0.5-0.2c-0.2-0.3-0.2-0.7,0-0.9l5.3-5.3c0.3-0.2,0.7-0.2,0.9,0
					c0.2,0.3,0.2,0.7,0,0.9l-5.3,5.3C51.1,373.8,50.9,373.8,50.8,373.8z"/>
			</g>
			<g>
				<path class="st2" d="M56.1,379.2c-0.2,0-0.3-0.1-0.5-0.2l-5.3-5.3c-0.2-0.3-0.2-0.7,0-0.9c0.3-0.2,0.7-0.2,0.9,0l5.3,5.3
					c0.2,0.3,0.2,0.7,0,0.9C56.4,379.1,56.2,379.2,56.1,379.2z"/>
			</g>
		</g>
		<g>
			<g>
				<path class="st2" d="M69.2,386.1H50.8c-0.4,0-0.6-0.3-0.6-0.6s0.3-0.6,0.6-0.6h18.5c0.4,0,0.6,0.3,0.6,0.6
					S69.6,386.1,69.2,386.1z"/>
			</g>
			<g>
				<path class="st2" d="M63.9,391.4c-0.2,0-0.3-0.1-0.5-0.2c-0.2-0.3-0.2-0.7,0-0.9l5.3-5.3c0.3-0.3,0.7-0.2,0.9,0
					c0.2,0.3,0.2,0.7,0,0.9l-5.3,5.3C64.3,391.3,64.1,391.4,63.9,391.4z"/>
			</g>
			<g>
				<path class="st2" d="M69.2,386.1c-0.2,0-0.3-0.1-0.5-0.2l-5.3-5.3c-0.2-0.2-0.2-0.7,0-0.9c0.2-0.2,0.7-0.3,0.9,0l5.3,5.3
					c0.2,0.2,0.2,0.7,0,0.9C69.6,386,69.4,386.1,69.2,386.1z"/>
			</g>
		</g>
	</g>
</g>
<g>
	<g>
		<path class="st2" d="M50,241c0-0.5,0-0.9,0-1.4c0-0.4,0.2-0.6,0.6-0.6c1.6,0,3.1,0,4.7,0c0.5,0,0.7,0.1,0.7,0.7c0,0.4,0,0.9,0,1.3
			c2.4,0,4.7,0,7,0c0-0.7,0-1.3,0-2c-0.1,0-0.2,0-0.3,0c-0.7,0-1.3,0-2,0c-0.5,0-0.6-0.2-0.6-0.6c0-0.9,0-1.8,0-2.7
			c0-0.4,0.2-0.6,0.6-0.6c2.6,0,5.2,0,7.8,0c0.4,0,0.6,0.2,0.6,0.6c0,0.9,0,1.8,0,2.8c0,0.4-0.2,0.6-0.6,0.6c-0.7,0-1.4,0-2.1,0
			c-0.2,0-0.3,0.1-0.3,0.3c0,0.6,0,1.1,0,1.8c0.1,0,0.2,0,0.3,0c2,0,4,0,6,0c0.5,0,0.7,0.2,0.7,0.7c0,2.5,0,5,0,7.5
			c0,0.7,0.2,1.5,0.4,2.2c0.5,2.5,1,5.1,1.5,7.6c0.1,0.6,0.1,1.3,0.1,1.9c0,1.1,0,2.3,0,3.4c0,0.5-0.1,0.6-0.6,0.6
			c-6,0-11.9,0-17.9,0c-3.6,0-7.2,0-10.8,0c-0.6,0-0.7-0.1-0.7-0.7c0-1,0-2.1,0-3.1c0-1.2,0.1-2.3,0.4-3.5c0.6-2.7,1.1-5.4,1.6-8.1
			c0-0.1,0-0.2,0-0.4c0-2.5,0-5,0-7.5c0-0.5,0.1-0.6,0.6-0.6C48.4,241,49.2,241,50,241z M73.9,259c0-0.1,0-0.1,0-0.2
			c-0.6-2.9-1.1-5.7-1.7-8.6c0-0.2-0.1-0.3-0.3-0.3c-7.9,0-15.8,0-23.6,0c-0.2,0-0.3,0.1-0.4,0.3c-0.5,2.5-1,4.9-1.5,7.4
			c-0.1,0.4-0.2,0.9-0.3,1.3C55.4,259,64.6,259,73.9,259z M46,264c9.4,0,18.7,0,28,0c0-1.3,0-2.7,0-4c-9.4,0-18.7,0-28,0
			C46,261.4,46,262.7,46,264z M49.8,242c-0.5,0-1,0-1.5,0c-0.3,0-0.4,0.1-0.3,0.4c0,2.1,0,4.2,0,6.3c0,0.4,0,0.4,0.4,0.4
			c7.8,0,15.5,0,23.3,0c0.3,0,0.4-0.1,0.4-0.4c0-2.1,0-4.2,0-6.3c0-0.4,0-0.4-0.4-0.4c-2.6,0-5.1,0-7.7,0c-2.6,0-5.1,0-7.7,0
			c-0.2,0-0.3,0-0.3,0.3c0,0.8,0,1.7,0,2.5c0,0.1,0,0.1,0,0.2c0.2,0,0.3,0,0.5,0c0.4,0,0.6,0.4,0.4,0.7c-0.1,0.2-0.3,0.3-0.6,0.3
			c-1.5,0-3.1,0-4.6,0c-0.7,0-1.4,0-2.1,0c-0.4,0-0.6-0.2-0.6-0.5c0-0.3,0.2-0.5,0.6-0.5c0.1,0,0.2,0,0.4,0 M51,245c1.4,0,2.7,0,4,0
			c0-1.7,0-3.3,0-5c-1.3,0-2.7,0-4,0C51,241.7,51,243.3,51,245z M68,236c-0.1,0-0.1,0-0.1,0c-2.2,0-4.5,0-6.7,0
			c-0.2,0-0.2,0.1-0.2,0.2c0,0.5,0,1,0,1.5c0,0.3,0.1,0.4,0.4,0.4c1.2,0,2.4,0,3.6,0c0.9,0,1.9,0,2.8,0c0.1,0,0.3,0,0.3-0.2
			C68,237.2,68,236.6,68,236z M65,241c0-0.7,0-1.4,0-2c-0.3,0-0.7,0-1,0c0,0.7,0,1.3,0,2C64.4,241,64.7,241,65,241z"/>
		<path class="st2" d="M51.1,265c-1.8,0-3.6,0-5.4,0c-0.6,0-0.7-0.1-0.7-0.8c0-0.3,0-0.7,0-1c0-0.7,0-1.4,0-2.2
			c0-1.2,0.2-2.5,0.4-3.5c0.4-2.2,0.9-4.4,1.3-6.5l0.3-1.6c0-0.1,0-0.2,0-0.3v-0.1c0-1.5,0-3,0-4.5l0-3c0-0.5,0.2-0.7,0.7-0.7
			c0.8,0,1.5,0,2.3,0l0-0.4c0-0.3,0-0.6,0-0.9c0-0.4,0.2-0.6,0.6-0.6c1.7,0,3.3,0,4.7,0c0.6,0,0.7,0.1,0.7,0.7c0,0.3,0,0.6,0,1v0.3
			h7v-2h-0.3c-0.7,0-1.3,0-2,0c-0.5,0-0.7-0.2-0.7-0.7c0-0.9,0-1.8,0-2.7c0-0.4,0.2-0.6,0.6-0.6c2.4,0,4.9,0,7.8,0
			c0.4,0,0.6,0.2,0.6,0.6c0,1,0,1.9,0,2.8c0,0.4-0.2,0.6-0.6,0.6c-0.4,0-0.7,0-1.1,0c-0.3,0-0.7,0-1,0c0,0,0,0,0,0
			c-0.1,0-0.2,0-0.2,0.1c0,0-0.1,0.1-0.1,0.2c0,0.4,0,0.8,0,1.2c0,0.2,0,0.3,0,0.5c0,0,0.1,0,0.1,0c0.1,0,0.2,0,0.2,0
			c1.5,0,3,0,4.5,0h1.5c0.5,0,0.7,0.2,0.7,0.7c0,0.7,0,1.4,0,2.1c0,1.8,0,3.6,0,5.4c0,0.5,0.1,1.1,0.3,1.6c0,0.2,0.1,0.4,0.1,0.6
			c0.2,0.9,0.4,1.8,0.5,2.7c0.3,1.6,0.7,3.3,1,5c0.1,0.5,0.1,1,0.1,1.5c0,0.1,0,0.3,0,0.4c0,0.8,0,1.6,0,2.4c0,0.3,0,0.7,0,1
			c0,0.5-0.2,0.6-0.6,0.6c-4.5,0-9,0-13.4,0l-7.2,0C52.9,265,52,265,51.1,265z M50,241.1c-0.8,0-1.6,0-2.4,0c-0.5,0-0.6,0.1-0.6,0.6
			v3c0,1.5,0,3,0,4.5l0,0.1c0,0.1,0,0.2,0,0.3l-0.3,1.6c-0.4,2.1-0.9,4.3-1.3,6.5c-0.2,1-0.4,2.2-0.4,3.5c0,0.7,0,1.4,0,2.2
			c0,0.3,0,0.7,0,1c0,0.6,0.1,0.7,0.7,0.7c2.7,0,5.4,0,8.1,0H61c4.5,0,9,0,13.4,0c0.4,0,0.6-0.1,0.6-0.6c0-0.3,0-0.7,0-1
			c0-0.8,0-1.6,0-2.4c0-0.1,0-0.3,0-0.4c0-0.5,0-1-0.1-1.5c-0.3-1.7-0.6-3.3-1-5c-0.2-0.9-0.4-1.8-0.5-2.7c0-0.2-0.1-0.4-0.1-0.6
			c-0.1-0.5-0.2-1.1-0.3-1.6c0-1.8,0-3.6,0-5.4c0-0.7,0-1.4,0-2.1c0-0.5-0.1-0.6-0.6-0.6h-1.5c-1.5,0-3,0-4.5,0c-0.1,0-0.1,0-0.2,0
			c0,0-0.1,0-0.1,0l0,0v0c0-0.2,0-0.3,0-0.5c0-0.4,0-0.8,0-1.2c0-0.1,0-0.2,0.1-0.2c0,0,0.1-0.1,0.2-0.1c0,0,0,0,0,0
			c0.5,0,1.1,0,1.6,0c0.2,0,0.3,0,0.5,0c0.4,0,0.6-0.2,0.6-0.6c0-0.9,0-1.8,0-2.8c0-0.4-0.2-0.6-0.6-0.6c-2.9,0-5.4,0-7.8,0
			c-0.4,0-0.6,0.2-0.6,0.6c0,0.9,0,1.8,0,2.7c0,0.5,0.1,0.6,0.6,0.6c0.7,0,1.3,0,2,0H63v2.1H56v-0.4c0-0.3,0-0.6,0-1
			c0-0.5-0.1-0.6-0.6-0.6c-1.4,0-3,0-4.7,0c-0.4,0-0.6,0.2-0.6,0.6c0,0.3,0,0.6,0,0.9L50,241.1L50,241.1z M74.1,264H46V260h28.1V264
			z M46,264h28v-3.9H46V264z M73.9,259H46.1l0.1-0.4c0.1-0.3,0.1-0.6,0.2-1c0.1-0.6,0.2-1.2,0.4-1.8c0.4-1.8,0.7-3.7,1.1-5.6
			c0.1-0.3,0.2-0.3,0.4-0.3c8,0,15.9,0,23.6,0c0.2,0,0.3,0,0.4,0.3c0.4,2.1,0.8,4.2,1.3,6.3l0.5,2.3c0,0,0,0.1,0,0.1
			C73.9,259,73.9,259,73.9,259L73.9,259z M46.1,259h27.7c0,0,0,0,0,0c0,0,0-0.1,0-0.1l-0.5-2.3c-0.4-2.1-0.8-4.2-1.3-6.3
			c0-0.2-0.1-0.2-0.3-0.2c-7.7,0-15.7,0-23.6,0c-0.2,0-0.3,0-0.4,0.3c-0.4,1.9-0.7,3.7-1.1,5.6c-0.1,0.6-0.2,1.2-0.4,1.8
			c-0.1,0.3-0.1,0.6-0.2,1L46.1,259z M71.7,249.1C71.7,249.1,71.7,249.1,71.7,249.1c-6.5,0-13.2,0-19.6,0h-3.7c-0.4,0-0.5,0-0.5-0.4
			c0-0.6,0-1.2,0-1.7c0-1.5,0-3,0-4.6c0-0.2,0-0.3,0.1-0.3c0.1-0.1,0.1-0.1,0.3-0.1c0.4,0,0.7,0,1.1,0c0.1,0,0.3,0,0.4,0v0.1
			c-0.3,0-0.5,0-0.8,0c-0.2,0-0.4,0-0.7,0c-0.1,0-0.2,0-0.2,0.1c0,0-0.1,0.1-0.1,0.3c0,1.5,0,3.1,0,4.6c0,0.6,0,1.2,0,1.7
			c0,0.4,0,0.4,0.4,0.4h3.7C58.5,249,65.2,249,71.7,249.1C71.7,249,71.7,249,71.7,249.1c0.1-0.1,0.2-0.1,0.3-0.1
			c0,0,0.1-0.1,0.1-0.3c0-1.7,0-3.5,0-5.2l0-1c0-0.2,0-0.3,0-0.4c0,0-0.1,0-0.3,0c0,0,0,0,0,0c-1.7,0-3.4,0-5.1,0h-4.5
			c-1.9,0-3.8,0-5.7,0c0,0,0,0,0,0c-0.1,0-0.2,0-0.2,0.1c0,0-0.1,0.1-0.1,0.2c0,0.6,0,1.1,0,1.7c0,0.3,0,0.6,0,0.9c0,0,0,0.1,0,0.1
			c0,0,0,0,0,0.1c0,0,0.1,0,0.1,0c0.1,0,0.2,0,0.3,0c0.2,0,0.4,0.1,0.4,0.3c0.1,0.1,0.1,0.3,0,0.5c-0.1,0.3-0.4,0.3-0.6,0.3
			c-0.8,0-1.6,0-2.5,0c-0.8,0-1.5,0-2.3,0c-0.5,0-1.1,0-1.6,0c-0.1,0-0.2,0-0.4,0c0,0,0,0,0,0c-0.3,0-0.4-0.1-0.5-0.2
			c-0.1-0.1-0.1-0.2-0.1-0.4c0-0.3,0.2-0.5,0.6-0.5c0.1,0,0.1,0,0.2,0l0.1,0v0.1h-0.1c-0.1,0-0.1,0-0.2,0c-0.4,0-0.6,0.2-0.6,0.4
			c0,0.1,0,0.2,0.1,0.3c0.1,0.1,0.3,0.1,0.5,0.1c0,0,0,0,0,0c0.4,0,0.8,0,1.2,0c0.3,0,0.6,0,1,0c0.7,0,1.4,0,2.1,0
			c0.8,0,1.6,0,2.5,0c0.2,0,0.4,0,0.5-0.3c0.1-0.1,0.1-0.3,0-0.4c-0.1-0.1-0.2-0.2-0.4-0.2c-0.1,0-0.2,0-0.3,0c-0.1,0-0.1,0-0.2,0h0
			l0,0c0,0,0-0.1,0-0.1c0,0,0-0.1,0-0.1c0-0.3,0-0.6,0-0.9c0-0.5,0-1.1,0-1.7c0-0.1,0-0.2,0.1-0.3c0.1-0.1,0.2-0.1,0.3-0.1
			c0,0,0,0,0,0c1.9,0,3.9,0,5.7,0h4.5c1.7,0,3.4,0,5.1,0c0,0,0,0,0,0c0.2,0,0.3,0,0.3,0.1c0.1,0.1,0.1,0.2,0.1,0.4l0,1
			c0,1.7,0,3.5,0,5.2c0,0.1,0,0.3-0.1,0.3C72,249,71.9,249.1,71.7,249.1z M55,245H51V240H55V245z M51,245H55V240H51V245z M65,241H64
			V239H65V241z M64.1,241H65v-2h-0.9V241z M61.3,238.1c-0.1,0-0.2,0-0.3-0.1c-0.1-0.1-0.1-0.2-0.1-0.3c0-0.4,0-0.7,0-1.1
			c0-0.1,0-0.2,0-0.4c0-0.1,0-0.2,0.1-0.2c0,0,0.1-0.1,0.2-0.1h0c1.5,0,3.1,0,4.6,0c0.7,0,1.4,0,2.1,0c0,0,0,0,0.1,0c0,0,0,0,0.1,0
			l0,0v1.9c0,0.1,0,0.1-0.1,0.2c-0.1,0.1-0.1,0.1-0.2,0c0,0,0,0,0,0c-0.8,0-1.6,0-2.3,0H65c-0.7,0-1.3,0-2,0
			C62.4,238.1,61.9,238.1,61.3,238.1C61.3,238.1,61.3,238.1,61.3,238.1z M61.2,236c-0.1,0-0.1,0-0.1,0c0,0,0,0.1,0,0.2
			c0,0.1,0,0.2,0,0.4c0,0.4,0,0.7,0,1.1c0,0.1,0,0.2,0.1,0.3c0,0,0.1,0.1,0.2,0.1c0,0,0,0,0,0c0.9,0,1.8,0,2.6,0c0.3,0,0.7,0,1,0
			h0.5c0.8,0,1.6,0,2.3,0c0,0,0.1,0,0.1,0c0,0,0.1,0,0.1,0c0,0,0-0.1,0-0.1V236c0,0,0,0,0,0c0,0,0,0,0,0c-0.7,0-1.4,0-2.1,0
			C64.3,236,62.7,236,61.2,236C61.2,236,61.2,236,61.2,236z"/>
	</g>
	<g>
		<path class="st2" d="M57,255c-0.3,0-0.5-0.2-0.5-0.5c0-0.3,0.2-0.5,0.5-0.5c0.3,0,0.5,0.2,0.5,0.5C57.5,254.8,57.3,255,57,255z"/>
		<path class="st2" d="M57,255C57,255,57,255,57,255L57,255c-0.3,0-0.5-0.2-0.5-0.5c0-0.1,0.1-0.3,0.2-0.4c0.1-0.1,0.2-0.2,0.4-0.1
			c0.3,0,0.5,0.3,0.5,0.5C57.5,254.8,57.3,255,57,255z M57,255C57,255,57,255,57,255c0.2,0,0.4-0.2,0.5-0.4c0-0.2-0.2-0.4-0.4-0.5
			c0,0,0,0,0,0c-0.1,0-0.2,0-0.3,0.1c-0.1,0.1-0.1,0.2-0.1,0.3C56.6,254.7,56.8,254.9,57,255L57,255z"/>
	</g>
	<g>
		<path class="st2" d="M70.5,253c-0.3,0-0.5-0.2-0.5-0.5c0-0.3,0.2-0.5,0.5-0.5c0.3,0,0.5,0.2,0.5,0.5C71,252.8,70.8,253,70.5,253z"
			/>
		<path class="st2" d="M70.5,253C70.5,253,70.5,253,70.5,253L70.5,253c-0.3,0-0.5-0.2-0.5-0.5c0-0.3,0.2-0.5,0.5-0.5c0,0,0,0,0,0
			c0.1,0,0.3,0,0.4,0.1c0.1,0.1,0.1,0.2,0.1,0.4c0,0.1-0.1,0.3-0.1,0.4C70.8,253,70.7,253,70.5,253z M70.5,253
			C70.5,253,70.5,253,70.5,253c0.1,0,0.2,0,0.3-0.1c0.1-0.1,0.1-0.2,0.1-0.3c0-0.1,0-0.2-0.1-0.3c-0.1-0.1-0.2-0.1-0.3-0.1
			c0,0,0,0,0,0c-0.3,0-0.4,0.2-0.4,0.4C70.1,252.8,70.3,252.9,70.5,253L70.5,253z"/>
	</g>
	<g>
		<path class="st2" d="M68,256.5c0,0.3-0.2,0.5-0.5,0.5c-0.3,0-0.5-0.2-0.5-0.5c0-0.3,0.2-0.5,0.5-0.5C67.8,256,68,256.2,68,256.5z"
			/>
		<path class="st2" d="M67.5,257c-0.1,0-0.3,0-0.4-0.1c-0.1-0.1-0.1-0.2-0.1-0.4c0-0.1,0-0.3,0.1-0.4c0.1-0.1,0.2-0.1,0.4-0.1
			c0,0,0,0,0,0c0.3,0,0.5,0.2,0.5,0.5C68,256.8,67.8,257,67.5,257L67.5,257z M67.5,256.1c-0.1,0-0.2,0-0.3,0.1
			c-0.1,0.1-0.1,0.2-0.1,0.3c0,0.1,0,0.2,0.1,0.3c0.1,0.1,0.2,0.1,0.3,0.1h0c0.3,0,0.4-0.2,0.4-0.4h0h0
			C68,256.3,67.8,256.1,67.5,256.1C67.5,256.1,67.5,256.1,67.5,256.1z"/>
	</g>
	<g>
		<path class="st2" d="M70.5,257c-0.3,0-0.5-0.2-0.5-0.4c0-0.3,0.2-0.5,0.5-0.5c0.3,0,0.5,0.2,0.5,0.4C71,256.8,70.8,257,70.5,257z"
			/>
		<path class="st2" d="M70.5,257c-0.3,0-0.5-0.2-0.5-0.5c0-0.1,0-0.3,0.1-0.4c0.1-0.1,0.2-0.2,0.4-0.2c0,0,0,0,0,0
			c0.3,0,0.5,0.2,0.5,0.5c0,0.1,0,0.3-0.1,0.4C70.8,257,70.7,257,70.5,257L70.5,257C70.5,257,70.5,257,70.5,257z M70.5,256.1
			C70.5,256.1,70.5,256.1,70.5,256.1c-0.1,0-0.2,0.1-0.3,0.1c-0.1,0.1-0.1,0.2-0.1,0.3c0,0.2,0.2,0.4,0.4,0.4c0,0,0,0,0,0l0,0
			c0.1,0,0.2,0,0.3-0.1c0.1-0.1,0.1-0.2,0.1-0.3C70.9,256.2,70.8,256.1,70.5,256.1z"/>
	</g>
	<g>
		<path class="st2" d="M53,252.5c0,0.3-0.2,0.5-0.5,0.5c-0.3,0-0.5-0.2-0.5-0.5c0-0.3,0.2-0.5,0.5-0.5C52.8,252.1,53,252.2,53,252.5
			z"/>
		<path class="st2" d="M52.5,253C52.5,253,52.5,253,52.5,253c-0.3,0-0.5-0.2-0.5-0.5c0-0.1,0-0.3,0.1-0.4c0.1-0.1,0.2-0.1,0.4-0.1
			c0,0,0,0,0,0c0.1,0,0.3,0,0.4,0.1c0.1,0.1,0.1,0.2,0.1,0.4l0,0C53,252.8,52.8,253,52.5,253z M52.5,252.1c-0.1,0-0.2,0-0.3,0.1
			c-0.1,0.1-0.1,0.2-0.1,0.3c0,0.3,0.2,0.4,0.4,0.4c0,0,0,0,0,0c0.3,0,0.4-0.2,0.4-0.4c0-0.1,0-0.2-0.1-0.3
			C52.8,252.1,52.6,252.1,52.5,252.1C52.5,252.1,52.5,252.1,52.5,252.1z"/>
	</g>
	<g>
		<path class="st2" d="M60,253c-0.3,0-0.5-0.2-0.4-0.5c0-0.3,0.2-0.5,0.5-0.4c0.3,0,0.5,0.2,0.5,0.5C60.5,252.8,60.3,253,60,253z"/>
		<path class="st2" d="M60,253C60,253,60,253,60,253c-0.3,0-0.5-0.2-0.5-0.5c0-0.3,0.2-0.5,0.5-0.5c0,0,0,0,0,0
			c0.1,0,0.3,0.1,0.4,0.2c0.1,0.1,0.1,0.2,0.1,0.4C60.5,252.8,60.3,253,60,253z M60,252.1c-0.3,0-0.4,0.2-0.4,0.4
			c0,0.3,0.2,0.4,0.4,0.5l0,0c0,0,0,0,0,0c0.2,0,0.4-0.2,0.4-0.4c0-0.1,0-0.2-0.1-0.3C60.3,252.1,60.2,252.1,60,252.1
			C60,252.1,60,252.1,60,252.1z"/>
	</g>
	<g>
		<path class="st2" d="M53,256.5c0,0.3-0.2,0.5-0.5,0.5c-0.3,0-0.5-0.2-0.5-0.5c0-0.3,0.2-0.5,0.5-0.5C52.8,256,53,256.2,53,256.5z"
			/>
		<path class="st2" d="M52.5,257c-0.3,0-0.5-0.2-0.5-0.5c0-0.3,0.2-0.5,0.5-0.5c0,0,0,0,0,0c0.1,0,0.3,0,0.4,0.1
			c0.1,0.1,0.1,0.2,0.1,0.4l0,0c0,0.1,0,0.3-0.1,0.4C52.8,257,52.7,257,52.5,257C52.5,257,52.5,257,52.5,257z M52.5,256.1
			C52.5,256.1,52.5,256.1,52.5,256.1c-0.3,0-0.4,0.2-0.4,0.4c0,0.3,0.2,0.4,0.4,0.4c0,0,0,0,0,0c0.1,0,0.2,0,0.3-0.1
			c0.1-0.1,0.1-0.2,0.1-0.3l0,0c0-0.1,0-0.2-0.1-0.3C52.7,256.1,52.6,256.1,52.5,256.1z"/>
	</g>
	<g>
		<path class="st2" d="M60.5,256.5c0,0.3-0.2,0.5-0.5,0.5c-0.3,0-0.5-0.2-0.5-0.5c0-0.3,0.2-0.5,0.5-0.5
			C60.3,256,60.5,256.2,60.5,256.5z"/>
		<path class="st2" d="M60,257c-0.1,0-0.3,0-0.4-0.1c-0.1-0.1-0.1-0.2-0.1-0.4c0-0.1,0-0.3,0.1-0.4c0.1-0.1,0.2-0.1,0.4-0.1
			c0,0,0,0,0,0c0.1,0,0.3,0.1,0.4,0.1c0.1,0.1,0.1,0.2,0.1,0.4C60.5,256.8,60.3,257,60,257L60,257z M60,256.1c-0.1,0-0.2,0-0.3,0.1
			c-0.1,0.1-0.1,0.2-0.1,0.3c0,0.1,0,0.2,0.1,0.3c0.1,0.1,0.2,0.1,0.3,0.1h0c0.3,0,0.4-0.2,0.4-0.4l0,0c0-0.1,0-0.2-0.1-0.3
			C60.3,256.1,60.1,256.1,60,256.1C60,256.1,60,256.1,60,256.1z"/>
	</g>
	<g>
		<path class="st2" d="M63,257c-0.3,0-0.5-0.2-0.5-0.5c0-0.3,0.2-0.5,0.5-0.5c0.3,0,0.5,0.2,0.5,0.5C63.5,256.8,63.3,257,63,257z"/>
		<path class="st2" d="M63,257c-0.3,0-0.5-0.2-0.5-0.5c0-0.3,0.2-0.5,0.5-0.5c0.1,0,0.3,0,0.4,0.1s0.1,0.2,0.1,0.4
			C63.5,256.8,63.3,257,63,257L63,257C63,257,63,257,63,257z M63,256.1C63,256.1,63,256.1,63,256.1c-0.3,0-0.5,0.2-0.5,0.4
			c0,0.2,0.2,0.4,0.4,0.4c0,0,0,0,0,0l0,0c0.3,0,0.4-0.2,0.4-0.4c0-0.1,0-0.2-0.1-0.3C63.2,256.1,63.1,256.1,63,256.1z"/>
	</g>
	<g>
		<path class="st2" d="M63.5,252.5c0,0.3-0.2,0.5-0.5,0.5c-0.3,0-0.5-0.2-0.5-0.5c0-0.3,0.2-0.5,0.5-0.5
			C63.3,252,63.5,252.2,63.5,252.5z"/>
		<path class="st2" d="M63,253c-0.3,0-0.5-0.2-0.5-0.5c0-0.1,0-0.3,0.1-0.4c0.1-0.1,0.2-0.1,0.4-0.2c0,0,0,0,0,0
			c0.1,0,0.3,0,0.4,0.1s0.1,0.2,0.1,0.3l0,0C63.5,252.8,63.3,253,63,253C63,253,63,253,63,253z M63,252.1
			C63,252.1,63,252.1,63,252.1c-0.1,0-0.3,0-0.3,0.1c-0.1,0.1-0.1,0.2-0.1,0.3c0,0.2,0.2,0.4,0.4,0.4c0,0,0,0,0,0
			c0.3,0,0.4-0.2,0.4-0.5c0-0.1,0-0.2-0.1-0.3C63.3,252.1,63.1,252.1,63,252.1z"/>
	</g>
	<g>
		<path class="st2" d="M67.5,253c-0.3,0-0.5-0.2-0.5-0.5c0-0.3,0.2-0.5,0.5-0.5c0.3,0,0.5,0.2,0.5,0.5C68,252.8,67.8,253,67.5,253z"
			/>
		<path class="st2" d="M67.5,253c-0.3,0-0.5-0.2-0.5-0.5c0-0.1,0-0.3,0.1-0.4c0.1-0.1,0.2-0.1,0.4-0.1c0,0,0,0,0,0
			c0.3,0,0.5,0.2,0.5,0.5c0,0.1,0,0.3-0.1,0.4C67.8,253,67.7,253,67.5,253L67.5,253C67.5,253,67.5,253,67.5,253z M67.5,252.1
			C67.5,252.1,67.5,252.1,67.5,252.1c-0.1,0-0.2,0-0.3,0.1c-0.1,0.1-0.1,0.2-0.1,0.3c0,0.3,0.2,0.4,0.4,0.4c0,0,0,0,0,0l0,0
			c0.1,0,0.2,0,0.3-0.1c0.1-0.1,0.1-0.2,0.1-0.3C68,252.3,67.8,252.1,67.5,252.1z"/>
	</g>
	<g>
		<path class="st2" d="M49.5,252c0.3,0,0.5,0.2,0.5,0.5c0,0.2-0.2,0.5-0.5,0.5c-0.3,0-0.5-0.2-0.5-0.5C49,252.2,49.2,252.1,49.5,252
			z"/>
		<path class="st2" d="M49.5,253c-0.3,0-0.5-0.2-0.5-0.5c0-0.1,0-0.3,0.1-0.4c0.1-0.1,0.2-0.1,0.4-0.1l0,0c0,0,0,0,0,0
			c0.3,0,0.5,0.2,0.5,0.5c0,0.1,0,0.3-0.1,0.4C49.8,253,49.7,253,49.5,253C49.5,253,49.5,253,49.5,253z M49.5,252.1
			c-0.1,0-0.2,0-0.3,0.1c-0.1,0.1-0.1,0.2-0.1,0.3c0,0.2,0.2,0.4,0.4,0.4c0,0,0,0,0,0c0.1,0,0.2-0.1,0.3-0.1
			c0.1-0.1,0.1-0.2,0.1-0.3C49.9,252.3,49.8,252.1,49.5,252.1C49.5,252.1,49.5,252.1,49.5,252.1L49.5,252.1z"/>
	</g>
	<g>
		<path class="st2" d="M57.5,252.5c0,0.3-0.2,0.5-0.5,0.5c-0.3,0-0.5-0.2-0.5-0.5c0-0.3,0.2-0.5,0.5-0.5
			C57.3,252,57.5,252.2,57.5,252.5z"/>
		<path class="st2" d="M57,253c-0.3,0-0.5-0.2-0.5-0.5c0-0.1,0-0.3,0.1-0.4c0.1-0.1,0.2-0.2,0.4-0.2c0,0,0,0,0,0
			c0.3,0,0.5,0.2,0.5,0.5l0,0C57.5,252.8,57.3,253,57,253C57,253,57,253,57,253z M57,252.1C57,252.1,57,252.1,57,252.1
			c-0.1,0-0.3,0.1-0.3,0.1c-0.1,0.1-0.1,0.2-0.1,0.3c0,0.2,0.2,0.4,0.4,0.4c0,0,0,0,0,0c0.2,0,0.4-0.2,0.4-0.5l0,0
			C57.5,252.3,57.3,252.1,57,252.1z"/>
	</g>
	<g>
		<path class="st2" d="M60.5,254.5c0,0.3-0.2,0.5-0.5,0.5c-0.3,0-0.5-0.2-0.5-0.5c0-0.3,0.2-0.5,0.5-0.5
			C60.3,254,60.5,254.2,60.5,254.5z"/>
		<path class="st2" d="M60,255c-0.1,0-0.3,0-0.3-0.1c-0.1-0.1-0.1-0.2-0.1-0.4c0-0.3,0.2-0.5,0.5-0.5c0,0,0,0,0,0
			c0.1,0,0.3,0.1,0.4,0.1c0.1,0.1,0.1,0.2,0.1,0.4C60.5,254.8,60.3,255,60,255C60,255,60,255,60,255z M60,254.1
			C60,254.1,60,254.1,60,254.1c-0.3,0-0.4,0.2-0.4,0.4c0,0.1,0,0.2,0.1,0.3c0.1,0.1,0.2,0.1,0.3,0.1c0,0,0,0,0,0
			c0.2,0,0.4-0.2,0.4-0.4l0,0c0-0.1,0-0.2-0.1-0.3S60.1,254.1,60,254.1z"/>
	</g>
	<g>
		<path class="st2" d="M49.5,257c-0.3,0-0.5-0.2-0.5-0.5c0-0.3,0.2-0.5,0.5-0.5c0.3,0,0.5,0.2,0.5,0.5C50,256.8,49.8,257,49.5,257z"
			/>
		<path class="st2" d="M49.5,257c-0.1,0-0.3,0-0.3-0.1c-0.1-0.1-0.1-0.2-0.1-0.4c0-0.1,0-0.3,0.1-0.4c0.1-0.1,0.2-0.1,0.4-0.1
			c0,0,0,0,0,0c0.3,0,0.5,0.2,0.5,0.5C50,256.8,49.8,257,49.5,257L49.5,257C49.5,257,49.5,257,49.5,257z M49.5,256.1
			C49.5,256.1,49.5,256.1,49.5,256.1c-0.1,0-0.2,0-0.3,0.1c-0.1,0.1-0.1,0.2-0.1,0.3c0,0.1,0,0.2,0.1,0.3c0.1,0.1,0.2,0.1,0.3,0.1
			c0,0,0,0,0,0l0,0c0.2,0,0.4-0.2,0.4-0.4C50,256.3,49.8,256.1,49.5,256.1z"/>
	</g>
	<g>
		<path class="st2" d="M63.5,254.5c0,0.3-0.2,0.5-0.5,0.5c-0.3,0-0.5-0.2-0.5-0.5c0-0.3,0.2-0.5,0.5-0.5
			C63.3,254,63.5,254.3,63.5,254.5z"/>
		<path class="st2" d="M63,255C63,255,63,255,63,255c-0.3,0-0.5-0.3-0.5-0.5c0-0.1,0.1-0.3,0.2-0.4c0.1-0.1,0.2-0.1,0.3-0.1
			c0,0,0,0,0,0c0.3,0,0.5,0.2,0.5,0.5l0,0c0,0.1-0.1,0.3-0.2,0.4C63.3,255,63.1,255,63,255z M63,254.1c-0.1,0-0.2,0-0.3,0.1
			c-0.1,0.1-0.1,0.2-0.1,0.3c0,0.2,0.2,0.4,0.4,0.5c0,0,0,0,0,0c0.1,0,0.2,0,0.3-0.1c0.1-0.1,0.1-0.2,0.1-0.3l0,0
			C63.5,254.3,63.3,254.1,63,254.1C63,254.1,63,254.1,63,254.1z"/>
	</g>
	<g>
		<path class="st2" d="M68,254.5c0,0.3-0.2,0.5-0.5,0.5c-0.3,0-0.5-0.2-0.5-0.5c0-0.3,0.2-0.5,0.5-0.5C67.8,254,68,254.3,68,254.5z"
			/>
		<path class="st2" d="M67.5,255L67.5,255c-0.1,0-0.3-0.1-0.4-0.1c-0.1-0.1-0.1-0.2-0.1-0.4c0-0.3,0.2-0.5,0.5-0.5c0,0,0,0,0,0
			c0.1,0,0.3,0.1,0.3,0.1c0.1,0.1,0.2,0.2,0.2,0.4c0,0.1-0.1,0.3-0.2,0.4C67.8,255,67.7,255,67.5,255z M67.5,254.1
			C67.5,254.1,67.5,254.1,67.5,254.1c-0.3,0-0.4,0.2-0.4,0.4c0,0.1,0,0.2,0.1,0.3c0.1,0.1,0.2,0.1,0.3,0.1h0c0.1,0,0.2,0,0.3-0.1
			c0.1-0.1,0.1-0.2,0.1-0.3l0,0c0-0.1,0-0.2-0.1-0.3C67.8,254.1,67.6,254.1,67.5,254.1z"/>
	</g>
	<g>
		<path class="st2" d="M70.5,255c-0.3,0-0.5-0.2-0.5-0.5c0-0.3,0.2-0.5,0.5-0.5c0.3,0,0.5,0.2,0.5,0.5C71,254.8,70.8,255,70.5,255z"
			/>
		<path class="st2" d="M70.5,255c-0.3,0-0.5-0.2-0.5-0.5c0-0.1,0.1-0.3,0.1-0.4c0.1-0.1,0.2-0.1,0.4-0.1c0,0,0,0,0,0
			c0.3,0,0.5,0.2,0.5,0.5C71,254.8,70.8,255,70.5,255z M70.5,254.1c-0.1,0-0.2,0-0.3,0.1c-0.1,0.1-0.1,0.2-0.1,0.3
			c0,0.2,0.2,0.4,0.4,0.4c0.3,0,0.4-0.2,0.4-0.4C71,254.3,70.8,254.1,70.5,254.1C70.5,254.1,70.5,254.1,70.5,254.1z"/>
	</g>
	<g>
		<path class="st2" d="M50,254.5c0,0.2-0.2,0.5-0.5,0.5c-0.3,0-0.5-0.2-0.5-0.5c0-0.3,0.2-0.5,0.5-0.5C49.8,254,50,254.3,50,254.5z"
			/>
		<path class="st2" d="M49.5,255C49.5,255,49.5,255,49.5,255c-0.1,0-0.3-0.1-0.4-0.1c-0.1-0.1-0.1-0.2-0.1-0.4
			c0-0.1,0.1-0.3,0.1-0.4c0.1-0.1,0.2-0.1,0.4-0.1c0,0,0,0,0,0c0.1,0,0.3,0.1,0.4,0.2c0.1,0.1,0.1,0.2,0.1,0.3
			C50,254.8,49.8,255,49.5,255z M49.5,254.1c-0.1,0-0.2,0-0.3,0.1c-0.1,0.1-0.1,0.2-0.1,0.3c0,0.1,0,0.2,0.1,0.3
			c0.1,0.1,0.2,0.1,0.3,0.1c0,0,0,0,0,0c0.2,0,0.4-0.2,0.4-0.4h0h0c0-0.1,0-0.2-0.1-0.3C49.7,254.1,49.6,254.1,49.5,254.1
			C49.5,254.1,49.5,254.1,49.5,254.1z"/>
	</g>
	<g>
		<path class="st2" d="M52.5,254c0.3,0,0.5,0.2,0.5,0.5c0,0.3-0.2,0.5-0.5,0.5c-0.3,0-0.5-0.2-0.5-0.5C52,254.2,52.2,254,52.5,254z"
			/>
		<path class="st2" d="M52.5,255c-0.1,0-0.2,0-0.3-0.1c-0.1-0.1-0.2-0.2-0.2-0.4c0-0.3,0.2-0.5,0.5-0.5l0,0l0,0c0,0,0,0,0,0
			c0.1,0,0.3,0,0.4,0.1c0.1,0.1,0.1,0.2,0.1,0.4C53,254.8,52.8,255,52.5,255C52.5,255,52.5,255,52.5,255z M52.5,254.1
			c-0.3,0-0.4,0.2-0.4,0.4c0,0.1,0.1,0.2,0.1,0.3c0.1,0.1,0.2,0.1,0.3,0.1c0,0,0,0,0,0c0.2,0,0.4-0.2,0.4-0.5c0-0.1,0-0.2-0.1-0.3
			C52.7,254.1,52.6,254.1,52.5,254.1C52.5,254.1,52.5,254.1,52.5,254.1L52.5,254.1z"/>
	</g>
	<g>
		
			<ellipse transform="matrix(0.9999 -1.483468e-02 1.483468e-02 0.9999 -3.799 0.874)" class="st2" cx="57" cy="256.5" rx="0.5" ry="0.5"/>
		<path class="st2" d="M57,257c-0.3,0-0.5-0.2-0.5-0.5c0-0.1,0-0.3,0.1-0.3c0.1-0.1,0.2-0.2,0.4-0.2c0,0,0,0,0,0
			c0.3,0,0.5,0.2,0.5,0.5l0,0c0,0.1,0,0.3-0.1,0.3C57.3,257,57.2,257,57,257C57,257,57,257,57,257z M57,256.1
			C57,256.1,57,256.1,57,256.1c-0.1,0-0.2,0.1-0.3,0.1c-0.1,0.1-0.1,0.2-0.1,0.3c0,0.2,0.2,0.4,0.4,0.4c0,0,0,0,0,0
			c0.1,0,0.2,0,0.3-0.1c0.1-0.1,0.1-0.2,0.1-0.3l0,0C57.5,256.3,57.3,256.1,57,256.1z"/>
	</g>
	<g>
		<path class="st2" d="M60,261.1c0.5,0,1,0.4,1,0.9c0,0.6-0.4,1-1,1c-0.5,0-1-0.5-1-1C59,261.5,59.5,261.1,60,261.1z"/>
		<path class="st2" d="M60,263c-0.3,0-0.5-0.1-0.7-0.3c-0.2-0.2-0.3-0.5-0.3-0.7c0-0.6,0.4-1,1-1c0,0,0,0,0,0c0.6,0,1,0.4,1,1
			c0,0.3-0.1,0.5-0.3,0.7C60.5,262.9,60.3,263,60,263C60,263,60,263,60,263z M60,261.1L60,261.1c-0.5,0-0.9,0.4-0.9,1
			c0,0.2,0.1,0.5,0.3,0.7c0.2,0.2,0.4,0.3,0.7,0.3c0,0,0,0,0,0c0.3,0,0.5-0.1,0.7-0.3c0.2-0.2,0.3-0.4,0.3-0.7
			C60.9,261.5,60.5,261.1,60,261.1C60,261.1,60,261.1,60,261.1L60,261.1z"/>
	</g>
	<g>
		<path class="st2" d="M64.5,248c-1.9,0-3.9,0-5.8,0c-0.5,0-0.6-0.1-0.6-0.6c0-1.3,0-2.5,0-3.8c0-0.4,0.1-0.6,0.6-0.6
			c3.9,0,7.8,0,11.7,0c0.5,0,0.6,0.1,0.6,0.6c0,1.2,0,2.5,0,3.7c0,0.4-0.1,0.6-0.6,0.6C68.4,248,66.5,248,64.5,248z M70,244
			c-3.7,0-7.4,0-11,0c0,1,0,2,0,3c0.2,0,0.3,0,0.5,0c1.6,0,3.1,0,4.7,0c1.8,0,3.7,0,5.5,0c0.2,0,0.3-0.1,0.3-0.3c0-0.8,0-1.6,0-2.4
			C70,244.3,70,244.1,70,244z"/>
		<path class="st2" d="M67.9,248c-0.6,0-1.1,0-1.7,0l-1.7,0c-1.9,0-3.9,0-5.8,0c-0.5,0-0.6-0.1-0.6-0.6c0-1.2,0-2.4,0-3.8
			c0-0.4,0.2-0.6,0.6-0.6c3.9,0,7.8,0,11.7,0c0.3,0,0.4,0,0.5,0.1c0.1,0.1,0.1,0.2,0.1,0.5v0.6c0,1,0,2.1,0,3.1
			c0,0.5-0.2,0.6-0.6,0.6C69.6,248,68.7,248,67.9,248z M70.4,243.1c-3.9,0-7.8,0-11.7,0c-0.4,0-0.5,0.1-0.5,0.5c0,1.3,0,2.6,0,3.8
			c0,0.5,0.1,0.6,0.6,0.6c1.9,0,3.9,0,5.8,0h1.7c1.4,0,2.8,0,4.2,0c0.4,0,0.6-0.1,0.6-0.6c0-1,0-2.1,0-3.1v-0.6c0-0.3,0-0.4-0.1-0.5
			C70.8,243.1,70.6,243.1,70.4,243.1z M69.7,247.1C69.7,247.1,69.7,247.1,69.7,247.1c-1.4,0-2.9,0-4.3,0l-6.4,0V244h11.1v0.4
			c0,0.2,0,0.5,0,0.7c0,0.5,0,1.1,0,1.6c0,0.1,0,0.2-0.1,0.3C70,247,69.9,247.1,69.7,247.1z M67,247c0.9,0,1.9,0,2.8,0c0,0,0,0,0,0
			c0.1,0,0.2,0,0.2-0.1c0,0,0.1-0.1,0.1-0.2c0-0.5,0-1.1,0-1.6c0-0.2,0-0.5,0-0.7V244H59v3l6.4,0C65.9,247,66.4,247,67,247z"/>
	</g>
	<g>
		<path class="st2" d="M53,243c0.2,0,0.3,0,0.5,0c0.3,0,0.4,0.2,0.5,0.4c0,0.2-0.2,0.5-0.4,0.5c-0.4,0-0.7,0-1.1,0
			c-0.3,0-0.4-0.2-0.4-0.5c0-0.3,0.2-0.4,0.4-0.5C52.7,243,52.8,243,53,243z"/>
		<path class="st2" d="M53,244c-0.2,0-0.4,0-0.5,0c-0.3,0-0.5-0.2-0.5-0.5c0-0.3,0.2-0.5,0.5-0.5c0.1,0,0.2,0,0.4,0
			c0.1,0,0.1,0,0.2,0l0,0c0,0,0,0,0,0c0.1,0,0.2,0,0.3,0c0.1,0,0.1,0,0.2,0c0.3,0,0.5,0.2,0.5,0.5c0,0.3-0.2,0.5-0.5,0.5
			C53.4,244,53.2,244,53,244z M52.7,243.1c-0.1,0-0.1,0-0.2,0c-0.2,0-0.4,0.2-0.4,0.4c0,0.2,0.2,0.4,0.4,0.5c0.4,0,0.7,0,1.1,0
			c0.2,0,0.4-0.2,0.4-0.5c0-0.2-0.2-0.4-0.4-0.4c-0.1,0-0.2,0-0.3,0c-0.1,0-0.1,0-0.2,0C52.9,243.1,52.8,243.1,52.7,243.1z"/>
	</g>
	<g>
		<path class="st2" d="M53,242c-0.2,0-0.3,0-0.5,0c-0.3,0-0.4-0.2-0.4-0.5c0-0.3,0.2-0.5,0.4-0.5c0.4,0,0.7,0,1.1,0
			c0.3,0,0.5,0.2,0.5,0.5c0,0.2-0.2,0.4-0.5,0.4C53.3,242,53.2,242,53,242L53,242z"/>
		<path class="st2" d="M53.3,242c-0.1,0-0.2,0-0.3,0l0,0c-0.1,0-0.2,0-0.3,0c-0.1,0-0.1,0-0.2,0c-0.3,0-0.5-0.2-0.5-0.5
			c0-0.3,0.2-0.5,0.5-0.5c0.3,0,0.7,0,1.1,0c0.3,0,0.5,0.2,0.5,0.5c0,0.3-0.2,0.5-0.5,0.5C53.5,242,53.4,242,53.3,242z M53,241.9
			c0.1,0,0.2,0,0.3,0c0.1,0,0.1,0,0.2,0c0.2,0,0.4-0.2,0.4-0.4c0-0.2-0.2-0.4-0.4-0.5c-0.4,0-0.7,0-1.1,0c-0.2,0-0.4,0.2-0.4,0.4
			c0,0.2,0.2,0.4,0.4,0.4c0.1,0,0.2,0,0.3,0C52.9,241.9,52.9,241.9,53,241.9L53,241.9z"/>
	</g>
</g>
<g>
	<g>
		<path class="st2" d="M63.4,779.1c2.1-0.1,4.1-0.3,5.9-1.6c1.1-0.8,1.7-1.9,1.8-3.4c-0.5,0-1,0-1.4,0c-0.7,0-1.3-0.5-1.4-1.2
			c0-0.1,0-0.2,0-0.3c0-2.7,0-5.4,0-8.1c0-1,0.6-1.6,1.6-1.6c0.4,0,0.8,0,1.3,0c-0.3-3.5-1.7-6.5-4.6-8.5c-3.9-2.7-8-2.9-12.1-0.6
			c-3.5,1.9-5.2,5.1-5.5,9.1c0.5,0,0.9,0,1.3,0c1,0,1.6,0.6,1.6,1.6c0,2.6,0,5.3,0,7.9c0,1-0.6,1.6-1.6,1.6c-0.8,0-1.6,0-2.4,0
			c-1.6-0.1-2.8-1.5-2.8-3.1c0-1.6,0-3.2,0-4.8c0-1.6,1.1-2.9,2.7-3.2c0.1,0,0.2-0.1,0.2-0.2c0.5-5.1,3.1-8.7,7.8-10.6
			c4.1-1.6,8-0.9,11.5,1.7c2.4,1.8,3.9,4.3,4.5,7.2c0.1,0.5,0.2,1.1,0.2,1.6c0,0.2,0.1,0.2,0.2,0.3c1.6,0.3,2.7,1.6,2.7,3.2
			c0,1.5,0,3,0,4.5c0,1.7-1.1,3-2.8,3.3c-0.1,0-0.2,0.1-0.2,0.2c-0.3,2.7-2,4.2-4.4,5.1c-1.3,0.5-2.7,0.7-4.1,0.7
			c-0.2,0-0.3,0.1-0.4,0.3c-0.4,0.7-1,1-1.8,1c-0.9,0-1.8,0-2.7,0c-1,0-1.8-0.7-2-1.6c-0.2-1.1,0.7-2.2,1.9-2.2c1,0,1.9,0,2.9,0
			C62.4,777.5,63,778,63.4,779.1z M50.8,768.5c0-1.4,0-2.7,0-4.1c0-0.4-0.1-0.5-0.5-0.5c-0.7,0-1.4,0-2,0c-1.3,0-2.3,0.8-2.3,2.1
			c0,1.7,0,3.3,0,5c0,1.2,0.7,2,1.9,2.1c0.8,0.1,1.6,0,2.4,0c0.4,0,0.5-0.1,0.5-0.5C50.8,771.2,50.8,769.9,50.8,768.5z M69.2,768.5
			c0,1.3,0,2.7,0,4c0,0.5,0.1,0.6,0.6,0.6c0.6,0,1.3,0,1.9,0c1.3,0.1,2.3-0.7,2.3-2.1c0-1.6,0-3.3,0-4.9c0-1.3-0.9-2.1-2.1-2.1
			c-0.7,0-1.4,0-2.1,0c-0.5,0-0.5,0.1-0.5,0.5C69.2,765.8,69.2,767.2,69.2,768.5z M60,780.4c0.3,0,0.6,0,0.9,0c0.3,0,0.6,0,0.8,0
			c0.3,0,0.6-0.3,0.7-0.6c0.2-0.8-0.2-1.3-1-1.3c-0.9,0-1.8,0-2.7,0c-0.1,0-0.3,0-0.4,0c-0.3,0.1-0.5,0.3-0.6,0.6
			c-0.2,0.7,0.2,1.3,0.9,1.3C59.1,780.4,59.5,780.4,60,780.4z"/>
		<path class="st2" d="M59.7,781.4c-0.4,0-0.7,0-1.1,0c-1,0-1.9-0.7-2.1-1.7c-0.1-0.5,0-1.1,0.4-1.6c0.4-0.5,1-0.8,1.6-0.8
			c0.9,0,1.8,0,2.9,0c0.9,0,1.6,0.6,2,1.6c1.9-0.1,4-0.3,5.7-1.6c1-0.8,1.6-1.8,1.8-3.2l-0.3,0c-0.3,0-0.6,0-1,0
			c-0.8,0-1.4-0.5-1.5-1.2c0-0.1,0-0.3,0-0.4c0-2.7,0-5.4,0-8.1c0-1,0.7-1.7,1.7-1.7H71c-0.3-3.6-1.8-6.4-4.5-8.3
			c-3.9-2.7-7.9-2.9-12-0.6c-3.3,1.8-5.1,4.8-5.5,8.9h1.2c1.1,0,1.7,0.6,1.7,1.7c0,2.6,0,5.3,0,7.9c0,0.5-0.2,0.9-0.5,1.2
			c-0.3,0.3-0.7,0.4-1.2,0.4c-0.1,0-0.1,0-0.2,0c-0.2,0-0.3,0-0.5,0c-0.6,0-1.1,0-1.7,0c-1.6-0.1-2.9-1.5-2.9-3.2c0-1.5,0-3.1,0-4.8
			c0-1.7,1.1-3,2.8-3.2c0.1,0,0.1,0,0.1-0.2c0.5-5.2,3.1-8.8,7.9-10.7c4.1-1.6,8-1,11.6,1.7c2.4,1.8,3.9,4.3,4.6,7.3
			c0.1,0.5,0.1,1,0.2,1.5l0,0.1c0,0.1,0,0.2,0.2,0.2c1.7,0.3,2.8,1.6,2.8,3.3c0,1.5,0,3,0,4.5c0,1.8-1.1,3.1-2.8,3.4
			c0,0-0.1,0.1-0.1,0.1c-0.3,2.5-1.8,4.2-4.5,5.2c-1.2,0.4-2.5,0.7-4.1,0.7c-0.2,0-0.3,0.1-0.4,0.2c-0.4,0.7-1.1,1.1-1.9,1.1l-0.6,0
			C60.4,781.4,60.1,781.4,59.7,781.4z M59.9,777.5c-0.5,0-0.9,0-1.4,0c-0.6,0-1.1,0.3-1.4,0.7c-0.3,0.4-0.5,0.9-0.4,1.4
			c0.2,0.9,1,1.6,1.9,1.6c0.7,0,1.4,0,2.1,0l0.6,0c0.7,0,1.3-0.3,1.7-1c0.1-0.2,0.3-0.3,0.5-0.3c1.5,0,2.8-0.3,4-0.7
			c2.6-1,4.1-2.6,4.4-5c0-0.1,0.2-0.2,0.3-0.3c1.6-0.3,2.7-1.5,2.7-3.2c0-1.5,0-3,0-4.5c0-1.6-1-2.9-2.6-3.1c-0.2,0-0.3-0.2-0.3-0.4
			l0-0.1c0-0.5-0.1-1-0.2-1.4c-0.6-3-2.1-5.4-4.5-7.2c-3.6-2.7-7.5-3.3-11.5-1.7c-4.7,1.8-7.3,5.4-7.8,10.5c0,0.2-0.1,0.3-0.3,0.3
			c-1.6,0.3-2.6,1.5-2.6,3.1c0,1.8,0,3.3,0,4.8c0,1.5,1.2,2.9,2.7,3c0.6,0,1.1,0,1.7,0c0.2,0,0.5,0,0.7,0c0,0,0,0,0,0
			c0.4,0,0.8-0.1,1.1-0.4c0.3-0.3,0.4-0.6,0.4-1.1c0-2.6,0-5.3,0-7.9c0-1-0.5-1.5-1.5-1.5h-1.4l0-0.1c0.3-4.2,2.2-7.3,5.6-9.2
			c4.1-2.3,8.3-2.1,12.2,0.6c2.8,1.9,4.4,4.8,4.6,8.6l0,0.1h-1.4c-0.9,0-1.5,0.6-1.5,1.5c0,2.7,0,5.4,0,8.1c0,0.1,0,0.2,0,0.3
			c0.1,0.6,0.7,1.1,1.3,1.1c0.3,0,0.6,0,1,0l0.6,0l0,0.1c-0.1,1.5-0.7,2.6-1.9,3.4c-1.8,1.3-3.9,1.5-5.9,1.6l-0.1,0l0-0.1
			c-0.3-1-1-1.6-1.8-1.6C60.9,777.5,60.4,777.5,59.9,777.5z M59.1,780.5c-0.2,0-0.4,0-0.5,0c-0.4,0-0.7-0.2-0.9-0.4
			c-0.2-0.3-0.2-0.6-0.1-1c0.1-0.3,0.3-0.6,0.7-0.6c0.1,0,0.3,0,0.4,0c0.9,0,1.8,0,2.7,0c0.4,0,0.7,0.1,0.9,0.4
			c0.2,0.3,0.2,0.6,0.1,1c-0.1,0.4-0.4,0.6-0.7,0.7c-0.2,0-0.5,0-0.7,0l-0.1,0c-0.2,0-0.4,0-0.6,0l-0.2,0c-0.2,0-0.3,0-0.5,0
			C59.4,780.5,59.3,780.5,59.1,780.5z M60.1,778.5c-0.5,0-1,0-1.4,0c-0.1,0-0.2,0-0.4,0c-0.3,0.1-0.5,0.2-0.5,0.5
			c-0.1,0.3-0.1,0.6,0.1,0.8c0.2,0.2,0.4,0.3,0.8,0.3c0.3,0,0.6,0,0.9,0c0.2,0,0.3,0,0.5,0h0.2c0.2,0,0.4,0,0.6,0l0.1,0
			c0.2,0,0.5,0,0.7,0c0.3,0,0.5-0.2,0.6-0.5c0.1-0.3,0.1-0.6-0.1-0.8c-0.2-0.2-0.4-0.3-0.8-0.3C60.9,778.5,60.5,778.5,60.1,778.5z
			 M49,773.2c-0.4,0-0.8,0-1.1,0c-1.2-0.1-2-0.9-2-2.1c0-1.8,0-3.4,0-5c0-0.7,0.2-1.2,0.7-1.6c0.4-0.4,1-0.6,1.7-0.6
			c0.4,0,0.9,0,1.3,0c0.2,0,0.4,0,0.7,0c0,0,0,0,0,0c0.5,0,0.6,0.1,0.6,0.6c0,1,0,2,0,3l0,5.2c0,0.2,0,0.4-0.1,0.5
			c-0.1,0.1-0.2,0.1-0.5,0.1c0,0-0.1,0-0.1,0c-0.2,0-0.4,0-0.6,0C49.4,773.2,49.2,773.2,49,773.2z M48.2,764c-0.6,0-1.1,0.2-1.5,0.5
			c-0.4,0.4-0.6,0.9-0.6,1.5c0,1.6,0,3.2,0,5c0,1.1,0.7,1.9,1.8,2c0.6,0,1.1,0,1.7,0c0.2,0,0.5,0,0.7,0c0,0,0,0,0,0
			c0.2,0,0.3,0,0.3-0.1c0,0,0.1-0.1,0.1-0.4l0-5.2c0-1,0-2,0-3c0-0.4,0-0.4-0.4-0.4c-0.2,0-0.5,0-0.7,0c-0.4,0-0.9,0-1.3,0
			C48.2,764,48.2,764,48.2,764z M69.7,773.2c-0.3,0-0.4,0-0.5-0.1c-0.1-0.1-0.1-0.3-0.1-0.5v-8.1c0-0.5,0.1-0.6,0.6-0.6l0.4,0
			c0.6,0,1.2,0,1.8,0c0,0,0,0,0,0c1.3,0,2.2,0.9,2.2,2.2c0,1.8,0,3.4,0,4.9c0,0.7-0.2,1.2-0.7,1.6c-0.4,0.4-1.1,0.6-1.8,0.6
			c-0.4,0-0.8,0-1.3,0C70.2,773.2,70,773.2,69.7,773.2z M69.7,764c-0.4,0-0.5,0-0.5,0.4v8.1c0,0.2,0,0.3,0.1,0.4
			c0.1,0.1,0.2,0.1,0.4,0.1c0,0,0,0,0,0c0.2,0,0.4,0,0.7,0c0.4,0,0.9,0,1.3,0c0.6,0,1.2-0.1,1.6-0.5c0.4-0.4,0.6-0.9,0.6-1.5
			c0-1.6,0-3.2,0-4.9c0-1.2-0.8-2-2-2c0,0,0,0,0,0c-0.6,0-1.2,0-1.8,0L69.7,764z"/>
	</g>
</g>
<g>
	<g>
		<path class="st2" d="M75,523.7c-0.2,0-0.3,0-0.4,0c-8.8,0-17.5,0-26.3,0c-0.6,0-0.6,0-0.5,0.6c0,0.5,0,0.9,0,1.4
			c-0.3,0-0.5,0-0.7,0c-0.1,0-0.2-0.2-0.2-0.3c0-0.4,0-0.8,0-1.2c0-0.4-0.1-0.4-0.4-0.4c-0.5,0-0.9,0-1.5,0c0-0.3,0-0.5,0-0.8
			c0-0.1,0.2-0.1,0.3-0.2c0.4,0,0.8,0,1.2,0c0.4,0,0.4-0.1,0.4-0.4c0-8,0-16.1,0-24.1c0-0.1,0.1-0.4,0.1-0.4c0.2-0.1,0.4,0,0.7,0
			c0,0,0.1,0.1,0.1,0.2c0,0.1,0,0.2,0,0.3c0,8,0,16,0,24c0,0.4,0,0.4,0.5,0.4c0.4,0,0.5,0,0.5-0.4c0-1.8,0-3.6,0-5.5
			c0-0.4,0-0.4,0.4-0.4c1.6,0,3.2,0,4.8,0c0.4,0,0.4,0,0.4,0.4c0,1.8,0,3.6,0,5.4c0,0.1,0.1,0.4,0.2,0.4c0.2,0,0.5,0,0.7,0
			c0,0,0.1-0.2,0.1-0.3c0-3.4,0-6.8,0-10.2c0-0.1,0-0.1,0-0.2c0-0.2,0.1-0.3,0.3-0.3c1.6,0,3.2,0,4.8,0c0.4,0,0.4,0,0.4,0.4
			c0,2,0,4,0,6c0,1.4,0,2.9,0,4.3c0,0.4,0,0.4,0.5,0.4c0.4,0,0.5,0,0.5-0.4c0-5.1,0-10.1,0-15.2c0-0.3,0.1-0.4,0.3-0.4
			c1.6,0,3.3,0,4.9,0c0.3,0,0.4,0.1,0.4,0.4c0,5.1,0,10.1,0,15.2c0,0.3,0.1,0.4,0.4,0.4c0.1,0,0.2,0,0.3,0c0.1-0.1,0.2-0.2,0.3-0.3
			c0-0.1,0-0.2,0-0.2c0-6.6,0-13.3,0-19.9c0-0.3,0.1-0.4,0.4-0.4c1.6,0,3.2,0,4.8,0c0.4,0,0.4,0,0.4,0.4c0,6.7,0,13.3,0,20
			c0,0.4,0,0.4,0.4,0.4c0.6,0,0.6,0,0.6,0.6C75,523.4,75,523.5,75,523.7z M69.4,512.8c0,0.7,0,1.5,0,2.2c0,2.4,0,4.9,0,7.3
			c0,0.4,0,0.4,0.4,0.4c1,0,2,0,3,0c0.3,0,0.4-0.1,0.4-0.4c0-6.3,0-12.7,0-19c0-0.4-0.1-0.5-0.5-0.5c-0.9,0-1.9,0-2.8,0
			c-0.5,0-0.5,0-0.5,0.5C69.4,506.5,69.4,509.7,69.4,512.8z M66.6,515.2c0-2.4,0-4.7,0-7.1c0-0.4-0.1-0.4-0.4-0.4c-1,0-2,0-3,0
			c-0.3,0-0.4,0.1-0.4,0.4c0,4.8,0,9.5,0,14.3c0,0.3,0.1,0.4,0.4,0.4c1,0,2,0,3,0c0.4,0,0.4-0.1,0.4-0.4
			C66.6,520,66.6,517.6,66.6,515.2z M56.2,517.6c0,1.6,0,3.1,0,4.7c0,0.3,0.1,0.4,0.4,0.4c1,0,2,0,3.1,0c0.3,0,0.4-0.1,0.4-0.4
			c0-3.1,0-6.3,0-9.4c0-0.4-0.1-0.4-0.4-0.4c-1,0-1.9,0-2.9,0c-0.5,0-0.5,0-0.5,0.5C56.2,514.6,56.2,516.1,56.2,517.6z M53.5,520.1
			C53.5,520.1,53.5,520.1,53.5,520.1c0-0.8,0-1.5,0-2.3c0-0.3-0.1-0.4-0.4-0.4c-1,0-2,0-3,0c-0.3,0-0.4,0.1-0.4,0.4
			c0,1.5,0,3.1,0,4.6c0,0.2,0.1,0.4,0.3,0.3c1,0,2,0,3.1,0c0.3,0,0.4-0.1,0.4-0.4C53.5,521.6,53.5,520.8,53.5,520.1z"/>
		<path class="st2" d="M47.4,525.7c-0.1,0-0.2,0-0.3,0c-0.1,0-0.2-0.2-0.2-0.3c0-0.3,0-0.5,0-0.8c0-0.1,0-0.3,0-0.4
			c0-0.3,0-0.4-0.4-0.4c-0.5,0-0.9,0-1.5,0h0v0c0-0.1,0-0.2,0-0.2c0-0.2,0-0.4,0-0.6c0-0.1,0.2-0.2,0.3-0.2c0.3,0,0.5,0,0.8,0
			c0.1,0,0.3,0,0.4,0c0.4,0,0.4,0,0.4-0.4v-1.7c0-7.3,0-14.9,0-22.4c0-0.1,0-0.4,0.2-0.4c0.2-0.1,0.4,0,0.6,0l0.1,0
			c0.1,0,0.1,0.2,0.1,0.2c0,0.1,0,0.2,0,0.2c0,0,0,0.1,0,0.1c0,8,0,16,0,24c0,0.2,0,0.3,0.1,0.3c0.1,0.1,0.2,0.1,0.4,0.1
			c0.4,0,0.4,0,0.4-0.4c0-1.8,0-3.6,0-5.5c0-0.2,0-0.3,0.1-0.4c0.1-0.1,0.2-0.1,0.3-0.1h1.6c1.1,0,2.1,0,3.2,0c0.4,0,0.4,0,0.4,0.4
			l0,1c0,1.4,0,2.9,0,4.4c0,0.1,0.1,0.4,0.1,0.4c0.3,0,0.5,0,0.7,0c0,0,0.1-0.2,0.1-0.3c0-3.1,0-6.2,0-9.2v-1c0,0,0,0,0-0.1
			c0,0,0-0.1,0-0.1c0-0.1,0-0.2,0.1-0.3c0.1-0.1,0.1-0.1,0.3-0.1c0,0,0,0,0,0c1.2,0,2.5,0,3.7,0h1.1c0.4,0,0.4,0,0.4,0.4
			c0,1.3,0,2.6,0,4v2c0,1.4,0,2.9,0,4.3c0,0.4,0,0.4,0.5,0.4c0.4,0,0.4,0,0.4-0.4l0-3c0-4,0-8.1,0-12.2c0-0.1,0-0.2,0.1-0.3
			c0.1-0.1,0.1-0.1,0.3-0.1c0,0,0,0,0,0c1.7,0,3.3,0,4.9,0c0,0,0,0,0,0c0.1,0,0.2,0,0.3,0.1c0.1,0.1,0.1,0.2,0.1,0.3
			c0,4.6,0,9.2,0,13.7v1.5c0,0.3,0,0.4,0.4,0.4c0,0,0.1,0,0.1,0c0.1,0,0.1,0,0.2,0c0.1,0,0.2-0.1,0.3-0.2c0,0,0-0.1,0-0.1
			c0,0,0-0.1,0-0.1l0-4c0-5.2,0-10.6,0-15.9c0-0.2,0-0.3,0.1-0.3c0.1-0.1,0.2-0.1,0.3-0.1c0,0,0,0,0,0c1.2,0,2.4,0,3.5,0
			c0.4,0,0.8,0,1.3,0c0.4,0,0.4,0.1,0.4,0.4l0,20c0,0.4,0,0.4,0.4,0.4c0.6,0,0.6,0,0.6,0.6v0.4l0,0c-0.1,0-0.1,0-0.1,0
			c-0.1,0-0.2,0-0.2,0c-8.8,0-17.5,0-26.3,0c-0.3,0-0.4,0-0.5,0.1s-0.1,0.2-0.1,0.5c0,0.3,0,0.7,0,1v0.4h0c-0.1,0-0.2,0-0.2,0
			C47.5,525.7,47.4,525.7,47.4,525.7z M45,523.6c0.5,0,1,0,1.4,0c0.4,0,0.5,0.1,0.5,0.5c0,0.1,0,0.3,0,0.4c0,0.3,0,0.5,0,0.8
			c0,0.1,0.1,0.2,0.1,0.2c0.2,0,0.3,0,0.5,0c0.1,0,0.1,0,0.2,0v-0.3c0-0.4,0-0.7,0-1c0-0.3,0-0.4,0.1-0.5s0.2-0.1,0.5-0.1
			c8.8,0,17.5,0,26.3,0c0.1,0,0.2,0,0.2,0c0,0,0.1,0,0.1,0v-0.3c0-0.5,0-0.5-0.5-0.5c-0.4,0-0.4-0.1-0.4-0.5l0-20
			c0-0.3,0-0.4-0.4-0.4c-0.8,0-1.7,0-2.5,0c-0.8,0-1.5,0-2.3,0c0,0,0,0,0,0c-0.1,0-0.2,0-0.3,0.1c-0.1,0.1-0.1,0.1-0.1,0.3
			c0,5.3,0,10.7,0,15.9v4c0,0,0,0,0,0.1c0,0.1,0,0.1,0,0.2c-0.1,0.1-0.2,0.2-0.3,0.3c-0.1,0-0.1,0-0.2,0c0,0-0.1,0-0.1,0
			c-0.4,0-0.4-0.1-0.4-0.4v-1.5c0-4.5,0-9.1,0-13.7c0-0.1,0-0.2-0.1-0.3c0,0-0.1-0.1-0.3-0.1c0,0,0,0,0,0c-1.6,0-3.2,0-4.9,0
			c0,0,0,0,0,0c-0.1,0-0.2,0-0.2,0.1c0,0-0.1,0.1-0.1,0.3c0,4.1,0,8.2,0,12.2v3c0,0.4,0,0.4-0.5,0.4c-0.5,0-0.6,0-0.6-0.5
			c0-1.4,0-2.9,0-4.3v-2c0-1.3,0-2.6,0-4c0-0.4,0-0.4-0.4-0.4l-1.1,0c-1.2,0-2.5,0-3.7,0c0,0,0,0,0,0c-0.1,0-0.2,0-0.2,0.1
			c0,0-0.1,0.1-0.1,0.2c0,0.1,0,0.1,0,0.2c0,0,0,0,0,0.1l0,1c0,3,0,6.1,0,9.2c0,0,0,0.3-0.1,0.4c-0.2,0-0.5,0.1-0.7,0
			c-0.1,0-0.2-0.3-0.2-0.4c0-1.5,0-3,0-4.4l0-1c0-0.3,0-0.4-0.4-0.4c-1.1,0-2.1,0-3.2,0h-1.6c-0.2,0-0.3,0-0.3,0c0,0,0,0.1,0,0.3
			c0,1.8,0,3.6,0,5.5c0,0.4-0.1,0.4-0.5,0.4c0,0,0,0,0,0c-0.3,0-0.4,0-0.5-0.1c-0.1-0.1-0.1-0.2-0.1-0.4c0-8,0-16,0-24
			c0,0,0-0.1,0-0.1c0-0.1,0-0.2,0-0.2c0-0.1-0.1-0.2-0.1-0.2l-0.1,0c-0.2,0-0.4,0-0.6,0c-0.1,0-0.1,0.2-0.1,0.4c0,7.5,0,15,0,22.4
			v1.7c0,0.4-0.1,0.4-0.5,0.4c0,0,0,0,0,0c-0.2,0-0.5,0-0.7,0c-0.1,0-0.3,0-0.4,0c-0.1,0-0.2,0.1-0.2,0.1c0,0.2,0,0.4,0,0.5
			C45,523.5,45,523.6,45,523.6z M63.2,522.8c-0.1,0-0.2,0-0.3-0.1c-0.1-0.1-0.1-0.2-0.1-0.3c0-4.7,0-9.5,0-14.3c0-0.1,0-0.2,0.1-0.3
			c0.1-0.1,0.2-0.1,0.3-0.1c0,0,0,0,0,0c0.6,0,1.2,0,1.8,0c0.4,0,0.8,0,1.2,0c0.4,0,0.4,0.1,0.4,0.4v7.1c0,2.4,0,4.7,0,7.1
			c0,0.4-0.1,0.5-0.5,0.5c-0.4,0-0.7,0-1.1,0C64.5,522.8,63.8,522.8,63.2,522.8C63.2,522.8,63.2,522.8,63.2,522.8z M63.2,507.7
			c-0.1,0-0.2,0-0.2,0.1c-0.1,0.1-0.1,0.1-0.1,0.3c0,4.7,0,9.5,0,14.3c0,0.1,0,0.2,0.1,0.3c0.1,0.1,0.1,0.1,0.3,0.1c0,0,0,0,0,0
			c0.6,0,1.3,0,1.9,0c0.4,0,0.7,0,1.1,0c0.3,0,0.4,0,0.4-0.4c0-2.4,0-4.7,0-7.1v-7.1c0-0.3,0-0.4-0.4-0.4c-0.4,0-0.8,0-1.2,0
			C64.4,507.7,63.8,507.8,63.2,507.7C63.2,507.7,63.2,507.7,63.2,507.7z M56.6,522.8c-0.1,0-0.2,0-0.3-0.1c-0.1-0.1-0.1-0.2-0.1-0.3
			c0-1.2,0-2.3,0-3.5l0-1.2c0-0.8,0-1.5,0-2.3c0-0.8,0-1.5,0-2.3c0-0.5,0-0.5,0.5-0.5c0.5,0,1,0,1.4,0s1,0,1.4,0
			c0.4,0,0.5,0.1,0.5,0.4c0,1.2,0,2.4,0,3.5c0,2,0,3.9,0,5.9c0,0.1,0,0.2-0.1,0.3c-0.1,0.1-0.2,0.1-0.3,0.1c0,0,0,0,0,0
			C58.7,522.8,57.6,522.8,56.6,522.8C56.6,522.8,56.6,522.8,56.6,522.8z M56.3,517.6l0,1.2c0,1.1,0,2.3,0,3.5c0,0.2,0,0.2,0.1,0.3
			c0,0,0.1,0.1,0.2,0.1c1,0,2.1,0,3.1,0c0,0,0,0,0,0c0.1,0,0.2,0,0.2-0.1c0.1-0.1,0.1-0.1,0.1-0.3c0-2,0-3.9,0-5.9
			c0-1.2,0-2.4,0-3.5c0-0.3,0-0.4-0.4-0.4c-0.5,0-1,0-1.4,0c-0.5,0-1,0-1.4,0c-0.4,0-0.5,0-0.5,0.4c0,0.8,0,1.5,0,2.3
			C56.3,516.1,56.3,516.9,56.3,517.6L56.3,517.6z M53.1,522.8C53.1,522.8,53.1,522.8,53.1,522.8c-1,0-2.1,0-3.1,0c0,0,0,0,0,0
			c-0.1,0-0.2,0-0.3-0.1c-0.1-0.1-0.1-0.2-0.1-0.3c0-1.4,0-2.8,0-4.6c0-0.1,0-0.2,0.1-0.3c0.1-0.1,0.2-0.1,0.3-0.1c0,0,0,0,0,0
			c0.6,0,1.2,0,1.7,0c0.4,0,0.8,0,1.3,0c0.3,0,0.4,0.1,0.4,0.4c0,0.7,0,1.5,0,2.2l0,0c0,0.2,0,0.4,0,0.7c0,0.5,0,1.1,0,1.6
			c0,0.1,0,0.2-0.1,0.3S53.2,522.8,53.1,522.8z M51.6,522.7c0.5,0,1,0,1.5,0c0,0,0,0,0,0c0.1,0,0.2,0,0.3-0.1
			c0.1-0.1,0.1-0.1,0.1-0.3c0-0.5,0-1.1,0-1.6c0-0.2,0-0.4,0-0.6h0v0c0-0.8,0-1.5,0-2.3c0-0.3-0.1-0.4-0.4-0.4c-0.4,0-0.8,0-1.3,0
			c-0.6,0-1.2,0-1.7,0c0,0,0,0,0,0c-0.1,0-0.2,0-0.3,0.1c-0.1,0.1-0.1,0.1-0.1,0.3c0,1.8,0,3.3,0,4.6c0,0.1,0,0.2,0.1,0.2
			c0,0,0.1,0.1,0.2,0.1c0,0,0,0,0,0C50.5,522.7,51.1,522.7,51.6,522.7z M71.3,522.8c-0.5,0-1,0-1.5,0c-0.3,0-0.4-0.1-0.4-0.5l0-9.5
			c0-3.1,0-6.3,0-9.4c0-0.5,0-0.5,0.5-0.5c0.6,0,1.3,0,1.9,0h0.9c0.4,0,0.5,0.1,0.5,0.5v19c0,0.4-0.1,0.4-0.4,0.4
			C72.3,522.8,71.8,522.8,71.3,522.8z M69.9,502.9c-0.4,0-0.5,0-0.5,0.5c0,3.1,0,6.3,0,9.4l0,9.5c0,0.4,0,0.4,0.3,0.4c1,0,2,0,3,0
			c0.3,0,0.4-0.1,0.4-0.4v-19c0-0.4,0-0.4-0.4-0.4h-0.9C71.1,502.9,70.5,502.9,69.9,502.9z"/>
	</g>
	<g>
		<path class="st2" d="M71.2,498.3c0,0.4,0,0.9,0,1.3c0,0.3-0.1,0.4-0.4,0.4c-0.1,0-0.1,0-0.2,0c-0.2,0-0.3-0.1-0.3-0.3
			c0-0.4,0-0.8,0-1.2c0-0.1,0-0.3-0.1-0.3c-0.1,0-0.2,0-0.3,0.1c-1.4,1.1-2.9,2.1-4.3,3.2c-3.9,2.9-7.9,5.8-11.8,8.7
			c-0.7,0.5-1.5,1.1-2.2,1.6c-0.2,0.1-0.3,0.1-0.4-0.1c-0.4-0.5-0.4-0.5,0.1-0.9c2.3-1.7,4.5-3.4,6.8-5c2.9-2.2,5.8-4.3,8.8-6.5
			c0.8-0.6,1.7-1.2,2.5-1.9c0.1-0.1,0.2-0.2,0.2-0.2c0-0.1-0.1-0.2-0.2-0.2c-0.4-0.2-0.8-0.3-1.2-0.4c0,0-0.1,0-0.1,0
			c-0.2-0.1-0.2-0.5,0.1-0.9c0-0.1,0.2,0,0.3,0c0.5,0.2,1,0.3,1.4,0.5c0.4,0.1,0.8,0.3,1.2,0.4c0.1,0,0.2,0.2,0.2,0.3
			C71.2,497.4,71.2,497.9,71.2,498.3z"/>
		<path class="st2" d="M51.4,511.9C51.4,511.9,51.4,511.9,51.4,511.9c-0.1,0-0.2-0.1-0.2-0.2c-0.4-0.5-0.4-0.6,0.1-0.9
			c2.2-1.6,4.4-3.2,6.5-4.8l0.3-0.2c2.9-2.2,5.8-4.3,8.8-6.5c0.3-0.2,0.6-0.4,0.8-0.6c0.6-0.4,1.1-0.8,1.7-1.2
			c0.1-0.1,0.2-0.2,0.2-0.2c0-0.1-0.1-0.2-0.2-0.2c-0.3-0.1-0.6-0.2-0.9-0.3c-0.1,0-0.2-0.1-0.3-0.1c0,0,0,0,0,0c0,0,0,0-0.1,0
			c-0.1,0-0.1-0.1-0.1-0.2c-0.1-0.2,0-0.5,0.2-0.8c0-0.1,0.3-0.1,0.3,0c0.3,0.1,0.6,0.2,0.9,0.3c0.2,0.1,0.3,0.1,0.5,0.2
			c0.1,0,0.3,0.1,0.4,0.1c0.3,0.1,0.5,0.2,0.8,0.3c0.1,0,0.2,0.2,0.2,0.4c0,0.3,0,0.7,0,1c0,0.1,0,0.2,0,0.4c0,0.1,0,0.3,0,0.4
			c0,0.3,0,0.6,0,0.9c0,0.2,0,0.3-0.1,0.3c-0.1,0.1-0.2,0.1-0.3,0.1c-0.1,0-0.1,0-0.2,0c0,0,0,0-0.1,0c-0.1,0-0.2,0-0.2-0.1
			c-0.1-0.1-0.1-0.1-0.1-0.3c0-0.4,0-0.8,0-1.2c0-0.1,0-0.2-0.1-0.2c0,0,0,0,0,0c-0.1,0-0.2,0-0.2,0.1c-0.8,0.6-1.6,1.2-2.4,1.8
			c-0.6,0.5-1.3,1-1.9,1.4c-2.3,1.7-4.5,3.3-6.8,5c-1.7,1.2-3.4,2.5-5.1,3.7l-0.2,0.2c-0.6,0.5-1.3,1-2,1.5
			C51.5,511.9,51.5,511.9,51.4,511.9z M68.2,495.7c-0.1,0-0.1,0-0.1,0c-0.2,0.3-0.2,0.5-0.2,0.7c0,0.1,0,0.1,0.1,0.1c0,0,0,0,0.1,0
			c0,0,0,0,0.1,0c0.1,0,0.2,0.1,0.3,0.1c0.3,0.1,0.6,0.2,0.9,0.3c0.1,0,0.2,0.1,0.2,0.2c0,0.1-0.2,0.2-0.2,0.2
			c-0.6,0.4-1.1,0.8-1.7,1.2c-0.3,0.2-0.6,0.4-0.8,0.6c-2.9,2.2-5.8,4.3-8.8,6.5l-0.3,0.2c-2.1,1.6-4.3,3.2-6.5,4.8
			c-0.5,0.4-0.5,0.4-0.1,0.9c0.1,0.1,0.1,0.1,0.2,0.1c0,0,0,0,0,0c0,0,0.1,0,0.2-0.1c0.7-0.5,1.3-1,2-1.5l0.2-0.2
			c1.7-1.2,3.4-2.5,5.1-3.7c2.3-1.7,4.5-3.3,6.8-5c0.6-0.5,1.3-1,1.9-1.4c0.8-0.6,1.6-1.2,2.4-1.8c0.1-0.1,0.2-0.1,0.3-0.1
			c0.1,0,0.1,0.3,0.1,0.3c0,0.4,0,0.8,0,1.2c0,0.1,0,0.2,0.1,0.2c0,0,0.1,0.1,0.2,0.1c0,0,0,0,0.1,0c0.1,0,0.1,0,0.2,0
			c0.1,0,0.2,0,0.3,0c0.1-0.1,0.1-0.1,0.1-0.3c0-0.3,0-0.6,0-0.9c0-0.1,0-0.3,0-0.4c0-0.1,0-0.2,0-0.4c0-0.3,0-0.7,0-1
			c0-0.1-0.1-0.3-0.2-0.3c-0.3-0.1-0.5-0.2-0.8-0.3c-0.1,0-0.3-0.1-0.4-0.1c-0.2-0.1-0.3-0.1-0.5-0.2c-0.3-0.1-0.6-0.2-0.9-0.3
			C68.4,495.8,68.3,495.7,68.2,495.7z"/>
	</g>
</g>
<g>
	<g>
		<defs>
			<rect id="SVGID_1_" x="18" y="21.1" width="88" height="22.6"/>
		</defs>
		<clipPath id="SVGID_2_">
			<use xlink:href="#SVGID_1_"  style="overflow:visible;"/>
		</clipPath>
		<path class="st3" d="M95.7,34.9l2.6,2.9c0.2,0,0.4,0,0.6,0c0.2,0,0.4,0,0.6,0l-2-2.1l-4.4-4.8c0.6-0.6,1-1,1.4-1.4l4.3-4.1
			c-0.2,0-0.4,0-0.6,0c-0.2,0-0.4,0-0.6,0c-0.3,0.3-0.5,0.6-0.7,0.8c-0.2,0.2-0.3,0.3-0.5,0.5l-1,1L92,30.9L95.7,34.9z M91.3,37.8
			c0.1,0,0.3,0,0.5,0l0-2.7l0.4-11.6l0.1-2.4c-0.2,0-0.4,0-0.5,0c-0.1,0-0.3,0-0.5,0c0,1.2,0,2.8-0.1,4.9l-0.2,6.2
			c-0.1,2-0.2,3.9-0.3,5.6C91,37.8,91.2,37.8,91.3,37.8 M76.9,37.8c0.1,0,0.3,0,0.5,0c0-1.1,0-2.4,0.1-3.9c0.1-1.6,0.1-2.7,0.2-3.4
			c0.1-0.8,0.3-1.4,0.5-1.8c0.3-0.6,0.6-1.1,1-1.5c0.4-0.4,0.9-0.7,1.5-0.9c0.6-0.2,1.3-0.3,2.1-0.3c0.6,0,1.1,0.1,1.6,0.2
			c0.5,0.1,1,0.3,1.3,0.6c0.4,0.3,0.6,0.6,0.8,1.1c0.2,0.4,0.2,0.9,0.2,1.4c0,0.5,0,1.3-0.1,2.5l-0.2,3.1c0,0.9-0.1,1.9-0.2,2.9
			c0.2,0,0.3,0,0.5,0c0.2,0,0.3,0,0.5,0l0-2l0.3-5.6c0-0.5,0-0.9,0-1.1c0-0.6-0.1-1.1-0.2-1.6c-0.2-0.5-0.5-0.9-0.9-1.3
			c-0.4-0.4-1-0.6-1.6-0.8c-0.6-0.2-1.3-0.2-2-0.2c-0.4,0-0.8,0-1.2,0.1c-0.4,0.1-0.8,0.2-1.2,0.3c-0.4,0.1-0.7,0.3-1,0.5
			c-0.3,0.2-0.5,0.4-0.7,0.6c-0.2,0.2-0.4,0.4-0.5,0.6c-0.1,0.2-0.3,0.5-0.4,0.9l0.2-2.8c-0.2,0-0.4,0-0.5,0c-0.1,0-0.3,0-0.5,0
			c0,0.3,0,0.7,0,1.4l-0.1,3.5l-0.4,7.5C76.6,37.8,76.8,37.8,76.9,37.8 M66.1,26.3c0.4-0.1,0.8-0.2,1.3-0.3c0.5-0.1,1.1-0.1,1.7-0.1
			c0.5,0,1,0,1.5,0.1c0.5,0.1,0.9,0.2,1.2,0.5c0.3,0.2,0.5,0.5,0.7,0.7c0.1,0.3,0.2,0.5,0.2,0.8c0,0.4-0.1,0.8-0.4,1.1
			c-0.3,0.4-0.6,0.7-1.1,0.9c-0.5,0.2-1,0.4-1.5,0.5c-1.2,0.3-1.8,0.5-2,0.5c-0.6,0.2-1.2,0.4-1.7,0.6c-0.5,0.2-0.9,0.4-1.3,0.7
			c-0.3,0.2-0.6,0.4-0.8,0.7c-0.2,0.3-0.4,0.6-0.5,0.9c-0.1,0.3-0.2,0.7-0.2,1c0,0.4,0.1,0.9,0.3,1.3c0.2,0.4,0.5,0.8,0.9,1.1
			c0.4,0.3,0.9,0.5,1.5,0.6c0.6,0.1,1.2,0.2,1.9,0.2c0.4,0,0.8,0,1.2-0.1c0.4,0,0.9-0.1,1.6-0.3c0-0.3,0.1-0.6,0.2-0.9
			c-0.5,0.2-0.9,0.3-1.2,0.3c-0.3,0.1-0.6,0.1-0.9,0.1c-0.3,0-0.6,0.1-1,0.1c-0.7,0-1.3-0.1-1.8-0.2c-0.5-0.2-0.9-0.4-1.2-0.8
			c-0.3-0.4-0.5-0.8-0.5-1.4c0-0.3,0.1-0.7,0.2-1c0.1-0.3,0.3-0.5,0.5-0.7c0.3-0.3,0.6-0.5,1-0.7c0.4-0.2,0.9-0.4,1.6-0.6
			c0.3-0.1,0.8-0.2,1.5-0.4c0.7-0.2,1.2-0.3,1.4-0.4c0.2-0.1,0.4-0.1,0.6-0.2c0.2-0.1,0.4-0.2,0.6-0.3c0.2-0.1,0.3-0.2,0.4-0.3
			c0.1-0.1,0.3-0.3,0.6-0.5c0,0.8-0.1,1.6-0.1,2.5c0,0.9-0.1,1.7-0.1,2.5c0,0.8-0.1,1.8-0.2,3c0.2,0,0.4,0,0.5,0c0.1,0,0.3,0,0.5,0
			v-1c0-0.5,0-1.2,0.1-2.3c0-1.1,0.1-2,0.1-2.7c0-0.7,0.1-1.4,0.1-2c0-0.6,0-1.1,0-1.5c0-0.4-0.1-0.8-0.2-1.2
			c-0.1-0.4-0.4-0.7-0.8-1c-0.4-0.3-0.9-0.5-1.5-0.6c-0.6-0.1-1.3-0.2-2-0.2c-0.6,0-1.2,0-1.9,0.1c-0.6,0.1-1.3,0.2-2.2,0.5
			c0,0.4-0.1,0.7-0.1,1C65.2,26.5,65.7,26.4,66.1,26.3 M53.6,26c0.7-0.1,1.3-0.2,1.9-0.2c1,0,1.8,0.2,2.6,0.5
			c0.7,0.4,1.3,0.9,1.7,1.7c0.4,0.8,0.7,1.8,0.7,2.9c0,0.8-0.1,1.6-0.3,2.4c-0.2,0.8-0.5,1.5-1,2.1c-0.4,0.6-1,1-1.6,1.3
			c-0.6,0.3-1.3,0.4-2.1,0.4c-0.7,0-1.4-0.1-2-0.4c-0.6-0.3-1.1-0.7-1.5-1.2c-0.4-0.5-0.6-1.1-0.8-1.8c-0.1-0.7-0.2-1.4-0.2-2.3
			c0-0.7,0-1.2,0-1.7c0-0.5,0.1-1.6,0.1-3.2C52.1,26.3,52.9,26.1,53.6,26 M50.4,37.8c0.1,0,0.3,0,0.5,0l0-3c0.1,0.4,0.3,0.8,0.4,1
			c0.1,0.3,0.3,0.5,0.6,0.8c0.2,0.3,0.5,0.5,0.9,0.7c0.4,0.2,0.8,0.4,1.2,0.5c0.5,0.1,1,0.2,1.5,0.2c0.9,0,1.7-0.2,2.4-0.5
			c0.7-0.3,1.4-0.8,1.9-1.5c0.5-0.7,0.9-1.4,1.1-2.3c0.2-0.9,0.4-1.7,0.4-2.6c0-0.8-0.1-1.6-0.3-2.3c-0.2-0.7-0.6-1.4-1.1-2
			c-0.5-0.6-1.1-1-1.9-1.3c-0.8-0.3-1.7-0.4-2.7-0.4c-0.6,0-1.2,0-1.8,0.1c-0.6,0.1-1.4,0.2-2.3,0.5l0.1-1.9c0-0.9,0.1-1.8,0.2-2.7
			c-0.2,0-0.4,0-0.5,0c-0.1,0-0.3,0-0.5,0l-0.1,5.4L50,36.6l-0.1,1.2C50.2,37.8,50.3,37.8,50.4,37.8"/>
		<path class="st4" d="M37.8,43.7c0.3,0,0.7,0,1-0.1c0.3-0.1,0.6-0.2,0.8-0.3c0.2-0.1,0.4-0.2,0.6-0.4c0.2-0.2,0.4-0.4,0.7-0.7
			c0.3-0.4,0.6-0.9,0.9-1.7l2.3-5l2.4-5.1c1.1-2.3,1.8-3.9,2.2-4.8c-0.2,0-0.4,0-0.6,0c-0.1,0-0.3,0-0.6,0c-0.2,0.6-0.4,1-0.5,1.4
			c-0.1,0.3-0.4,0.9-0.7,1.7l-3.9,8.6l-2.8-7.9c-0.3-0.8-0.5-1.4-0.6-1.9c-0.1-0.3-0.2-0.7-0.3-1l-0.2-0.9c-0.2,0-0.4,0-0.6,0
			c-0.2,0-0.3,0-0.6,0l1.9,5.2l2.7,7.5c-0.6,1.3-1,2.3-1.5,3c-0.4,0.7-0.8,1.2-1.2,1.4C38.9,42.8,38.5,43,38,43
			c-0.2,0-0.4,0-0.6-0.1c-0.2,0-0.4-0.1-0.6-0.1c-0.2-0.1-0.4-0.1-0.6-0.3c0,0.4,0.1,0.7,0.1,1C36.8,43.6,37.3,43.7,37.8,43.7
			 M18.5,37.8c0.1,0,0.3,0,0.5,0c0-1.3,0-2.8,0.1-4.6c0.1-1.6,0.2-2.8,0.3-3.4c0.2-0.7,0.4-1.3,0.6-1.8c0.2-0.4,0.6-0.8,0.9-1.1
			c0.4-0.3,0.8-0.5,1.2-0.7c0.5-0.2,0.9-0.3,1.4-0.3c0.5,0,0.9,0.1,1.3,0.2c0.4,0.1,0.7,0.3,1,0.6c0.3,0.3,0.4,0.5,0.6,0.9
			c0.1,0.3,0.2,0.8,0.2,1.4c0,0.6,0,1.5-0.1,2.4l-0.1,3.1c0,1.1-0.1,2.2-0.2,3.3c0.2,0,0.4,0,0.5,0c0.1,0,0.3,0,0.5,0l0.1-4.9
			c0-1.6,0.1-2.7,0.3-3.3c0.1-0.7,0.3-1.3,0.6-1.7c0.2-0.4,0.5-0.8,0.9-1.1c0.4-0.3,0.8-0.5,1.2-0.7c0.4-0.2,0.9-0.2,1.5-0.2
			c0.4,0,0.7,0,1,0.1c0.3,0.1,0.6,0.2,0.8,0.3c0.2,0.1,0.4,0.3,0.6,0.5c0.2,0.2,0.3,0.4,0.4,0.6c0.1,0.2,0.1,0.4,0.2,0.6
			c0,0.2,0,0.5,0,0.7c0,0.5,0,1.2-0.1,2.1l-0.2,3.4c-0.1,1.4-0.1,2.6-0.2,3.6c0.2,0,0.4,0,0.5,0c0.1,0,0.3,0,0.5,0
			c0-1.2,0-2.5,0.1-4c0.1-1.5,0.1-2.6,0.2-3.5c0.1-0.8,0.1-1.4,0.1-1.8c0-0.7-0.2-1.3-0.5-1.8c-0.3-0.5-0.8-0.9-1.4-1.1
			c-0.6-0.2-1.2-0.3-1.9-0.3c-0.4,0-0.9,0.1-1.3,0.2c-0.4,0.1-0.8,0.3-1.1,0.4c-0.3,0.2-0.6,0.4-0.9,0.6c-0.2,0.2-0.4,0.5-0.6,0.7
			c-0.1,0.2-0.3,0.5-0.5,0.8c-0.1-0.4-0.2-0.7-0.3-0.9c-0.1-0.2-0.2-0.4-0.4-0.7c-0.2-0.2-0.4-0.4-0.7-0.6c-0.3-0.2-0.6-0.3-1-0.4
			c-0.4-0.1-0.8-0.2-1.3-0.2c-0.5,0-1,0.1-1.5,0.2c-0.5,0.1-0.9,0.4-1.3,0.6c-0.4,0.3-0.7,0.5-0.9,0.8c-0.2,0.3-0.5,0.7-0.7,1.2
			l0.1-2.6c-0.2,0-0.3,0-0.5,0c-0.2,0-0.3,0-0.5,0c0,0.4,0,0.9,0,1.5l-0.3,8.1c0,0.3,0,0.7-0.1,1L18,37.8
			C18.2,37.8,18.4,37.8,18.5,37.8"/>
	</g>
	<polygon class="st1" points="44.6,41.1 43.7,43.1 106,41.3 106,41.1 	"/>
</g>
<g>
	<g>
		<path class="st5" d="M22.8,155.1v-9.2h2.6c0.8,0,1.4,0.2,2,0.5s1.1,0.8,1.4,1.5c0.3,0.6,0.5,1.4,0.5,2.2v0.9
			c0,0.8-0.2,1.6-0.5,2.2c-0.3,0.6-0.8,1.1-1.4,1.5c-0.6,0.3-1.3,0.5-2.1,0.5H22.8z M23.6,146.5v7.9h1.8c1,0,1.8-0.3,2.3-1
			s0.9-1.5,0.9-2.6V150c0-1.1-0.3-1.9-0.9-2.6s-1.3-1-2.3-1H23.6z"/>
		<path class="st5" d="M36.2,152.5H32l-1,2.6h-0.8l3.5-9.2h0.7l3.5,9.2h-0.8L36.2,152.5z M32.2,151.8h3.7l-1.9-5L32.2,151.8z"/>
		<path class="st5" d="M44.6,152.8c0-0.5-0.2-0.9-0.5-1.2c-0.4-0.3-1-0.6-2-0.9s-1.7-0.6-2.1-0.9c-0.6-0.4-0.9-1-0.9-1.8
			c0-0.7,0.3-1.3,0.9-1.7c0.6-0.4,1.3-0.7,2.2-0.7c0.6,0,1.2,0.1,1.6,0.4c0.5,0.2,0.9,0.6,1.1,1s0.4,0.9,0.4,1.4h-0.8
			c0-0.6-0.2-1.1-0.6-1.5s-1-0.6-1.7-0.6c-0.7,0-1.3,0.2-1.7,0.5s-0.6,0.7-0.6,1.2c0,0.5,0.2,0.9,0.6,1.2s1,0.6,1.8,0.8
			s1.5,0.5,1.9,0.7s0.7,0.5,1,0.9c0.2,0.3,0.3,0.7,0.3,1.2c0,0.7-0.3,1.3-0.9,1.8c-0.6,0.4-1.3,0.7-2.3,0.7c-0.7,0-1.2-0.1-1.8-0.3
			c-0.5-0.2-1-0.6-1.2-1c-0.3-0.4-0.4-0.9-0.4-1.4h0.8c0,0.7,0.2,1.2,0.7,1.5c0.5,0.4,1.1,0.6,1.9,0.6c0.7,0,1.3-0.2,1.7-0.5
			C44.3,153.8,44.6,153.3,44.6,152.8z"/>
		<path class="st5" d="M53.9,155.1h-0.8v-4.4h-5.3v4.4H47v-9.2h0.8v4.2h5.3v-4.2h0.8V155.1z"/>
		<path class="st5" d="M56.2,155.1v-9.2H59c1,0,1.7,0.2,2.3,0.6c0.5,0.4,0.8,1,0.8,1.8c0,0.5-0.1,0.9-0.4,1.2
			c-0.3,0.4-0.6,0.6-1.1,0.8c0.5,0.1,1,0.4,1.3,0.8c0.3,0.4,0.5,0.9,0.5,1.4c0,0.8-0.3,1.5-0.8,1.9c-0.5,0.5-1.3,0.7-2.2,0.7H56.2z
			 M57,150h2.1c0.7,0,1.2-0.2,1.5-0.5c0.4-0.3,0.5-0.7,0.5-1.3c0-0.6-0.2-1-0.6-1.3c-0.4-0.3-0.9-0.4-1.7-0.4H57V150z M57,150.7v3.8
			h2.3c0.7,0,1.2-0.2,1.6-0.5c0.4-0.3,0.6-0.8,0.6-1.4c0-0.6-0.2-1-0.6-1.4c-0.4-0.3-0.9-0.5-1.6-0.5H57z"/>
		<path class="st5" d="M71,151c0,0.8-0.1,1.6-0.4,2.2s-0.7,1.1-1.3,1.5s-1.2,0.5-1.9,0.5c-1.1,0-2-0.4-2.6-1.2c-0.7-0.8-1-1.8-1-3.1
			v-1c0-0.8,0.1-1.6,0.4-2.2c0.3-0.6,0.7-1.1,1.3-1.5c0.5-0.3,1.2-0.5,1.9-0.5s1.3,0.2,1.9,0.5c0.5,0.3,1,0.8,1.3,1.5
			c0.3,0.6,0.5,1.4,0.5,2.2V151z M70.2,150c0-1.1-0.3-2-0.8-2.6c-0.5-0.6-1.2-0.9-2.1-0.9c-0.9,0-1.5,0.3-2.1,0.9s-0.8,1.5-0.8,2.7
			v1c0,1.1,0.3,2,0.8,2.6c0.5,0.6,1.2,1,2.1,1c0.9,0,1.6-0.3,2.1-0.9s0.7-1.5,0.7-2.6V150z"/>
		<path class="st5" d="M77.8,152.5h-4.2l-1,2.6h-0.8l3.5-9.2h0.7l3.5,9.2h-0.8L77.8,152.5z M73.9,151.8h3.7l-1.9-5L73.9,151.8z"/>
		<path class="st5" d="M84.4,151.2h-2.7v3.9H81v-9.2h3c1,0,1.8,0.2,2.3,0.7s0.8,1.1,0.8,2c0,0.6-0.2,1.1-0.5,1.6
			c-0.3,0.5-0.8,0.8-1.4,0.9l2.3,3.9v0.1h-0.8L84.4,151.2z M81.7,150.6h2.4c0.7,0,1.2-0.2,1.6-0.6c0.4-0.4,0.6-0.9,0.6-1.5
			c0-0.7-0.2-1.2-0.6-1.5c-0.4-0.4-1-0.5-1.7-0.5h-2.2V150.6z"/>
		<path class="st5" d="M89.2,155.1v-9.2h2.6c0.8,0,1.4,0.2,2,0.5s1.1,0.8,1.4,1.5c0.3,0.6,0.5,1.4,0.5,2.2v0.9
			c0,0.8-0.2,1.6-0.5,2.2c-0.3,0.6-0.8,1.1-1.4,1.5s-1.3,0.5-2.1,0.5H89.2z M90,146.5v7.9h1.8c1,0,1.8-0.3,2.3-1s0.9-1.5,0.9-2.6
			V150c0-1.1-0.3-1.9-0.9-2.6s-1.3-1-2.3-1H90z"/>
	</g>
</g>
<g>
	<g>
		<path class="st5" d="M29.2,285.3v3.8h-0.8v-9.2h3.1c1,0,1.7,0.2,2.3,0.7c0.6,0.5,0.8,1.2,0.8,2c0,0.9-0.3,1.5-0.8,2
			c-0.5,0.5-1.3,0.7-2.3,0.7H29.2z M29.2,284.7h2.4c0.8,0,1.3-0.2,1.7-0.5s0.6-0.9,0.6-1.5c0-0.6-0.2-1.1-0.6-1.5
			c-0.4-0.4-1-0.6-1.7-0.6h-2.4V284.7z"/>
		<path class="st5" d="M40.5,286.5h-4.2l-1,2.6h-0.8l3.5-9.2h0.7l3.5,9.2h-0.8L40.5,286.5z M36.6,285.8h3.7l-1.9-5L36.6,285.8z"/>
		<path class="st5" d="M45.8,284.9l2.8-5h0.9l-3.3,5.8v3.5h-0.8v-3.5l-3.3-5.8H43L45.8,284.9z"/>
		<path class="st5" d="M51.9,279.9l3.4,8.2l3.4-8.2h1v9.2H59v-4l0.1-4.1l-3.4,8.2H55l-3.4-8.1l0.1,4.1v4h-0.8v-9.2H51.9z"/>
		<path class="st5" d="M67.2,284.7h-4.3v3.8h5v0.7h-5.8v-9.2h5.7v0.7h-4.9v3.5h4.3V284.7z"/>
		<path class="st5" d="M76.4,289.1h-0.8l-5.3-7.9v7.9h-0.8v-9.2h0.8l5.3,7.9v-7.9h0.8V289.1z"/>
		<path class="st5" d="M84.8,280.5h-3.2v8.6h-0.8v-8.6h-3.2v-0.7h7.1V280.5z"/>
		<path class="st5" d="M91.4,286.8c0-0.5-0.2-0.9-0.5-1.2c-0.4-0.3-1-0.6-2-0.9s-1.7-0.6-2.1-0.9c-0.6-0.4-0.9-1-0.9-1.8
			c0-0.7,0.3-1.3,0.9-1.7s1.3-0.7,2.2-0.7c0.6,0,1.2,0.1,1.6,0.4s0.9,0.6,1.1,1s0.4,0.9,0.4,1.4h-0.8c0-0.6-0.2-1.1-0.6-1.5
			s-1-0.6-1.7-0.6c-0.7,0-1.3,0.2-1.7,0.5c-0.4,0.3-0.6,0.7-0.6,1.2c0,0.5,0.2,0.9,0.6,1.2c0.4,0.3,1,0.6,1.8,0.8s1.5,0.5,1.9,0.7
			c0.4,0.2,0.8,0.5,1,0.9c0.2,0.3,0.3,0.7,0.3,1.2c0,0.7-0.3,1.3-0.9,1.8s-1.3,0.7-2.3,0.7c-0.7,0-1.2-0.1-1.8-0.3
			c-0.5-0.2-1-0.6-1.2-1c-0.3-0.4-0.4-0.9-0.4-1.4h0.8c0,0.7,0.2,1.2,0.7,1.5c0.5,0.4,1.1,0.6,1.9,0.6c0.7,0,1.3-0.2,1.7-0.5
			C91.2,287.8,91.4,287.3,91.4,286.8z"/>
	</g>
</g>
<g>
	<g>
		<path class="st5" d="M35.4,411.5h-3.2v8.6h-0.8v-8.6h-3.2v-0.7h7.1V411.5z"/>
		<path class="st5" d="M40.4,416.2h-2.7v3.9h-0.8v-9.2h3c1,0,1.8,0.2,2.3,0.7s0.8,1.1,0.8,2c0,0.6-0.2,1.1-0.5,1.6s-0.8,0.8-1.4,0.9
			l2.3,3.9v0.1h-0.8L40.4,416.2z M37.7,415.6h2.4c0.7,0,1.2-0.2,1.6-0.6s0.6-0.9,0.6-1.5c0-0.7-0.2-1.2-0.6-1.5
			c-0.4-0.4-1-0.5-1.7-0.5h-2.2V415.6z"/>
		<path class="st5" d="M50.2,417.5H46l-1,2.6h-0.8l3.5-9.2h0.7l3.5,9.2h-0.8L50.2,417.5z M46.2,416.8h3.7l-1.9-5L46.2,416.8z"/>
		<path class="st5" d="M60.2,420.1h-0.8l-5.3-7.9v7.9h-0.8v-9.2h0.8l5.3,7.9v-7.9h0.8V420.1z"/>
		<path class="st5" d="M67.8,417.8c0-0.5-0.2-0.9-0.5-1.2c-0.4-0.3-1-0.6-2-0.9c-1-0.3-1.7-0.6-2.1-0.9c-0.6-0.4-0.9-1-0.9-1.8
			c0-0.7,0.3-1.3,0.9-1.7c0.6-0.4,1.3-0.7,2.2-0.7c0.6,0,1.2,0.1,1.6,0.4s0.9,0.6,1.1,1s0.4,0.9,0.4,1.4h-0.8c0-0.6-0.2-1.1-0.6-1.5
			s-1-0.6-1.7-0.6c-0.7,0-1.3,0.2-1.7,0.5s-0.6,0.7-0.6,1.2c0,0.5,0.2,0.9,0.6,1.2c0.4,0.3,1,0.6,1.8,0.8c0.8,0.2,1.5,0.5,1.9,0.7
			c0.4,0.2,0.7,0.5,1,0.9c0.2,0.3,0.3,0.7,0.3,1.2c0,0.7-0.3,1.3-0.9,1.8s-1.3,0.7-2.3,0.7c-0.7,0-1.3-0.1-1.8-0.3
			c-0.5-0.2-1-0.6-1.2-1c-0.3-0.4-0.4-0.9-0.4-1.4h0.8c0,0.7,0.2,1.2,0.7,1.5c0.5,0.4,1.1,0.6,1.9,0.6c0.7,0,1.3-0.2,1.7-0.5
			C67.5,418.8,67.8,418.3,67.8,417.8z"/>
		<path class="st5" d="M75.3,415.8H71v4.3h-0.8v-9.2h5.7v0.7H71v3.6h4.3V415.8z"/>
		<path class="st5" d="M82.6,415.7h-4.3v3.8h5v0.7h-5.8v-9.2h5.7v0.7h-4.9v3.5h4.3V415.7z"/>
		<path class="st5" d="M88.4,416.2h-2.7v3.9h-0.8v-9.2h3c1,0,1.8,0.2,2.3,0.7s0.8,1.1,0.8,2c0,0.6-0.2,1.1-0.5,1.6s-0.8,0.8-1.4,0.9
			l2.3,3.9v0.1h-0.8L88.4,416.2z M85.7,415.6h2.4c0.7,0,1.2-0.2,1.6-0.6s0.6-0.9,0.6-1.5c0-0.7-0.2-1.2-0.6-1.5
			c-0.4-0.4-1-0.5-1.7-0.5h-2.2V415.6z"/>
	</g>
</g>
<g>
	<g>
		<path class="st5" d="M26.2,546.8c0-0.5-0.2-0.9-0.5-1.2c-0.4-0.3-1-0.6-2-0.9s-1.7-0.6-2.1-0.9c-0.6-0.4-0.9-1-0.9-1.8
			c0-0.7,0.3-1.3,0.9-1.7c0.6-0.4,1.3-0.7,2.2-0.7c0.6,0,1.2,0.1,1.6,0.4c0.5,0.2,0.9,0.6,1.1,1s0.4,0.9,0.4,1.4h-0.8
			c0-0.6-0.2-1.1-0.6-1.5s-1-0.6-1.7-0.6c-0.7,0-1.3,0.2-1.7,0.5s-0.6,0.7-0.6,1.2c0,0.5,0.2,0.9,0.6,1.2s1,0.6,1.8,0.8
			s1.5,0.5,1.9,0.7s0.7,0.5,1,0.9c0.2,0.3,0.3,0.7,0.3,1.2c0,0.7-0.3,1.3-0.9,1.8c-0.6,0.4-1.3,0.7-2.3,0.7c-0.7,0-1.2-0.1-1.8-0.3
			c-0.5-0.2-1-0.6-1.2-1c-0.3-0.4-0.4-0.9-0.4-1.4h0.8c0,0.7,0.2,1.2,0.7,1.5c0.5,0.4,1.1,0.6,1.9,0.6c0.7,0,1.3-0.2,1.7-0.5
			C25.9,547.8,26.2,547.3,26.2,546.8z"/>
		<path class="st5" d="M34.9,540.5h-3.2v8.6H31v-8.6h-3.2v-0.7h7.1V540.5z"/>
		<path class="st5" d="M40.9,546.5h-4.2l-1,2.6h-0.8l3.5-9.2h0.7l3.5,9.2h-0.8L40.9,546.5z M36.9,545.8h3.7l-1.9-5L36.9,545.8z"/>
		<path class="st5" d="M49.5,540.5h-3.2v8.6h-0.8v-8.6h-3.2v-0.7h7.1V540.5z"/>
		<path class="st5" d="M56.1,544.7h-4.3v3.8h5v0.7H51v-9.2h5.7v0.7h-4.9v3.5h4.3V544.7z"/>
		<path class="st5" d="M59.4,539.9l3.4,8.2l3.4-8.2h1v9.2h-0.8v-4l0.1-4.1l-3.4,8.2h-0.6l-3.4-8.1l0.1,4.1v4h-0.8v-9.2H59.4z"/>
		<path class="st5" d="M74.7,544.7h-4.3v3.8h5v0.7h-5.8v-9.2h5.7v0.7h-4.9v3.5h4.3V544.7z"/>
		<path class="st5" d="M83.9,549.1h-0.8l-5.3-7.9v7.9H77v-9.2h0.8l5.3,7.9v-7.9h0.8V549.1z"/>
		<path class="st5" d="M92.3,540.5h-3.2v8.6h-0.8v-8.6h-3.2v-0.7h7.1V540.5z"/>
		<path class="st5" d="M98.9,546.8c0-0.5-0.2-0.9-0.5-1.2c-0.4-0.3-1-0.6-2-0.9s-1.7-0.6-2.1-0.9c-0.6-0.4-0.9-1-0.9-1.8
			c0-0.7,0.3-1.3,0.9-1.7s1.3-0.7,2.2-0.7c0.6,0,1.2,0.1,1.6,0.4s0.9,0.6,1.1,1s0.4,0.9,0.4,1.4h-0.8c0-0.6-0.2-1.1-0.6-1.5
			s-1-0.6-1.7-0.6c-0.7,0-1.3,0.2-1.7,0.5c-0.4,0.3-0.6,0.7-0.6,1.2c0,0.5,0.2,0.9,0.6,1.2c0.4,0.3,1,0.6,1.8,0.8s1.5,0.5,1.9,0.7
			c0.4,0.2,0.8,0.5,1,0.9c0.2,0.3,0.3,0.7,0.3,1.2c0,0.7-0.3,1.3-0.9,1.8s-1.3,0.7-2.3,0.7c-0.7,0-1.2-0.1-1.8-0.3
			c-0.5-0.2-1-0.6-1.2-1c-0.3-0.4-0.4-0.9-0.4-1.4h0.8c0,0.7,0.2,1.2,0.7,1.5c0.5,0.4,1.1,0.6,1.9,0.6c0.7,0,1.3-0.2,1.7-0.5
			C98.7,547.8,98.9,547.3,98.9,546.8z"/>
	</g>
</g>
<g>
	<g>
		<path class="st5" d="M33.6,679.1h-0.8v-9.2h0.8V679.1z"/>
		<path class="st5" d="M43,679.1h-0.8l-5.3-7.9v7.9h-0.8v-9.2h0.8l5.3,7.9v-7.9H43V679.1z"/>
		<path class="st5" d="M50.5,676.8c0-0.5-0.2-0.9-0.5-1.2c-0.4-0.3-1-0.6-2-0.9s-1.7-0.6-2.1-0.9c-0.6-0.4-0.9-1-0.9-1.8
			c0-0.7,0.3-1.3,0.9-1.7c0.6-0.4,1.3-0.7,2.2-0.7c0.6,0,1.2,0.1,1.6,0.4c0.5,0.2,0.9,0.6,1.1,1s0.4,0.9,0.4,1.4h-0.8
			c0-0.6-0.2-1.1-0.6-1.5s-1-0.6-1.7-0.6c-0.7,0-1.3,0.2-1.7,0.5s-0.6,0.7-0.6,1.2c0,0.5,0.2,0.9,0.6,1.2s1,0.6,1.8,0.8
			s1.5,0.5,1.9,0.7s0.7,0.5,1,0.9c0.2,0.3,0.3,0.7,0.3,1.2c0,0.7-0.3,1.3-0.9,1.8c-0.6,0.4-1.3,0.7-2.3,0.7c-0.7,0-1.2-0.1-1.8-0.3
			c-0.5-0.2-1-0.6-1.2-1c-0.3-0.4-0.4-0.9-0.4-1.4h0.8c0,0.7,0.2,1.2,0.7,1.5c0.5,0.4,1.1,0.6,1.9,0.6c0.7,0,1.3-0.2,1.7-0.5
			C50.3,677.8,50.5,677.3,50.5,676.8z"/>
		<path class="st5" d="M54,679.1h-0.8v-9.2H54V679.1z"/>
		<path class="st5" d="M63.1,678c-0.3,0.4-0.7,0.7-1.3,0.9c-0.6,0.2-1.2,0.3-1.9,0.3c-0.7,0-1.4-0.2-1.9-0.5s-1-0.8-1.3-1.5
			s-0.5-1.4-0.5-2.2v-1.2c0-1.3,0.3-2.3,1-3c0.6-0.7,1.5-1.1,2.6-1.1c1,0,1.7,0.2,2.3,0.7c0.6,0.5,0.9,1.2,1,2h-0.8
			c-0.1-0.7-0.4-1.2-0.8-1.5c-0.4-0.4-1-0.5-1.7-0.5c-0.9,0-1.5,0.3-2.1,0.9s-0.8,1.5-0.8,2.6v1.1c0,0.7,0.1,1.3,0.4,1.9
			c0.2,0.5,0.6,1,1,1.3c0.4,0.3,1,0.4,1.5,0.4c0.7,0,1.3-0.1,1.7-0.3c0.3-0.1,0.5-0.3,0.7-0.5v-2.4h-2.5v-0.7h3.3V678z"/>
		<path class="st5" d="M72.2,679.1h-0.8v-4.4h-5.3v4.4h-0.8v-9.2h0.8v4.2h5.3v-4.2h0.8V679.1z"/>
		<path class="st5" d="M80.6,670.5h-3.2v8.6h-0.8v-8.6h-3.2v-0.7h7.1V670.5z"/>
		<path class="st5" d="M87.3,676.8c0-0.5-0.2-0.9-0.5-1.2c-0.4-0.3-1-0.6-2-0.9c-1-0.3-1.7-0.6-2.1-0.9c-0.6-0.4-0.9-1-0.9-1.8
			c0-0.7,0.3-1.3,0.9-1.7c0.6-0.4,1.3-0.7,2.2-0.7c0.6,0,1.2,0.1,1.6,0.4s0.9,0.6,1.1,1s0.4,0.9,0.4,1.4h-0.8c0-0.6-0.2-1.1-0.6-1.5
			s-1-0.6-1.7-0.6c-0.7,0-1.3,0.2-1.7,0.5s-0.6,0.7-0.6,1.2c0,0.5,0.2,0.9,0.6,1.2c0.4,0.3,1,0.6,1.8,0.8c0.8,0.2,1.5,0.5,1.9,0.7
			c0.4,0.2,0.7,0.5,1,0.9c0.2,0.3,0.3,0.7,0.3,1.2c0,0.7-0.3,1.3-0.9,1.8s-1.3,0.7-2.3,0.7c-0.7,0-1.3-0.1-1.8-0.3
			c-0.5-0.2-1-0.6-1.2-1c-0.3-0.4-0.4-0.9-0.4-1.4h0.8c0,0.7,0.2,1.2,0.7,1.5c0.5,0.4,1.1,0.6,1.9,0.6c0.7,0,1.3-0.2,1.7-0.5
			C87,677.8,87.3,677.3,87.3,676.8z"/>
	</g>
</g>
<g>
	<g>
		<path class="st5" d="M45.1,804.5h-4.2l-1,2.6h-0.8l3.5-9.2h0.7l3.5,9.2H46L45.1,804.5z M41.1,803.8h3.7l-1.9-5L41.1,803.8z"/>
		<path class="st5" d="M53.4,804.8c0-0.5-0.2-0.9-0.5-1.2c-0.4-0.3-1-0.6-2-0.9s-1.7-0.6-2.1-0.9c-0.6-0.4-0.9-1-0.9-1.8
			c0-0.7,0.3-1.3,0.9-1.7c0.6-0.4,1.3-0.7,2.2-0.7c0.6,0,1.2,0.1,1.6,0.4c0.5,0.2,0.9,0.6,1.1,1s0.4,0.9,0.4,1.4h-0.8
			c0-0.6-0.2-1.1-0.6-1.5s-1-0.6-1.7-0.6c-0.7,0-1.3,0.2-1.7,0.5s-0.6,0.7-0.6,1.2c0,0.5,0.2,0.9,0.6,1.2s1,0.6,1.8,0.8
			s1.5,0.5,1.9,0.7s0.7,0.5,1,0.9c0.2,0.3,0.3,0.7,0.3,1.2c0,0.7-0.3,1.3-0.9,1.8c-0.6,0.4-1.3,0.7-2.3,0.7c-0.7,0-1.2-0.1-1.8-0.3
			c-0.5-0.2-1-0.6-1.2-1c-0.3-0.4-0.4-0.9-0.4-1.4h0.8c0,0.7,0.2,1.2,0.7,1.5c0.5,0.4,1.1,0.6,1.9,0.6c0.7,0,1.3-0.2,1.7-0.5
			C53.2,805.8,53.4,805.3,53.4,804.8z"/>
		<path class="st5" d="M61.1,804.8c0-0.5-0.2-0.9-0.5-1.2c-0.4-0.3-1-0.6-2-0.9s-1.7-0.6-2.1-0.9c-0.6-0.4-0.9-1-0.9-1.8
			c0-0.7,0.3-1.3,0.9-1.7c0.6-0.4,1.3-0.7,2.2-0.7c0.6,0,1.2,0.1,1.6,0.4c0.5,0.2,0.9,0.6,1.1,1s0.4,0.9,0.4,1.4h-0.8
			c0-0.6-0.2-1.1-0.6-1.5s-1-0.6-1.7-0.6c-0.7,0-1.3,0.2-1.7,0.5s-0.6,0.7-0.6,1.2c0,0.5,0.2,0.9,0.6,1.2s1,0.6,1.8,0.8
			s1.5,0.5,1.9,0.7c0.4,0.2,0.7,0.5,1,0.9c0.2,0.3,0.3,0.7,0.3,1.2c0,0.7-0.3,1.3-0.9,1.8s-1.3,0.7-2.3,0.7c-0.7,0-1.2-0.1-1.8-0.3
			c-0.5-0.2-1-0.6-1.2-1c-0.3-0.4-0.4-0.9-0.4-1.4h0.8c0,0.7,0.2,1.2,0.7,1.5c0.5,0.4,1.1,0.6,1.9,0.6c0.7,0,1.3-0.2,1.7-0.5
			C60.9,805.8,61.1,805.3,61.1,804.8z"/>
		<path class="st5" d="M64.5,807.1h-0.8v-9.2h0.8V807.1z"/>
		<path class="st5" d="M72.3,804.8c0-0.5-0.2-0.9-0.5-1.2c-0.4-0.3-1-0.6-2-0.9c-1-0.3-1.7-0.6-2.1-0.9c-0.6-0.4-0.9-1-0.9-1.8
			c0-0.7,0.3-1.3,0.9-1.7c0.6-0.4,1.3-0.7,2.2-0.7c0.6,0,1.2,0.1,1.6,0.4s0.9,0.6,1.1,1s0.4,0.9,0.4,1.4h-0.8c0-0.6-0.2-1.1-0.6-1.5
			s-1-0.6-1.7-0.6c-0.7,0-1.3,0.2-1.7,0.5s-0.6,0.7-0.6,1.2c0,0.5,0.2,0.9,0.6,1.2c0.4,0.3,1,0.6,1.8,0.8c0.8,0.2,1.5,0.5,1.9,0.7
			c0.4,0.2,0.7,0.5,1,0.9c0.2,0.3,0.3,0.7,0.3,1.2c0,0.7-0.3,1.3-0.9,1.8s-1.3,0.7-2.3,0.7c-0.7,0-1.3-0.1-1.8-0.3
			c-0.5-0.2-1-0.6-1.2-1c-0.3-0.4-0.4-0.9-0.4-1.4h0.8c0,0.7,0.2,1.2,0.7,1.5c0.5,0.4,1.1,0.6,1.9,0.6c0.7,0,1.3-0.2,1.7-0.5
			C72.1,805.8,72.3,805.3,72.3,804.8z"/>
		<path class="st5" d="M81,798.5h-3.2v8.6h-0.8v-8.6h-3.2v-0.7H81V798.5z"/>
	</g>
</g>
<g>
	<g>
		<path class="st2" d="M54.2,650.9c0-0.8,0-1.7,0-2.5c0-0.2-0.1-0.3-0.2-0.4c-2.7-1.5-4.7-3.6-5.9-6.5c-0.8-1.9-1.1-3.9-0.9-5.9
			c0.6-4.9,3.3-8.3,7.7-10.3c1.9-0.9,3.9-1.3,6-1.1c5.3,0.4,9.2,2.8,11.5,7.6c0.9,2,1.3,4.1,1,6.2c-0.5,4.6-2.9,7.9-6.9,10.1
			c-0.2,0.1-0.3,0.2-0.3,0.5c0,1.6,0,3.2,0,4.8c0,0.9-0.3,1.6-1,2.2c-0.4,0.3-0.8,0.5-1.3,0.6c-0.3,0-0.3,0.2-0.3,0.4
			c0,0.7-0.3,1.3-0.9,1.6c-0.3,0.1-0.6,0.2-0.9,0.2c-0.9,0-1.9,0-2.8,0c-1.1,0-1.8-0.7-1.8-1.8c0-0.2-0.1-0.3-0.3-0.4
			c-1.3-0.2-2.1-0.9-2.5-2.2c-0.1-0.3-0.1-0.5-0.1-0.8C54.2,652.4,54.2,651.6,54.2,650.9z M61.1,647.6c0,0.7,0,1.4,0,2
			c0,0.2,0.1,0.3,0.3,0.3c1,0,2,0,2.9,0c0.2,0,0.3-0.1,0.3-0.3c0-0.6,0-1.2,0-1.7c0-0.5,0.1-0.7,0.6-0.8c4-1.9,6.3-5,6.7-9.4
			c0.2-2.4-0.4-4.6-1.6-6.5c-1.9-2.9-4.5-4.6-7.9-5.2c-1.4-0.3-2.9-0.2-4.3,0c-1.6,0.3-3.1,1-4.5,1.9c-3.6,2.5-5.5,6.9-4.6,11.2
			c0.4,2.1,1.4,3.9,2.9,5.5c1,1.1,2.3,1.9,3.6,2.5c0.2,0.1,0.3,0.2,0.3,0.5c0,0.7,0,1.4,0,2.1c0,0.2,0.1,0.3,0.3,0.3
			c1,0,2.1,0,3.1,0c0.2,0,0.3-0.1,0.3-0.3c0-1.3,0-2.6,0-4c0-0.2-0.1-0.3-0.2-0.4c-0.9-0.8-1.7-1.7-2.6-2.5c-0.4-0.3-0.7-0.7-1.1-1
			c-0.2-0.2-0.3-0.5-0.2-0.8c0.1-0.3,0.4-0.5,0.8-0.5c0.3,0,0.5,0.2,0.7,0.3c1,1,2.1,2,3.1,3.1c0.2,0.1,0.2,0.1,0.4,0
			c0.8-0.8,1.7-1.7,2.5-2.5c0.3-0.2,0.5-0.5,0.8-0.7c0.5-0.4,1.1-0.2,1.3,0.4c0.1,0.4,0,0.6-0.3,0.9c-1.2,1.1-2.3,2.3-3.5,3.4
			c-0.1,0.1-0.2,0.3-0.2,0.5C61.1,646.3,61.1,646.9,61.1,647.6z M60.2,651.4c-1.4,0-2.8,0-4.1,0c-0.2,0-0.3,0-0.3,0.3
			c0,0.6,0,1.1,0,1.7c0,0.8,0.5,1.3,1.3,1.3c0.4,0,0.9,0,1.3,0c0.2,0,0.3,0.1,0.3,0.3c0,0.5,0,1.1,0,1.6c0,0.2,0.1,0.3,0.3,0.3
			c0.9,0,1.7,0,2.6,0c0.2,0,0.3-0.1,0.3-0.3c0-0.5,0-1,0-1.5c0-0.2,0.1-0.3,0.3-0.3c0.3,0,0.7,0,1,0c0.8,0,1.3-0.5,1.4-1.4
			c0-0.5,0-1,0-1.6c0-0.2-0.1-0.3-0.3-0.3C62.9,651.4,61.5,651.4,60.2,651.4z"/>
		<path d="M60.3,658.4c-0.4,0-0.9,0-1.3,0l-0.2,0c-1.1,0-1.9-0.8-1.9-1.9c0-0.2,0-0.2-0.2-0.3c-1.3-0.2-2.2-0.9-2.6-2.3
			c-0.1-0.3-0.1-0.6-0.1-0.8c0-0.5,0-1.1,0-1.6l0-0.7l0-0.7c0-0.6,0-1.2,0-1.8c0-0.1,0-0.2-0.2-0.3c-2.8-1.5-4.8-3.7-6-6.5
			c-0.8-2-1.1-4-0.9-6c0.6-4.8,3.2-8.3,7.7-10.4c1.9-0.9,4-1.3,6-1.1c5.4,0.4,9.3,3,11.6,7.7c0.9,2,1.3,4.1,1,6.3
			c-0.5,4.5-2.9,7.9-7,10.1c-0.2,0.1-0.2,0.2-0.2,0.4c0,1.4,0,3.1,0,4.8c0,1-0.4,1.7-1.1,2.3c-0.4,0.3-0.9,0.5-1.3,0.6
			c-0.2,0-0.3,0.1-0.3,0.3c0,0.8-0.3,1.3-1,1.6c-0.3,0.1-0.6,0.2-0.9,0.2C61.2,658.4,60.8,658.4,60.3,658.4z M54.3,650.9l0,0.7
			c0,0.5,0,1.1,0,1.6c0,0.3,0,0.5,0.1,0.8c0.3,1.2,1.1,2,2.4,2.1c0.3,0,0.4,0.2,0.4,0.5c0,1,0.7,1.7,1.7,1.7l0.2,0
			c0.9,0,1.8,0,2.6,0c0.3,0,0.6-0.1,0.9-0.2c0.6-0.3,0.8-0.8,0.8-1.5c0-0.3,0.1-0.5,0.4-0.5c0.4-0.1,0.8-0.3,1.2-0.5
			c0.7-0.5,1-1.2,1-2.1c0-1.7,0-3.4,0-4.8c0-0.3,0.1-0.4,0.3-0.6c4.1-2.2,6.4-5.6,6.9-10c0.2-2.2-0.1-4.2-1-6.2
			c-2.3-4.7-6.1-7.2-11.4-7.6c-2.1-0.1-4.1,0.2-5.9,1.1c-4.5,2.1-7,5.5-7.6,10.2c-0.2,2,0,3.9,0.9,5.9c1.2,2.8,3.1,5,5.9,6.4
			c0.2,0.1,0.3,0.2,0.3,0.5c0,0.6,0,1.2,0,1.8L54.3,650.9z M58.9,656.9c-0.1,0-0.2,0-0.3-0.1c-0.1-0.1-0.1-0.2-0.1-0.3
			c0-0.2,0-0.5,0-0.7c0-0.3,0-0.6,0-0.9c0-0.1,0-0.1,0-0.1c0,0,0,0-0.1,0c-0.5,0-0.9,0-1.3,0c-0.9,0-1.4-0.5-1.4-1.4
			c0-0.3,0-0.6,0-0.9c0-0.3,0-0.5,0-0.8c0-0.1,0-0.2,0.1-0.3s0.2-0.1,0.3-0.1c1.1,0,2.1,0,3.2,0h2c1,0,2,0,3,0c0.1,0,0.2,0,0.3,0.1
			s0.1,0.2,0.1,0.3c0,0.3,0,0.6,0,0.9c0,0.2,0,0.5,0,0.7c0,0.9-0.5,1.4-1.5,1.5l0,0c-0.3,0-0.6,0-1,0c-0.1,0-0.1,0-0.2,0
			c0,0,0,0.1,0,0.2c0,0.3,0,0.5,0,0.8c0,0.2,0,0.5,0,0.7c0,0.1,0,0.3-0.1,0.3c-0.1,0.1-0.2,0.1-0.3,0.1
			C60.7,656.9,59.8,656.9,58.9,656.9C58.9,656.9,58.9,656.9,58.9,656.9z M58.4,654.5c0.1,0,0.2,0,0.2,0.1c0.1,0.1,0.1,0.2,0.1,0.3
			c0,0.3,0,0.6,0,0.9c0,0.2,0,0.5,0,0.7c0,0.1,0,0.1,0,0.2c0,0,0.1,0,0.2,0c0,0,0,0,0,0c0.9,0,1.7,0,2.6,0c0.1,0,0.1,0,0.2,0
			c0,0,0-0.1,0-0.2c0-0.2,0-0.5,0-0.7c0-0.3,0-0.5,0-0.8c0-0.1,0-0.3,0.1-0.3c0.1-0.1,0.2-0.1,0.3-0.1c0.3,0,0.6,0,1,0h0
			c0.8,0,1.2-0.5,1.3-1.3c0-0.2,0-0.5,0-0.7c0-0.3,0-0.6,0-0.9c0-0.1,0-0.1,0-0.2c0,0-0.1,0-0.2,0c-1,0-2,0-3,0l-1,0l-1,0
			c-1.1,0-2.1,0-3.2,0c0,0,0,0,0,0c-0.1,0-0.1,0-0.1,0c0,0,0,0.1,0,0.1c0,0.3,0,0.5,0,0.8c0,0.3,0,0.6,0,0.8c0,0.8,0.5,1.2,1.2,1.2
			C57.5,654.5,57.9,654.5,58.4,654.5C58.4,654.5,58.4,654.5,58.4,654.5z M56,649.9c-0.1,0-0.2,0-0.3-0.1c-0.1-0.1-0.1-0.2-0.1-0.3
			c0-0.3,0-0.6,0-0.9c0-0.4,0-0.8,0-1.2c0-0.2-0.1-0.3-0.2-0.4c-1.4-0.6-2.6-1.5-3.7-2.5c-1.5-1.6-2.5-3.4-2.9-5.5
			c-0.9-4.3,0.9-8.7,4.6-11.3c1.4-1,2.9-1.6,4.5-1.9c1.5-0.3,2.9-0.3,4.3,0c3.4,0.6,6.1,2.4,7.9,5.2c1.3,2,1.9,4.3,1.7,6.6
			c-0.4,4.3-2.7,7.5-6.8,9.5c-0.4,0.2-0.5,0.3-0.5,0.7c0,0.4,0,0.7,0,1.1c0,0.2,0,0.4,0,0.6c0,0.1,0,0.2-0.1,0.3
			c-0.1,0.1-0.2,0.1-0.3,0.1c0,0,0,0,0,0c-1,0-2,0-2.9,0c0,0,0,0,0,0c-0.1,0-0.2,0-0.3-0.1c-0.1-0.1-0.1-0.2-0.1-0.3
			c0-0.5,0-1,0-1.5l0-1.1c0-0.5,0-0.9,0-1.4c0-0.2,0.1-0.4,0.2-0.5c0.7-0.7,1.5-1.4,2.2-2.1c0.4-0.4,0.9-0.9,1.3-1.3
			c0.3-0.3,0.4-0.5,0.3-0.8c-0.1-0.2-0.3-0.4-0.5-0.5c-0.2-0.1-0.5,0-0.7,0.2c-0.2,0.2-0.4,0.3-0.6,0.5c-0.1,0.1-0.1,0.1-0.2,0.2
			l-0.6,0.5c-0.7,0.6-1.3,1.3-2,1.9c-0.2,0.2-0.3,0.2-0.5,0c-0.8-0.8-1.5-1.5-2.3-2.2l-0.8-0.8c-0.2-0.2-0.3-0.3-0.6-0.3
			c-0.3,0-0.6,0.1-0.7,0.4c-0.1,0.3-0.1,0.5,0.1,0.7c0.3,0.3,0.5,0.5,0.8,0.8l0.8,0.8c0.7,0.7,1.4,1.3,2.1,2
			c0.1,0.1,0.2,0.3,0.2,0.5c0,1.5,0,2.8,0,4c0,0.1,0,0.2-0.1,0.3c-0.1,0.1-0.2,0.1-0.3,0.1C58,649.9,57,649.9,56,649.9
			C56,649.9,56,649.9,56,649.9z M60.3,625.8c-0.7,0-1.5,0.1-2.3,0.2c-1.6,0.3-3.1,0.9-4.5,1.9c-3.6,2.5-5.4,6.9-4.5,11.1
			c0.4,2,1.4,3.9,2.9,5.4c1,1.1,2.2,1.9,3.6,2.5c0.3,0.1,0.4,0.3,0.4,0.6c0,0.4,0,0.8,0,1.2c0,0.3,0,0.6,0,0.9c0,0.1,0,0.1,0,0.1
			c0,0,0.1,0,0.1,0c0,0,0,0,0,0c1,0,2,0,3.1,0c0.1,0,0.1,0,0.2,0c0,0,0-0.1,0-0.2c0-1.2,0-2.5,0-4c0-0.1,0-0.2-0.2-0.3
			c-0.7-0.7-1.4-1.3-2.1-2l-0.8-0.8c-0.3-0.3-0.5-0.5-0.8-0.8c-0.3-0.3-0.3-0.6-0.2-0.9c0.2-0.3,0.5-0.5,0.9-0.5
			c0.3,0,0.6,0.2,0.7,0.4l0.8,0.8c0.8,0.7,1.5,1.5,2.3,2.2c0.1,0.1,0.1,0.1,0.2,0c0.7-0.6,1.3-1.3,2-1.9l0.6-0.5
			c0.1-0.1,0.1-0.1,0.2-0.2c0.2-0.2,0.4-0.4,0.6-0.5c0.2-0.2,0.6-0.3,0.8-0.2c0.3,0.1,0.5,0.3,0.6,0.6c0.1,0.4-0.1,0.8-0.3,1
			c-0.4,0.4-0.9,0.9-1.3,1.3c-0.7,0.7-1.5,1.4-2.2,2.1c-0.1,0.1-0.2,0.2-0.2,0.4c0,0.5,0,0.9,0,1.4l0,0.5l0,0.6c0,0.5,0,1,0,1.5
			c0,0.1,0,0.1,0,0.1c0,0,0,0,0.1,0c0,0,0,0,0,0c1,0,2,0,2.9,0c0,0,0,0,0,0c0.1,0,0.1,0,0.1,0c0,0,0-0.1,0-0.1c0-0.2,0-0.4,0-0.6
			c0-0.4,0-0.7,0-1.1c0-0.5,0.2-0.7,0.6-0.9c4-1.9,6.3-5,6.6-9.3c0.2-2.3-0.3-4.5-1.6-6.5c-1.8-2.8-4.4-4.5-7.8-5.2
			C61.6,625.8,60.9,625.8,60.3,625.8z"/>
	</g>
	<g>
		<path class="st2" d="M60.3,628.6c0.9,0,1.8,0.1,2.7,0.4c0.5,0.2,0.7,0.6,0.6,1c-0.1,0.4-0.6,0.7-1.1,0.5c-0.9-0.3-1.8-0.4-2.8-0.3
			c-2.7,0.2-5.3,1.9-6.2,4.7c-0.1,0.3-0.2,0.5-0.3,0.8c-0.1,0.4-0.6,0.6-1,0.5c-0.4-0.1-0.6-0.5-0.5-0.9c0.4-1.7,1.3-3.2,2.6-4.4
			C56,629.4,58,628.6,60.3,628.6z"/>
		<path d="M52.5,636.3c-0.1,0-0.2,0-0.3,0c-0.4-0.1-0.7-0.6-0.6-1c0.4-1.7,1.3-3.2,2.6-4.4c1.7-1.5,3.7-2.2,6-2.3h0
			c1,0,1.9,0.2,2.7,0.4c0.5,0.2,0.8,0.6,0.7,1.1c-0.1,0.2-0.2,0.4-0.4,0.5c-0.2,0.1-0.5,0.1-0.7,0c-0.9-0.3-1.8-0.4-2.7-0.3
			c-2.8,0.2-5.2,2-6.2,4.6c0,0.1-0.1,0.3-0.1,0.4c0,0.1-0.1,0.3-0.1,0.4C53.2,636,52.9,636.3,52.5,636.3z M60.3,628.7
			c-2.3,0-4.3,0.8-5.9,2.2c-1.3,1.2-2.2,2.6-2.6,4.3c-0.1,0.3,0.1,0.7,0.5,0.8c0.4,0.1,0.7-0.1,0.9-0.4c0-0.1,0.1-0.3,0.1-0.4
			c0-0.1,0.1-0.3,0.1-0.4c0.9-2.7,3.4-4.5,6.3-4.7c1-0.1,1.9,0,2.8,0.3c0.2,0.1,0.4,0.1,0.6,0c0.2-0.1,0.3-0.2,0.3-0.4
			c0.1-0.3-0.1-0.7-0.6-0.8C62.1,628.9,61.3,628.7,60.3,628.7z"/>
	</g>
</g>
</svg>
