<?xml version="1.0" encoding="UTF-8" standalone="no"?>
<svg width="32px" height="30px" viewBox="0 0 42 40" version="1.1" xmlns="http://www.w3.org/2000/svg" xmlns:xlink="http://www.w3.org/1999/xlink">
    <!-- Generator: Sketch 3.7.2 (28276) - http://www.bohemiancoding.com/sketch -->
    <title>Fill 85</title>
    <desc>Created with Sketch.</desc>
    <defs></defs>
    <g id="Page-1" stroke="none" stroke-width="1" fill="none" fill-rule="evenodd">
        <path d="M41.9031,14.8348 C41.7891,14.3108 41.2871,13.9918 40.7391,13.9918 L27.5001,13.9998 L22.2281,0.8438 C22.0291,0.2708 21.6351,-0.0002 21.0181,-0.0002 C20.4021,-0.0002 19.9841,0.2708 19.7861,0.8438 L14.5001,13.9998 L1.2751,13.9918 C0.6581,13.9918 0.2701,14.2648 0.0651,14.8348 C-0.0949,15.4498 0.0401,15.9078 0.4761,16.2478 L11.6601,24.9748 L7.5971,38.3508 C7.4191,38.9378 7.5971,39.4218 8.0541,39.7638 C8.3121,39.9158 8.5771,39.9998 8.8381,39.9998 C9.0841,39.9998 9.3281,39.9258 9.5601,39.7638 L21.0181,31.7878 L32.4531,39.7638 C32.6971,39.9338 32.9561,39.9918 33.2071,39.9918 C33.9141,39.9918 34.4621,39.4448 34.4621,38.7388 C34.4621,38.6248 34.4461,38.4628 34.3711,38.2148 L30.3541,24.9748 L41.5381,16.2478 C41.9881,15.8968 42.1081,15.4268 41.9031,14.8348" id="Fill-85" fill="#FFFFFF"></path>
    </g>
</svg>