<?xml version="1.0" encoding="UTF-8" standalone="no"?>
<svg width="32px" height="30px" viewBox="0 0 42 40" version="1.1" xmlns="http://www.w3.org/2000/svg" xmlns:xlink="http://www.w3.org/1999/xlink">
    <!-- Generator: Sketch 3.7.2 (28276) - http://www.bohemiancoding.com/sketch -->
    <title>Fill 83</title>
    <desc>Created with Sketch.</desc>
    <defs></defs>
    <g id="Page-1" stroke="none" stroke-width="1" fill="none" fill-rule="evenodd">
        <path d="M29.1234,23.3984 L28.0414,24.2424 L28.4404,25.5554 L31.8914,36.9334 L22.1624,30.1474 L21.0194,29.3504 L19.8754,30.1464 L10.1164,36.9394 L13.5744,25.5564 L13.9724,24.2424 L12.8904,23.3984 L3.4004,15.9924 L14.4984,16.0004 L15.8514,16.0004 L16.3554,14.7454 L21.0064,3.1704 L25.6434,14.7444 L26.1474,16.0004 L27.5014,16.0004 L38.6134,15.9924 L29.1234,23.3984 Z M41.9034,14.8344 C41.7894,14.3104 41.2874,13.9914 40.7394,13.9914 L27.5004,14.0004 L22.2284,0.8434 C22.0294,0.2714 21.6344,0.0004 21.0184,0.0004 C20.4024,0.0004 19.9844,0.2714 19.7854,0.8434 L14.5004,14.0004 L1.2744,13.9914 C0.6584,13.9914 0.2704,14.2654 0.0644,14.8344 C-0.0946,15.4494 0.0404,15.9074 0.4754,16.2474 L11.6604,24.9754 L7.5974,38.3514 C7.4194,38.9384 7.5974,39.4224 8.0544,39.7634 C8.3124,39.9164 8.5764,40.0004 8.8384,40.0004 C9.0844,40.0004 9.3274,39.9254 9.5604,39.7634 L21.0184,31.7884 L32.4534,39.7634 C32.6974,39.9334 32.9564,39.9914 33.2064,39.9914 C33.9144,39.9914 34.4624,39.4444 34.4624,38.7384 C34.4624,38.6244 34.4464,38.4624 34.3714,38.2144 L30.3534,24.9754 L41.5374,16.2474 C41.9874,15.8964 42.1084,15.4274 41.9034,14.8344 L41.9034,14.8344 Z" id="Fill-83" fill="#FFFFFF"></path>
    </g>
</svg>