<svg 
 xmlns="http://www.w3.org/2000/svg"
 xmlns:xlink="http://www.w3.org/1999/xlink"
 width="53px" height="58px">
<path fill-rule="evenodd"  fill="rgb(254, 224, 1)"
 d="M51.598,37.455 L45.392,37.455 L50.816,56.354 C50.908,56.672 50.843,57.013 50.644,57.277 C50.444,57.540 50.132,57.695 49.800,57.695 L44.655,57.695 C44.184,57.695 43.769,57.384 43.640,56.933 L41.598,49.819 L11.049,49.819 L9.008,56.933 C8.878,57.384 8.464,57.695 7.992,57.695 L2.846,57.695 C2.515,57.695 2.203,57.540 2.003,57.277 C1.803,57.013 1.739,56.672 1.831,56.354 L7.255,37.455 L1.048,37.455 C0.465,37.455 -0.008,36.984 -0.008,36.403 L-0.008,17.342 C-0.008,16.761 0.465,16.290 1.048,16.290 L20.148,16.290 L20.148,13.093 C20.148,12.512 20.621,12.041 21.204,12.041 L22.334,12.041 L22.334,10.412 C22.334,8.381 23.993,6.730 26.031,6.730 L26.616,6.730 C28.654,6.730 30.313,8.381 30.313,10.412 L30.313,12.041 L31.442,12.041 C32.026,12.041 32.498,12.512 32.498,13.093 L32.498,16.290 L51.598,16.290 C52.182,16.290 52.655,16.761 52.655,17.342 L52.655,36.403 C52.655,36.984 52.182,37.455 51.598,37.455 ZM45.452,55.591 L48.400,55.591 L43.195,37.455 L40.246,37.455 L45.452,55.591 ZM40.994,47.715 L40.110,44.636 L12.537,44.636 L11.653,47.715 L40.994,47.715 ZM39.506,42.532 L38.049,37.455 L14.598,37.455 L13.141,42.532 L39.506,42.532 ZM4.247,55.591 L7.195,55.591 L12.401,37.455 L9.452,37.455 L4.247,55.591 ZM2.105,18.394 L2.105,22.140 L6.529,18.394 L2.105,18.394 ZM9.791,18.394 L2.105,24.902 L2.105,29.261 L14.939,18.394 L9.791,18.394 ZM18.100,18.394 C18.041,18.496 17.968,18.591 17.872,18.672 L2.105,32.023 L2.105,35.351 L4.584,35.351 C4.638,35.271 4.699,35.194 4.776,35.129 L24.542,18.394 L21.204,18.394 L18.100,18.394 ZM28.200,10.412 C28.200,9.542 27.490,8.834 26.616,8.834 L26.031,8.834 C25.158,8.834 24.446,9.542 24.446,10.412 L24.446,12.041 L28.200,12.041 L28.200,10.412 ZM30.386,14.145 L22.261,14.145 L22.261,16.290 L30.386,16.290 L30.386,14.145 ZM31.442,18.394 L27.803,18.394 L7.776,35.351 L8.656,35.351 L13.801,35.351 L14.480,35.351 C14.533,35.271 14.594,35.194 14.672,35.129 L34.437,18.394 L31.442,18.394 ZM37.699,18.394 L17.671,35.351 L24.467,35.351 C24.521,35.271 24.582,35.194 24.659,35.129 L44.425,18.394 L37.699,18.394 ZM50.542,18.394 L47.686,18.394 L27.658,35.351 L34.261,35.351 L50.386,21.698 C50.436,21.656 50.488,21.622 50.542,21.590 L50.542,18.394 ZM50.542,24.327 L37.522,35.351 L38.846,35.351 L42.438,35.351 L50.542,28.489 L50.542,24.327 ZM50.542,31.250 L45.699,35.351 L50.542,35.351 L50.542,31.250 ZM30.613,5.992 C30.406,6.197 30.137,6.299 29.868,6.299 C29.596,6.299 29.325,6.195 29.118,5.988 C28.707,5.576 28.709,4.910 29.123,4.500 L30.902,2.739 C31.316,2.330 31.984,2.331 32.396,2.744 C32.808,3.156 32.805,3.822 32.392,4.231 L30.613,5.992 ZM26.323,5.418 C25.740,5.418 25.268,4.947 25.268,4.366 L25.268,1.867 C25.268,1.286 25.740,0.815 26.323,0.815 C26.907,0.815 27.380,1.286 27.380,1.867 L27.380,4.366 C27.380,4.947 26.907,5.418 26.323,5.418 ZM22.779,6.299 C22.510,6.299 22.241,6.197 22.035,5.992 L20.255,4.231 C19.842,3.822 19.839,3.156 20.251,2.744 C20.662,2.332 21.331,2.330 21.744,2.739 L23.523,4.500 C23.937,4.910 23.940,5.576 23.528,5.988 C23.322,6.195 23.050,6.299 22.779,6.299 Z"/>
</svg>