<svg 
 xmlns="http://www.w3.org/2000/svg"
 xmlns:xlink="http://www.w3.org/1999/xlink"
 width="10px" height="11px">
<path fill-rule="evenodd"  fill="rgb(215, 227, 58)"
 d="M0.249,5.672 C0.249,5.710 0.254,5.749 0.260,5.787 C0.264,5.804 0.271,5.821 0.275,5.837 C0.281,5.857 0.285,5.877 0.293,5.897 C0.300,5.917 0.312,5.935 0.322,5.954 C0.329,5.969 0.336,5.984 0.345,5.998 C0.366,6.031 0.390,6.061 0.416,6.088 L4.492,10.322 C4.713,10.552 5.071,10.552 5.293,10.322 C5.513,10.093 5.513,9.721 5.293,9.491 L2.182,6.260 L9.175,6.260 C9.487,6.260 9.740,5.997 9.740,5.672 C9.740,5.347 9.487,5.084 9.175,5.084 L2.182,5.084 L5.293,1.853 C5.513,1.624 5.513,1.251 5.293,1.022 C5.182,0.907 5.037,0.849 4.892,0.849 C4.747,0.849 4.602,0.907 4.492,1.022 L0.416,5.256 C0.390,5.283 0.366,5.313 0.345,5.346 C0.336,5.361 0.329,5.376 0.322,5.390 C0.311,5.409 0.300,5.427 0.293,5.447 C0.285,5.467 0.281,5.487 0.275,5.507 C0.271,5.524 0.264,5.540 0.260,5.557 C0.254,5.594 0.249,5.634 0.249,5.672 L0.249,5.672 L0.249,5.672 Z"/>
</svg>