<svg 
 xmlns="http://www.w3.org/2000/svg"
 xmlns:xlink="http://www.w3.org/1999/xlink"
 width="11px" height="10px">
<path fill-rule="evenodd"  fill="rgb(215, 227, 58)"
 d="M10.284,4.825 C10.284,4.787 10.280,4.748 10.274,4.711 C10.270,4.694 10.263,4.677 10.259,4.661 C10.253,4.642 10.249,4.621 10.241,4.602 C10.234,4.582 10.222,4.564 10.212,4.546 C10.205,4.531 10.199,4.516 10.190,4.502 C10.169,4.470 10.146,4.440 10.119,4.413 L6.086,0.223 C5.868,-0.005 5.513,-0.005 5.294,0.223 C5.075,0.449 5.075,0.818 5.294,1.045 L8.372,4.243 L1.452,4.243 C1.143,4.243 0.892,4.503 0.892,4.825 C0.892,5.146 1.143,5.406 1.452,5.406 L8.372,5.406 L5.294,8.604 C5.075,8.831 5.075,9.200 5.294,9.426 C5.403,9.540 5.547,9.597 5.690,9.597 C5.833,9.597 5.977,9.540 6.086,9.426 L10.119,5.237 C10.146,5.209 10.169,5.179 10.190,5.147 C10.199,5.133 10.205,5.118 10.213,5.103 C10.223,5.085 10.234,5.067 10.241,5.047 C10.249,5.028 10.253,5.007 10.259,4.988 C10.263,4.971 10.270,4.956 10.274,4.938 C10.280,4.901 10.284,4.863 10.284,4.825 L10.284,4.825 L10.284,4.825 Z"/>
</svg>