<svg xmlns="http://www.w3.org/2000/svg"
 xmlns:xlink="http://www.w3.org/1999/xlink" width="35px" height="26px">
    <path fill-rule="evenodd"  fill="rgb(255, 255, 255)"
    d="M31.758,10.688 L7.717,10.688 L14.529,3.862 C15.412,2.976 15.411,1.542 14.525,0.659 C13.639,-0.225 12.205,-0.223 11.321,0.662 L0.653,11.353 C-0.229,12.237 -0.229,13.669 0.653,14.553 L11.321,25.244 C11.764,25.687 12.344,25.909 12.925,25.909 C13.504,25.909 14.083,25.689 14.525,25.248 C15.411,24.364 15.412,22.930 14.529,22.044 L7.717,15.218 L31.758,15.218 C33.009,15.218 34.024,14.204 34.024,12.953 C34.024,11.702 33.009,10.688 31.758,10.688 Z"/>
</svg>