<svg 
 xmlns="http://www.w3.org/2000/svg"
 xmlns:xlink="http://www.w3.org/1999/xlink"
 width="12px" height="12px">
<path fill-rule="evenodd"  fill="rgb(255, 255, 255)"
 d="M7.066,5.653 L11.449,1.335 C11.744,1.044 11.744,0.572 11.449,0.281 C11.154,-0.010 10.674,-0.010 10.379,0.281 L5.997,4.599 L1.614,0.281 C1.319,-0.010 0.840,-0.010 0.544,0.281 C0.249,0.572 0.249,1.044 0.544,1.335 L4.927,5.653 L0.544,9.970 C0.249,10.261 0.249,10.733 0.544,11.024 C0.692,11.170 0.886,11.243 1.079,11.243 C1.273,11.243 1.466,11.170 1.614,11.024 L5.997,6.706 L10.379,11.024 C10.527,11.170 10.720,11.243 10.914,11.243 C11.108,11.243 11.301,11.170 11.449,11.024 C11.744,10.733 11.744,10.261 11.449,9.970 L7.066,5.653 Z"/>
</svg>