<svg 
 xmlns="http://www.w3.org/2000/svg"
 xmlns:xlink="http://www.w3.org/1999/xlink"
 width="25px" height="38px">
<path fill-rule="evenodd"  fill="rgb(100, 131, 203)"
 d="M24.633,30.069 C24.574,32.348 19.999,36.164 18.308,36.620 C15.555,37.363 12.839,37.233 10.217,36.067 C8.337,35.231 3.687,29.909 2.052,27.902 C1.615,27.365 1.144,26.855 0.696,26.327 C-0.016,25.486 -0.202,24.539 0.217,23.518 C0.646,22.473 1.480,21.913 2.595,21.839 C3.455,21.782 4.203,22.109 4.772,22.769 C5.492,23.602 6.197,24.448 6.905,25.291 C7.094,25.516 7.318,25.657 7.622,25.615 C8.008,25.561 8.226,25.285 8.226,24.850 C8.228,22.093 8.228,19.337 8.228,16.581 C8.229,14.705 8.222,12.829 8.232,10.954 C8.238,9.747 8.966,8.722 10.048,8.352 C11.866,7.731 13.678,9.045 13.681,10.990 C13.683,13.187 13.681,15.385 13.681,17.582 C13.681,17.685 13.681,17.788 13.681,17.891 C13.705,17.898 13.729,17.904 13.753,17.911 C13.789,17.862 13.829,17.814 13.861,17.762 C14.964,15.998 17.385,15.899 18.624,17.570 C18.980,18.050 19.140,18.602 19.164,19.190 C19.179,19.578 19.165,19.967 19.167,20.355 C19.167,20.445 19.178,20.534 19.189,20.707 C19.283,20.574 19.330,20.511 19.373,20.445 C20.071,19.365 21.327,18.874 22.547,19.207 C23.749,19.534 24.635,20.622 24.644,21.885 C24.665,24.613 24.704,27.343 24.633,30.069 ZM20.482,12.242 C20.044,12.245 19.606,12.242 19.168,12.242 C18.730,12.242 18.292,12.247 17.854,12.241 C17.079,12.232 16.469,11.645 16.460,10.909 C16.451,10.165 17.067,9.559 17.857,9.552 C18.733,9.544 19.610,9.543 20.486,9.551 C21.303,9.558 21.916,10.152 21.908,10.913 C21.901,11.655 21.279,12.236 20.482,12.242 ZM16.738,7.006 C16.518,7.208 16.176,7.276 15.890,7.406 C15.877,7.382 15.864,7.358 15.852,7.334 C15.298,7.315 14.883,7.059 14.659,6.559 C14.437,6.064 14.472,5.554 14.850,5.153 C15.526,4.436 16.226,3.738 16.946,3.065 C17.469,2.577 18.276,2.638 18.775,3.146 C19.263,3.644 19.307,4.432 18.821,4.946 C18.150,5.655 17.458,6.347 16.738,7.006 ZM11.257,5.370 C10.711,5.515 10.107,5.283 9.816,4.765 C9.695,4.552 9.618,4.286 9.611,4.041 C9.586,3.161 9.595,2.280 9.601,1.399 C9.607,0.614 10.212,-0.002 10.959,0.001 C11.696,0.005 12.292,0.609 12.306,1.380 C12.314,1.825 12.307,2.270 12.307,2.715 C12.307,3.169 12.319,3.624 12.305,4.078 C12.285,4.724 11.887,5.203 11.257,5.370 ZM6.606,7.204 C6.098,7.433 5.580,7.399 5.168,7.013 C4.455,6.346 3.761,5.657 3.090,4.948 C2.599,4.431 2.649,3.623 3.152,3.128 C3.666,2.623 4.477,2.594 5.005,3.098 C5.691,3.753 6.355,4.430 7.023,5.103 C7.268,5.350 7.375,5.660 7.368,6.008 C7.354,6.558 7.112,6.977 6.606,7.204 ZM5.448,10.892 C5.447,11.638 4.837,12.227 4.040,12.241 C3.603,12.249 3.165,12.243 2.727,12.243 C2.289,12.242 1.851,12.247 1.414,12.241 C0.620,12.231 0.004,11.643 0.000,10.899 C-0.003,10.159 0.620,9.555 1.408,9.550 C2.283,9.544 3.159,9.545 4.035,9.552 C4.829,9.558 5.450,10.153 5.448,10.892 Z"/>
</svg>