<?xml version="1.0" encoding="utf-8"?>
<!-- Generator: Adobe Illustrator 21.0.2, SVG Export Plug-In . SVG Version: 6.00 Build 0)  -->
<svg version="1.1" id="Layer_1" xmlns="http://www.w3.org/2000/svg" xmlns:xlink="http://www.w3.org/1999/xlink" x="0px" y="0px"
	 viewBox="0 0 32 35" style="enable-background:new 0 0 32 35;" xml:space="preserve">
<g>
	<path d="M3.1,4.3c0-0.5,0-1,0-1.4c0-0.4,0.2-0.6,0.6-0.6c0.5,0,0.9,0,1.5,0c0-0.5,0-1,0-1.4c0-0.5,0.2-0.6,0.6-0.6
		c8.5,0,17,0,25.5,0c0.5,0,0.6,0.2,0.6,0.7c0,4.3,0,8.7,0,13c0,0.6-0.2,0.7-0.7,0.7c-0.4,0-0.9,0-1.3,0c0,0.5,0,0.9,0,1.4
		c0,0.5-0.2,0.7-0.7,0.7c-0.4,0-0.9,0-1.4,0c0,0.5,0,1,0,1.4c0,0.5-0.2,0.6-0.6,0.6c-8.5,0-17,0-25.5,0c-0.5,0-0.6-0.2-0.6-0.6
		c0-4.4,0-8.7,0-13.1c0-0.5,0.2-0.7,0.7-0.7C2.2,4.3,2.6,4.3,3.1,4.3z M2.1,17.6c8.2,0,16.5,0,24.7,0c0-4.1,0-8.2,0-12.3
		c-8.2,0-16.4,0-24.7,0C2.1,9.4,2.1,13.5,2.1,17.6z M30.9,1.2c-8.2,0-16.5,0-24.7,0c0,0.3,0,0.7,0,1c0.2,0,0.3,0,0.4,0
		c7.5,0,15,0,22.5,0c0.6,0,0.7,0.2,0.7,0.7c0,3.4,0,6.8,0,10.3c0,0.1,0,0.2,0,0.3c0.4,0,0.7,0,1,0C30.9,9.4,30.9,5.3,30.9,1.2z
		 M4.2,4.3c0.2,0,0.3,0,0.4,0c7.5,0,15,0,22.5,0c0.6,0,0.7,0.1,0.7,0.7c0,3.4,0,6.9,0,10.3c0,0.1,0,0.2,0,0.3c0.3,0,0.7,0,1,0
		c0-4.1,0-8.2,0-12.3c-8.2,0-16.4,0-24.7,0C4.2,3.6,4.2,3.9,4.2,4.3z"/>
	<path d="M24.7,31.8c-0.2,0-0.3,0-0.4,0c-2.5,0-5.1,0-7.6,0c-0.6,0-0.7-0.1-0.7-0.7c0-1.3,0-2.5,0-3.8c0-0.5,0.2-0.7,0.7-0.7
		c2.5,0,5,0,7.5,0c0.2,0,0.3,0,0.6,0c0-0.4,0-0.7,0-1.1c0-0.3,0-0.6,0-0.9c0-0.2,0.1-0.4,0.3-0.6c0.2-0.1,0.4,0,0.6,0.1
		c1.4,1,2.8,2.1,4.1,3.1c0.6,0.5,1.2,0.9,1.9,1.4c0.4,0.3,0.4,0.6,0,0.9c-2,1.7-4,3.3-6,5c-0.2,0.2-0.4,0.3-0.6,0.1
		c-0.2-0.1-0.3-0.3-0.3-0.6C24.7,33.5,24.7,32.7,24.7,31.8z M25.8,33.3c1.6-1.4,3.2-2.7,4.8-4c-1.6-1.2-3.2-2.4-4.8-3.6
		c0,0.5,0,0.9,0,1.3c0,0.6-0.2,0.7-0.7,0.7c-2.5,0-5.1,0-7.6,0c-0.1,0-0.3,0-0.4,0c0,1.1,0,2.1,0,3.1c0.1,0,0.2,0,0.3,0
		c2.6,0,5.1,0,7.7,0c0.5,0,0.7,0.2,0.7,0.7C25.8,32,25.8,32.6,25.8,33.3z"/>
	<path d="M1.1,29.2c0-0.7,0-1.3,0-2c0-0.4,0.2-0.6,0.6-0.6c0.6,0,1.3,0,1.9,0c0.4,0,0.6,0.2,0.6,0.6c0,1.3,0,2.6,0,3.9
		c0,0.4-0.2,0.6-0.6,0.6c-0.6,0-1.2,0-1.9,0c-0.4,0-0.6-0.2-0.6-0.6C1.1,30.6,1.1,29.9,1.1,29.2z M3.1,27.7c-0.4,0-0.7,0-1,0
		c0,1,0,2,0,3c0.3,0,0.7,0,1,0C3.1,29.7,3.1,28.7,3.1,27.7z"/>
	<path d="M6.7,29.2c0-0.6,0-1.3,0-1.9c0-0.4,0.2-0.6,0.6-0.6c0.6,0,1.3,0,1.9,0c0.4,0,0.6,0.2,0.6,0.6c0,1.3,0,2.7,0,4
		c0,0.4-0.2,0.6-0.6,0.6c-0.6,0-1.3,0-1.9,0c-0.4,0-0.6-0.2-0.6-0.6C6.7,30.6,6.7,29.9,6.7,29.2z M7.8,27.7c0,1,0,2,0,3
		c0.3,0,0.7,0,1,0c0-1,0-2,0-3C8.4,27.7,8.1,27.7,7.8,27.7z"/>
	<path d="M11.9,29.2c0-0.7,0-1.3,0-2c0-0.4,0.2-0.6,0.6-0.6c0.6,0,1.3,0,1.9,0c0.4,0,0.6,0.2,0.6,0.6c0,1.3,0,2.6,0,4
		c0,0.4-0.2,0.6-0.6,0.6c-0.6,0-1.3,0-1.9,0c-0.4,0-0.6-0.2-0.6-0.6C11.9,30.6,11.9,29.9,11.9,29.2z M12.9,30.8c0.4,0,0.7,0,1,0
		c0-1,0-2,0-3c-0.3,0-0.7,0-1,0C12.9,28.8,12.9,29.8,12.9,30.8z"/>
	<path d="M14.4,16.6c-2.7,0-5.4,0-8,0c-0.5,0-0.7-0.1-0.7-0.7c-0.1-1-0.9-1.8-1.9-1.9c-0.5,0-0.6-0.2-0.6-0.7c0-1.3,0-2.5,0-3.8
		c0-0.5,0.1-0.6,0.6-0.7C4.8,8.8,5.6,8,5.7,7c0-0.5,0.2-0.6,0.7-0.6c5.4,0,10.8,0,16.2,0c0.5,0,0.6,0.2,0.7,0.6
		c0.1,1,0.9,1.9,1.9,1.9c0.5,0,0.7,0.2,0.7,0.7c0,1.3,0,2.5,0,3.8c0,0.5-0.2,0.6-0.6,0.7c-1.1,0.1-1.9,0.9-1.9,2
		c0,0.4-0.2,0.6-0.6,0.6C19.8,16.6,17.1,16.6,14.4,16.6z M6.7,7.4C6.4,8.8,5.5,9.6,4.2,9.9c0,1.1,0,2.1,0,3.2
		c1.4,0.3,2.2,1.2,2.5,2.5c5.2,0,10.3,0,15.5,0c0.3-1.4,1.2-2.2,2.5-2.5c0-1.1,0-2.1,0-3.1c-1.4-0.3-2.2-1.2-2.5-2.5
		C17,7.4,11.9,7.4,6.7,7.4z"/>
	<path d="M17,11.5c0,1.4-1.1,2.6-2.5,2.6c-1.4,0-2.6-1.1-2.6-2.5c0-1.4,1.1-2.6,2.6-2.6C15.8,8.9,17,10.1,17,11.5z M14.4,13
		c0.9,0,1.6-0.7,1.6-1.5c0-0.8-0.7-1.5-1.5-1.5c-0.9,0-1.6,0.7-1.6,1.5C12.9,12.3,13.6,13,14.4,13z"/>
</g>
</svg>
