<svg 
 xmlns="http://www.w3.org/2000/svg"
 xmlns:xlink="http://www.w3.org/1999/xlink"
 width="112px" height="81px">
<path fill-rule="evenodd"  fill="rgb(255, 255, 255)"
 d="M111.090,1.804 L93.939,1.804 C93.440,1.804 93.036,1.400 93.036,0.902 C93.036,0.404 93.440,-0.000 93.939,-0.000 L111.090,-0.000 C111.588,-0.000 111.993,0.404 111.993,0.902 C111.993,1.400 111.588,1.804 111.090,1.804 ZM99.099,6.874 C99.099,7.372 98.694,7.776 98.196,7.776 L91.536,7.776 C91.038,7.776 90.633,7.372 90.633,6.874 C90.633,6.376 91.038,5.972 91.536,5.972 L98.196,5.972 C98.694,5.972 99.099,6.376 99.099,6.874 ZM103.291,11.214 C103.357,11.217 103.418,11.235 103.482,11.252 C103.538,11.267 103.594,11.279 103.645,11.304 C103.697,11.328 103.741,11.365 103.788,11.400 C103.841,11.439 103.893,11.476 103.937,11.525 C103.949,11.539 103.966,11.545 103.977,11.559 C104.002,11.591 104.010,11.630 104.030,11.664 C104.065,11.721 104.098,11.776 104.121,11.840 C104.141,11.901 104.149,11.961 104.157,12.023 C104.163,12.065 104.182,12.103 104.182,12.146 L104.182,61.721 C104.182,62.241 103.759,62.664 103.238,62.664 L52.215,62.664 C51.089,71.805 43.284,78.911 33.836,78.911 C23.616,78.911 15.301,70.603 15.301,60.392 C15.301,52.322 20.503,45.459 27.726,42.928 C27.650,42.792 27.595,42.643 27.595,42.476 L27.595,12.146 C27.595,12.103 27.614,12.065 27.619,12.023 C27.628,11.961 27.635,11.901 27.656,11.840 C27.679,11.776 27.712,11.721 27.747,11.664 C27.767,11.630 27.775,11.591 27.800,11.559 C27.811,11.545 27.828,11.539 27.840,11.526 C27.884,11.476 27.936,11.438 27.990,11.399 C28.037,11.365 28.080,11.328 28.132,11.304 C28.183,11.279 28.239,11.267 28.296,11.252 C28.359,11.235 28.420,11.217 28.486,11.214 C28.504,11.212 28.520,11.203 28.539,11.203 L103.238,11.203 C103.257,11.203 103.273,11.212 103.291,11.214 ZM52.350,60.778 L100.982,60.778 L75.535,35.351 L66.476,42.546 C66.436,42.577 66.391,42.592 66.348,42.616 C66.314,42.635 66.284,42.656 66.248,42.670 C66.132,42.719 66.012,42.751 65.889,42.751 C65.889,42.751 65.888,42.751 65.888,42.751 C65.888,42.751 65.887,42.751 65.887,42.751 C65.764,42.751 65.644,42.719 65.528,42.670 C65.492,42.656 65.462,42.635 65.428,42.616 C65.385,42.592 65.340,42.577 65.300,42.546 L56.946,35.911 L44.855,45.536 C49.404,48.914 52.369,54.307 52.369,60.392 C52.369,60.522 52.353,60.648 52.350,60.778 ZM16.905,60.392 C16.905,69.719 24.500,77.308 33.836,77.308 C43.171,77.308 50.765,69.719 50.765,60.392 C50.765,51.064 43.171,43.475 33.836,43.475 C24.500,43.475 16.905,51.064 16.905,60.392 ZM29.483,42.410 C30.882,42.071 32.334,41.873 33.836,41.873 C37.255,41.873 40.451,42.819 43.204,44.440 L55.430,34.707 L29.483,14.100 L29.483,42.410 ZM31.243,13.089 L65.888,40.604 L100.534,13.089 L31.243,13.089 ZM102.294,14.100 L77.021,34.171 L102.294,59.423 L102.294,14.100 ZM42.743,54.346 C43.439,55.753 43.699,57.272 43.513,58.861 C43.132,62.100 41.405,64.554 38.377,66.155 C38.259,66.216 38.227,66.269 38.227,66.399 C38.237,67.728 38.237,68.816 38.229,69.825 C38.224,70.523 37.953,71.080 37.423,71.484 C37.122,71.713 36.796,71.857 36.455,71.911 C36.303,71.935 36.288,71.968 36.288,72.114 C36.288,72.684 36.041,73.102 35.572,73.320 C35.349,73.424 35.102,73.486 34.876,73.493 C34.542,73.502 34.204,73.505 33.869,73.505 C33.553,73.505 33.237,73.502 32.928,73.500 L32.790,73.498 C31.965,73.492 31.386,72.920 31.384,72.108 C31.383,71.984 31.368,71.967 31.241,71.951 C30.242,71.826 29.605,71.272 29.349,70.303 C29.297,70.105 29.287,69.894 29.284,69.697 C29.277,69.305 29.278,68.913 29.280,68.522 L29.281,68.053 L29.280,67.670 C29.278,67.204 29.277,66.737 29.283,66.269 C29.283,66.176 29.257,66.136 29.169,66.090 C27.142,65.023 25.672,63.447 24.801,61.404 C24.194,59.984 23.981,58.539 24.164,57.108 C24.607,53.660 26.516,51.144 29.840,49.631 C31.246,48.991 32.741,48.715 34.267,48.823 C38.211,49.092 41.063,50.950 42.743,54.346 ZM30.655,69.202 C30.654,69.404 30.653,69.606 30.658,69.807 C30.673,70.341 30.993,70.652 31.538,70.661 C31.903,70.667 32.199,70.667 32.470,70.661 C32.474,70.661 32.479,70.660 32.484,70.660 C32.547,70.660 32.629,70.670 32.688,70.729 C32.752,70.792 32.757,70.881 32.756,70.942 C32.753,71.139 32.754,71.336 32.755,71.533 C32.755,71.717 32.756,71.899 32.753,72.083 C32.753,72.116 32.757,72.159 32.775,72.176 C32.789,72.191 32.824,72.200 32.872,72.200 C32.872,72.200 32.873,72.200 32.874,72.200 C33.511,72.196 34.147,72.199 34.782,72.200 C34.840,72.200 34.880,72.190 34.896,72.173 C34.918,72.151 34.922,72.101 34.921,72.063 C34.917,71.896 34.918,71.727 34.919,71.560 C34.920,71.370 34.920,71.181 34.915,70.991 C34.912,70.906 34.919,70.801 34.992,70.729 C35.066,70.658 35.176,70.654 35.247,70.660 C35.463,70.672 35.688,70.668 35.904,70.662 L35.962,70.661 C36.529,70.648 36.848,70.336 36.859,69.782 C36.862,69.614 36.861,69.445 36.860,69.277 C36.859,69.071 36.857,68.863 36.865,68.657 C36.867,68.579 36.854,68.559 36.849,68.555 C36.844,68.549 36.822,68.535 36.737,68.535 C36.736,68.535 36.735,68.535 36.734,68.535 C35.991,68.541 35.251,68.540 34.509,68.540 L33.767,68.539 L33.013,68.540 C32.257,68.541 31.505,68.540 30.750,68.537 C30.680,68.539 30.661,68.548 30.660,68.549 C30.660,68.549 30.650,68.562 30.651,68.616 C30.656,68.810 30.655,69.006 30.655,69.202 ZM32.188,50.273 C31.019,50.493 29.926,50.947 28.940,51.622 C26.288,53.437 24.994,56.550 25.644,59.552 C25.959,61.013 26.665,62.312 27.743,63.413 C28.487,64.172 29.371,64.774 30.373,65.202 C30.580,65.292 30.665,65.420 30.659,65.632 C30.652,65.911 30.652,66.191 30.653,66.472 C30.654,66.693 30.655,66.914 30.651,67.136 C30.650,67.206 30.663,67.220 30.663,67.220 C30.664,67.221 30.677,67.234 30.747,67.234 C30.748,67.234 30.749,67.234 30.750,67.234 C31.493,67.227 32.265,67.227 33.047,67.233 C33.048,67.233 33.050,67.233 33.051,67.233 C33.124,67.233 33.140,67.220 33.142,67.217 C33.144,67.216 33.158,67.201 33.157,67.126 C33.150,66.244 33.150,65.316 33.157,64.288 C33.157,64.192 33.129,64.130 33.054,64.059 C32.609,63.637 32.164,63.211 31.720,62.787 L30.949,62.049 C30.765,61.875 30.581,61.699 30.402,61.519 C30.201,61.317 30.151,61.069 30.260,60.822 C30.375,60.560 30.606,60.417 30.911,60.417 C30.912,60.417 30.913,60.417 30.914,60.417 C31.163,60.417 31.331,60.557 31.468,60.690 L32.104,61.299 C32.658,61.829 33.212,62.358 33.761,62.890 C33.832,62.959 33.837,62.959 33.907,62.890 C34.414,62.398 34.925,61.911 35.436,61.423 L35.761,61.112 C35.813,61.063 35.864,61.013 35.915,60.963 C36.046,60.834 36.181,60.702 36.325,60.581 C36.512,60.425 36.748,60.374 36.971,60.436 C37.188,60.497 37.356,60.657 37.432,60.877 C37.545,61.211 37.351,61.448 37.194,61.598 L36.230,62.519 C35.697,63.029 35.164,63.539 34.629,64.048 C34.545,64.127 34.512,64.199 34.514,64.303 C34.521,64.634 34.520,64.964 34.518,65.294 L34.517,65.689 L34.518,66.104 C34.520,66.450 34.521,66.797 34.514,67.144 C34.514,67.209 34.526,67.221 34.526,67.221 C34.526,67.221 34.538,67.233 34.602,67.233 C34.603,67.233 34.604,67.233 34.604,67.233 C35.320,67.226 36.039,67.227 36.760,67.233 C36.761,67.233 36.762,67.233 36.763,67.233 C36.831,67.233 36.847,67.220 36.850,67.217 C36.852,67.214 36.865,67.199 36.864,67.134 C36.860,66.975 36.863,66.815 36.866,66.656 C36.870,66.405 36.875,66.146 36.853,65.896 C36.817,65.504 36.994,65.341 37.314,65.192 C40.241,63.832 41.873,61.599 42.161,58.554 C42.317,56.920 41.917,55.364 40.974,53.930 C39.653,51.920 37.741,50.680 35.292,50.246 C34.811,50.160 34.322,50.118 33.829,50.118 C33.286,50.118 32.738,50.170 32.188,50.273 ZM36.353,53.125 C36.297,53.302 36.178,53.445 36.019,53.528 C35.849,53.615 35.647,53.628 35.449,53.566 C34.825,53.369 34.158,53.294 33.466,53.338 C31.416,53.474 29.658,54.757 28.988,56.606 C28.955,56.701 28.924,56.799 28.895,56.896 C28.867,56.992 28.837,57.087 28.805,57.181 C28.707,57.455 28.453,57.622 28.165,57.622 C28.102,57.622 28.036,57.614 27.972,57.597 C27.628,57.509 27.421,57.175 27.500,56.836 C27.791,55.589 28.439,54.518 29.423,53.655 C30.636,52.593 32.127,52.039 33.854,52.010 C34.603,52.029 35.248,52.128 35.834,52.311 C36.242,52.443 36.460,52.784 36.353,53.125 ZM19.800,38.411 C19.624,38.411 19.458,38.342 19.333,38.216 L18.331,37.208 C18.075,36.950 18.076,36.528 18.332,36.269 C18.457,36.143 18.623,36.074 18.799,36.074 L18.800,36.074 C18.976,36.075 19.142,36.143 19.267,36.270 L20.268,37.278 C20.525,37.537 20.525,37.958 20.268,38.217 C20.143,38.342 19.976,38.411 19.800,38.411 ZM19.327,34.785 C19.202,34.911 19.036,34.980 18.859,34.980 C18.681,34.980 18.514,34.911 18.391,34.785 C18.135,34.526 18.135,34.104 18.391,33.845 L19.333,32.898 C19.457,32.772 19.623,32.703 19.799,32.703 C19.800,32.703 19.800,32.703 19.800,32.703 C19.976,32.703 20.143,32.771 20.268,32.898 C20.525,33.157 20.525,33.579 20.268,33.837 L19.327,34.785 ZM15.892,38.216 C15.766,38.342 15.601,38.411 15.424,38.411 C15.247,38.411 15.082,38.342 14.957,38.217 C14.699,37.958 14.699,37.537 14.956,37.278 L15.956,36.270 C16.082,36.143 16.247,36.075 16.424,36.074 C16.602,36.074 16.767,36.143 16.892,36.269 C17.149,36.528 17.149,36.950 16.892,37.208 L15.892,38.216 ZM16.365,34.980 C16.187,34.980 16.021,34.911 15.897,34.785 L14.956,33.837 C14.699,33.579 14.699,33.157 14.956,32.898 C15.081,32.772 15.246,32.703 15.423,32.703 C15.424,32.703 15.424,32.703 15.424,32.703 C15.600,32.703 15.766,32.771 15.892,32.898 L16.834,33.845 C17.089,34.104 17.089,34.526 16.834,34.785 C16.708,34.911 16.542,34.980 16.365,34.980 ZM9.241,52.102 C9.037,52.102 8.834,52.024 8.678,51.869 L6.237,49.431 C5.927,49.120 5.927,48.617 6.237,48.305 C6.549,47.996 7.052,47.996 7.364,48.305 L9.804,50.744 C10.115,51.055 10.115,51.558 9.804,51.869 C9.648,52.024 9.445,52.102 9.241,52.102 ZM7.364,45.945 C7.208,46.100 7.004,46.178 6.801,46.178 C6.597,46.178 6.393,46.100 6.237,45.945 C5.927,45.634 5.927,45.131 6.237,44.820 L8.678,42.381 C8.989,42.072 9.493,42.072 9.804,42.381 C10.115,42.693 10.115,43.196 9.804,43.507 L7.364,45.945 ZM1.435,51.869 C1.279,52.024 1.076,52.102 0.872,52.102 C0.668,52.102 0.464,52.024 0.309,51.869 C-0.002,51.558 -0.002,51.055 0.309,50.744 L2.749,48.305 C3.061,47.996 3.564,47.996 3.875,48.305 C4.186,48.617 4.186,49.120 3.875,49.431 L1.435,51.869 ZM3.312,46.178 C3.109,46.178 2.905,46.100 2.749,45.945 L0.309,43.507 C-0.002,43.196 -0.002,42.693 0.309,42.381 C0.620,42.072 1.123,42.072 1.435,42.381 L3.875,44.820 C4.186,45.131 4.186,45.634 3.875,45.945 C3.720,46.100 3.516,46.178 3.312,46.178 ZM49.997,79.191 L56.657,79.191 C57.155,79.191 57.560,79.596 57.560,80.094 C57.560,80.592 57.155,80.996 56.657,80.996 L49.997,80.996 C49.499,80.996 49.095,80.592 49.095,80.094 C49.095,79.596 49.499,79.191 49.997,79.191 ZM51.497,74.122 C51.497,73.624 51.901,73.220 52.400,73.220 L69.551,73.220 C70.049,73.220 70.454,73.624 70.454,74.122 C70.454,74.620 70.049,75.024 69.551,75.024 L52.400,75.024 C51.901,75.024 51.497,74.620 51.497,74.122 Z"/>
</svg>