<svg 
 xmlns="http://www.w3.org/2000/svg"
 xmlns:xlink="http://www.w3.org/1999/xlink"
 width="104px" height="78px">
<path fill-rule="evenodd"  fill="rgb(68, 68, 68)"
 d="M37.435,39.292 C36.461,37.000 36.063,34.606 36.379,32.134 C37.133,26.237 40.387,22.135 45.805,19.657 C48.125,18.595 50.605,18.134 53.152,18.309 C59.602,18.751 64.389,21.748 67.234,27.529 C68.397,29.891 68.814,32.430 68.510,35.049 C67.864,40.592 64.924,44.594 59.980,47.220 C59.724,47.357 59.640,47.503 59.641,47.782 C59.653,49.707 59.658,51.633 59.644,53.558 C59.635,54.633 59.242,55.546 58.358,56.222 C57.896,56.574 57.377,56.820 56.810,56.911 C56.457,56.966 56.387,57.106 56.387,57.420 C56.387,58.248 56.068,58.932 55.283,59.301 C54.945,59.459 54.552,59.565 54.180,59.576 C53.017,59.610 51.850,59.597 50.686,59.587 C49.387,59.575 48.497,58.696 48.493,57.410 C48.491,57.116 48.406,57.016 48.108,56.978 C46.489,56.774 45.481,55.868 45.075,54.323 C44.991,54.008 44.974,53.670 44.969,53.341 C44.955,52.418 44.964,51.493 44.964,50.571 C44.963,49.568 44.957,48.567 44.968,47.565 C44.971,47.338 44.885,47.214 44.688,47.110 C41.342,45.341 38.901,42.747 37.435,39.292 ZM46.939,53.536 C46.966,54.531 47.576,55.121 48.582,55.138 C49.105,55.148 49.629,55.150 50.152,55.138 C50.386,55.132 50.464,55.216 50.461,55.442 C50.451,56.083 50.463,56.725 50.456,57.367 C50.453,57.627 50.567,57.735 50.829,57.734 C51.894,57.729 52.961,57.730 54.027,57.734 C54.311,57.734 54.434,57.619 54.428,57.330 C54.415,56.727 54.436,56.124 54.418,55.522 C54.410,55.237 54.488,55.117 54.798,55.136 C55.201,55.160 55.607,55.148 56.011,55.138 C57.053,55.114 57.660,54.519 57.681,53.491 C57.693,52.859 57.668,52.226 57.690,51.595 C57.700,51.296 57.597,51.214 57.300,51.217 C55.642,51.229 53.983,51.223 52.325,51.223 C50.638,51.223 48.949,51.227 47.261,51.219 C47.027,51.218 46.924,51.270 46.929,51.524 C46.944,52.194 46.923,52.865 46.939,53.536 ZM46.564,45.919 C46.834,46.036 46.951,46.178 46.942,46.484 C46.919,47.329 46.942,48.175 46.929,49.021 C46.925,49.272 46.999,49.360 47.264,49.358 C48.547,49.347 49.832,49.347 51.115,49.356 C51.383,49.358 51.472,49.280 51.469,49.006 C51.457,47.412 51.459,45.817 51.468,44.222 C51.469,44.006 51.397,43.858 51.245,43.713 C50.196,42.714 49.152,41.707 48.108,40.702 C47.669,40.280 47.226,39.865 46.799,39.434 C46.522,39.155 46.431,38.817 46.595,38.443 C46.765,38.056 47.097,37.861 47.533,37.861 C47.883,37.860 48.121,38.054 48.350,38.274 C49.634,39.511 50.921,40.743 52.199,41.987 C52.384,42.167 52.494,42.164 52.677,41.986 C53.707,40.980 54.748,39.985 55.786,38.987 C56.097,38.689 56.396,38.377 56.726,38.100 C57.284,37.633 58.085,37.851 58.315,38.524 C58.460,38.952 58.259,39.273 57.959,39.562 C56.523,40.939 55.093,42.320 53.654,43.694 C53.487,43.854 53.407,44.016 53.412,44.251 C53.426,45.029 53.417,45.807 53.417,46.585 C53.417,47.402 53.425,48.218 53.412,49.035 C53.409,49.274 53.484,49.358 53.731,49.356 C54.935,49.347 56.140,49.348 57.344,49.356 C57.600,49.358 57.693,49.273 57.688,49.018 C57.674,48.319 57.730,47.614 57.669,46.919 C57.618,46.354 57.852,46.131 58.347,45.900 C63.213,43.627 66.073,39.905 66.577,34.568 C66.846,31.717 66.126,29.059 64.558,26.661 C62.287,23.184 59.042,21.108 54.912,20.373 C53.152,20.058 51.393,20.088 49.643,20.419 C47.643,20.799 45.803,21.570 44.130,22.720 C39.677,25.784 37.417,31.094 38.530,36.272 C39.075,38.811 40.280,40.998 42.098,42.863 C43.377,44.177 44.871,45.191 46.564,45.919 ZM43.839,32.179 C43.669,32.663 43.164,32.908 42.642,32.774 C42.166,32.652 41.860,32.185 41.974,31.691 C42.459,29.600 43.528,27.842 45.148,26.417 C47.232,24.582 49.702,23.731 52.475,23.683 C53.588,23.711 54.679,23.848 55.740,24.185 C56.338,24.376 56.656,24.852 56.501,25.343 C56.333,25.883 55.786,26.165 55.197,25.978 C54.091,25.628 52.959,25.510 51.808,25.587 C48.437,25.811 45.338,27.905 44.149,31.208 C44.034,31.528 43.952,31.858 43.839,32.179 ZM103.998,63.201 L103.998,77.980 L87.845,77.980 L87.845,75.760 L51.829,75.760 C51.172,75.760 50.518,75.743 49.870,75.709 L16.155,75.709 L16.155,77.980 L0.001,77.980 L0.001,63.201 L16.155,63.201 L16.155,65.839 L26.408,65.839 C18.854,58.907 14.106,48.938 14.106,37.876 C14.106,32.304 15.293,26.954 17.606,21.953 L17.589,21.943 L17.701,21.747 C17.789,21.558 17.868,21.366 17.960,21.178 L18.010,21.203 L18.482,20.372 L22.182,22.494 L25.429,17.759 L26.913,18.786 L23.753,23.394 L27.015,25.265 L26.413,26.323 L26.455,26.342 C24.817,29.974 23.986,33.855 23.986,37.876 C23.986,53.295 36.476,65.839 51.829,65.839 L56.751,65.839 C69.823,63.497 79.673,51.489 79.673,37.876 C79.673,22.457 67.183,9.913 51.829,9.913 C46.972,9.913 42.191,11.186 38.003,13.598 L37.967,13.534 L37.261,14.007 L35.098,10.751 L32.273,13.392 L31.045,12.068 L34.085,9.226 L31.853,5.866 L33.009,5.092 L32.984,5.050 C38.688,1.741 45.205,-0.009 51.829,-0.009 C72.629,-0.009 89.551,16.986 89.551,37.876 C89.551,48.782 84.863,58.616 76.301,65.839 L87.845,65.839 L87.845,63.201 L103.998,63.201 ZM93.781,76.371 L102.396,76.371 L102.396,73.872 L93.781,73.872 L93.781,76.371 ZM93.781,72.263 L102.396,72.263 L102.396,68.990 L93.781,68.990 L93.781,72.263 ZM93.781,67.382 L102.396,67.382 L102.396,64.809 L93.781,64.809 L93.781,67.382 ZM89.447,76.371 L92.180,76.371 L92.180,64.809 L89.447,64.809 L89.447,76.371 ZM10.217,64.809 L1.602,64.809 L1.602,67.308 L10.217,67.308 L10.217,64.809 ZM10.217,68.917 L1.602,68.917 L1.602,72.190 L10.217,72.190 L10.217,68.917 ZM10.217,73.798 L1.602,73.798 L1.602,76.371 L10.217,76.371 L10.217,73.798 ZM14.553,64.809 L11.819,64.809 L11.819,76.371 L14.553,76.371 L14.553,64.809 ZM16.155,67.650 L16.155,74.000 L40.466,74.000 C36.069,72.602 32.022,70.410 28.483,67.599 L28.483,67.650 L16.155,67.650 ZM87.748,37.876 C87.748,17.984 71.635,1.802 51.829,1.802 C45.698,1.802 39.671,3.387 34.352,6.367 L37.850,11.632 C42.129,9.330 46.939,8.102 51.829,8.102 C68.176,8.102 81.476,21.459 81.476,37.876 C81.476,50.189 73.888,61.266 63.057,65.839 L73.405,65.839 C82.654,58.863 87.748,48.946 87.748,37.876 ZM51.829,67.650 C35.482,67.650 22.183,54.293 22.183,37.876 C22.183,33.740 23.018,29.746 24.648,25.992 L19.178,22.854 C17.018,27.575 15.909,32.621 15.909,37.876 C15.909,57.767 32.022,73.950 51.829,73.950 L87.845,73.950 L87.845,67.650 L51.829,67.650 Z"/>
</svg>