<svg 
 xmlns="http://www.w3.org/2000/svg"
 xmlns:xlink="http://www.w3.org/1999/xlink"
 width="60px" height="46px">
<path fill-rule="evenodd"  fill="rgb(255, 255, 255)"
 d="M21.698,23.160 C21.143,21.854 20.916,20.489 21.096,19.080 C21.526,15.718 23.381,13.380 26.469,11.968 C27.792,11.363 29.205,11.100 30.657,11.199 C34.334,11.452 37.062,13.160 38.684,16.455 C39.347,17.801 39.585,19.249 39.411,20.741 C39.043,23.901 37.367,26.182 34.549,27.679 C34.403,27.757 34.355,27.840 34.356,27.999 C34.363,29.097 34.366,30.194 34.357,31.291 C34.352,31.904 34.128,32.425 33.624,32.810 C33.361,33.011 33.065,33.151 32.742,33.203 C32.541,33.234 32.501,33.314 32.501,33.493 C32.501,33.965 32.319,34.355 31.872,34.565 C31.679,34.655 31.455,34.716 31.243,34.722 C30.580,34.741 29.915,34.734 29.252,34.728 C28.511,34.721 28.004,34.220 28.001,33.487 C28.000,33.319 27.952,33.262 27.782,33.241 C26.859,33.125 26.285,32.608 26.053,31.728 C26.005,31.548 25.996,31.355 25.993,31.168 C25.985,30.642 25.990,30.115 25.990,29.589 C25.990,29.017 25.986,28.447 25.992,27.876 C25.994,27.746 25.945,27.675 25.832,27.616 C23.925,26.608 22.534,25.129 21.698,23.160 ZM27.116,31.279 C27.131,31.846 27.479,32.182 28.052,32.192 C28.351,32.198 28.649,32.199 28.947,32.192 C29.081,32.189 29.125,32.237 29.123,32.365 C29.117,32.731 29.124,33.097 29.120,33.463 C29.119,33.611 29.184,33.672 29.333,33.672 C29.940,33.669 30.548,33.670 31.156,33.672 C31.318,33.672 31.388,33.606 31.384,33.442 C31.377,33.098 31.389,32.754 31.379,32.411 C31.374,32.248 31.418,32.180 31.596,32.191 C31.825,32.205 32.056,32.198 32.287,32.192 C32.880,32.178 33.227,31.839 33.238,31.253 C33.245,30.893 33.231,30.532 33.244,30.172 C33.249,30.002 33.191,29.956 33.022,29.957 C32.076,29.964 31.131,29.960 30.186,29.960 C29.224,29.960 28.261,29.963 27.299,29.958 C27.166,29.958 27.107,29.988 27.110,30.132 C27.119,30.514 27.106,30.897 27.116,31.279 ZM26.902,26.937 C27.056,27.004 27.122,27.085 27.117,27.259 C27.104,27.741 27.117,28.223 27.110,28.705 C27.108,28.849 27.150,28.899 27.301,28.897 C28.032,28.891 28.764,28.891 29.496,28.896 C29.649,28.898 29.699,28.853 29.698,28.697 C29.691,27.788 29.692,26.879 29.697,25.970 C29.698,25.847 29.656,25.763 29.570,25.680 C28.972,25.110 28.377,24.536 27.782,23.963 C27.532,23.723 27.279,23.487 27.036,23.241 C26.878,23.081 26.826,22.889 26.920,22.676 C27.017,22.455 27.206,22.344 27.455,22.344 C27.654,22.343 27.789,22.454 27.920,22.580 C28.652,23.284 29.386,23.987 30.114,24.696 C30.219,24.799 30.282,24.797 30.387,24.695 C30.973,24.122 31.567,23.555 32.159,22.986 C32.336,22.816 32.506,22.638 32.694,22.480 C33.013,22.214 33.469,22.339 33.600,22.722 C33.683,22.966 33.568,23.149 33.397,23.314 C32.579,24.098 31.764,24.886 30.944,25.669 C30.848,25.760 30.802,25.852 30.805,25.987 C30.813,26.430 30.808,26.873 30.808,27.317 C30.808,27.782 30.813,28.248 30.805,28.714 C30.804,28.850 30.846,28.898 30.987,28.896 C31.674,28.891 32.360,28.892 33.047,28.896 C33.193,28.898 33.245,28.849 33.242,28.704 C33.235,28.305 33.267,27.903 33.232,27.507 C33.203,27.185 33.336,27.058 33.618,26.926 C36.392,25.631 38.022,23.509 38.309,20.467 C38.463,18.842 38.053,17.327 37.159,15.960 C35.864,13.979 34.015,12.795 31.660,12.376 C30.657,12.197 29.654,12.213 28.657,12.402 C27.517,12.619 26.468,13.058 25.515,13.714 C22.976,15.460 21.688,18.487 22.323,21.439 C22.633,22.886 23.320,24.132 24.356,25.196 C25.085,25.944 25.937,26.522 26.902,26.937 ZM25.349,19.106 C25.252,19.381 24.964,19.521 24.666,19.445 C24.395,19.375 24.221,19.109 24.286,18.828 C24.562,17.636 25.172,16.633 26.095,15.821 C27.283,14.775 28.690,14.290 30.271,14.263 C30.906,14.279 31.528,14.357 32.132,14.549 C32.473,14.658 32.654,14.929 32.566,15.209 C32.470,15.517 32.159,15.678 31.823,15.571 C31.193,15.371 30.547,15.304 29.891,15.348 C27.969,15.476 26.203,16.670 25.525,18.552 C25.460,18.734 25.413,18.923 25.349,19.106 ZM59.639,36.788 L59.639,45.212 L50.432,45.212 L50.432,43.947 L29.903,43.947 C29.528,43.947 29.156,43.937 28.786,43.918 L9.569,43.918 L9.569,45.212 L0.361,45.212 L0.361,36.788 L9.569,36.788 L9.569,38.292 L15.413,38.292 C11.107,34.340 8.401,28.658 8.401,22.353 C8.401,19.177 9.077,16.127 10.396,13.277 L10.386,13.271 L10.450,13.159 C10.500,13.051 10.545,12.942 10.597,12.835 L10.626,12.849 L10.896,12.375 L13.004,13.585 L14.855,10.886 L15.701,11.471 L13.900,14.098 L15.759,15.165 L15.416,15.768 L15.440,15.779 C14.506,17.848 14.032,20.061 14.032,22.353 C14.032,31.142 21.152,38.292 29.903,38.292 L32.708,38.292 C40.160,36.956 45.774,30.112 45.774,22.353 C45.774,13.564 38.654,6.414 29.903,6.414 C27.134,6.414 24.409,7.140 22.022,8.514 L22.002,8.478 L21.599,8.747 L20.366,6.891 L18.756,8.397 L18.056,7.642 L19.789,6.022 L18.517,4.107 L19.175,3.666 L19.161,3.642 C22.413,1.756 26.127,0.758 29.903,0.758 C41.759,0.758 51.405,10.445 51.405,22.353 C51.405,28.570 48.732,34.175 43.852,38.292 L50.432,38.292 L50.432,36.788 L59.639,36.788 ZM53.816,44.295 L58.726,44.295 L58.726,42.870 L53.816,42.870 L53.816,44.295 ZM53.816,41.953 L58.726,41.953 L58.726,40.088 L53.816,40.088 L53.816,41.953 ZM53.816,39.171 L58.726,39.171 L58.726,37.705 L53.816,37.705 L53.816,39.171 ZM51.345,44.295 L52.903,44.295 L52.903,37.705 L51.345,37.705 L51.345,44.295 ZM6.184,37.705 L1.274,37.705 L1.274,39.129 L6.184,39.129 L6.184,37.705 ZM6.184,40.046 L1.274,40.046 L1.274,41.912 L6.184,41.912 L6.184,40.046 ZM6.184,42.828 L1.274,42.828 L1.274,44.295 L6.184,44.295 L6.184,42.828 ZM8.656,37.705 L7.097,37.705 L7.097,44.295 L8.656,44.295 L8.656,37.705 ZM9.569,39.324 L9.569,42.944 L23.426,42.944 C20.920,42.147 18.613,40.897 16.596,39.295 L16.596,39.324 L9.569,39.324 ZM50.377,22.353 C50.377,11.014 41.193,1.790 29.903,1.790 C26.408,1.790 22.973,2.694 19.941,4.392 L21.935,7.394 C24.374,6.081 27.116,5.381 29.903,5.381 C39.221,5.381 46.802,12.995 46.802,22.353 C46.802,29.371 42.477,35.685 36.303,38.292 L42.202,38.292 C47.473,34.315 50.377,28.663 50.377,22.353 ZM29.903,39.324 C20.586,39.324 13.005,31.710 13.005,22.353 C13.005,19.995 13.480,17.719 14.410,15.579 L11.292,13.790 C10.060,16.481 9.429,19.357 9.429,22.353 C9.429,33.691 18.613,42.915 29.903,42.915 L50.432,42.915 L50.432,39.324 L29.903,39.324 Z"/>
</svg>