<?xml version="1.0" encoding="utf-8"?>
<!-- Generator: Adobe Illustrator 21.0.2, SVG Export Plug-In . SVG Version: 6.00 Build 0)  -->
<svg version="1.1" id="Layer_1" xmlns="http://www.w3.org/2000/svg" xmlns:xlink="http://www.w3.org/1999/xlink" x="0px" y="0px"
	 viewBox="0 0 32 35" style="enable-background:new 0 0 32 35;" xml:space="preserve">
<g>
	<path d="M9.4,27.6c0-0.4,0-0.8,0.1-1.1c0.2-0.9,1.1-1.5,2.1-1.6c1.3,0,2.6,0,3.9,0c0.2,0,0.3-0.1,0.5-0.1c1.2-0.8,2.5-1.6,3.7-2.5
		c0.5-0.3,1-0.5,1.6-0.5c1.2,0,2.4,0,3.5,0c0.1,0,0.2,0,0.4,0c0-0.2,0-0.3,0-0.4c0-0.4,0.2-0.6,0.6-0.6c1.2,0,2.3,0,3.5,0
		c0.5,0,1,0,1.5,0c0.4,0,0.6,0.2,0.6,0.6c0,3.7,0,7.5,0,11.2c0,0.4-0.2,0.6-0.6,0.6c-1.7,0-3.3,0-5,0c-0.4,0-0.6-0.2-0.6-0.6
		c0-0.2,0-0.5,0-0.7c-0.1,0-0.2,0.1-0.3,0.1c-2.2,0.8-4.4,1.6-6.6,2.3c-1.8,0.6-3.6,0.6-5.3-0.1C9.2,32.6,5.4,31,1.7,29.4
		c-1.1-0.5-1.6-1.5-1.2-2.6c0.4-1,1.5-1.5,2.6-1.2c2,0.6,4,1.3,6.1,1.9C9.2,27.6,9.3,27.6,9.4,27.6z M19.5,29.5
		C19.4,29.5,19.4,29.6,19.5,29.5c-2.7,0-5.2,0-7.8,0c-0.5,0-0.9-0.2-1.3-0.4c-0.1-0.1-0.3-0.2-0.5-0.3c-1.6-0.5-3.1-1-4.7-1.5
		c-0.9-0.3-1.7-0.5-2.6-0.8c-0.4-0.1-0.8,0-1,0.4c-0.2,0.3-0.3,0.7-0.1,1c0.2,0.2,0.4,0.4,0.7,0.6c3.7,1.6,7.4,3.1,11.1,4.7
		c1.5,0.6,3.1,0.7,4.6,0.1c2.3-0.8,4.7-1.7,7-2.5c0.2-0.1,0.3-0.2,0.3-0.4c0-2.4,0-4.9,0-7.3c0-0.1,0-0.2,0-0.3c-1.3,0-2.6,0-3.8,0
		c-0.4,0-0.8,0.1-1.2,0.4c-1.2,0.8-2.5,1.6-3.7,2.5c-0.3,0.2-0.6,0.3-1,0.3c-1.3,0-2.6,0-3.8,0c-0.6,0-1.1,0.4-1.2,1
		c-0.1,0.8,0.6,1.6,1.4,1.6c2.4,0,4.9,0,7.3,0c0.1,0,0.2,0,0.4,0C19.5,28.9,19.5,29.2,19.5,29.5z M26.2,21.8c0,3.4,0,6.9,0,10.3
		c1.4,0,2.7,0,4.1,0c0-3.4,0-6.9,0-10.3C28.9,21.8,27.6,21.8,26.2,21.8z"/>
	<path d="M14.9,0.3c4.5,0,8.2,3.7,8.2,8.3c0,4.5-3.7,8.2-8.3,8.2c-4.6,0-8.3-3.7-8.3-8.3C6.6,3.9,10.3,0.3,14.9,0.3z M14.8,1.3
		c-3.9,0-7.2,3.2-7.2,7.1c0,4,3.2,7.3,7.1,7.3c4,0,7.3-3.2,7.3-7.2C22.1,4.6,18.8,1.3,14.8,1.3z"/>
	<path d="M21,18.4c0,0.7,0,1.3,0,2c-0.3,0-0.6,0-1,0c0-0.7,0-1.3,0-2C20.3,18.4,20.7,18.4,21,18.4z"/>
	<path d="M9.6,18.4c0,0.7,0,1.3,0,2c-0.3,0-0.6,0-1,0c0-0.7,0-1.3,0-2C9,18.4,9.3,18.4,9.6,18.4z"/>
	<path d="M15.3,19.9c0,0.5,0,2.9,0,3.4c-0.3,0-0.7,0-1,0c0-0.5,0-2.9,0-3.4C14.7,19.9,15,19.9,15.3,19.9z"/>
	<path d="M8.6,17.3c0-0.3,0-0.6,0-1c0.3,0,0.6,0,1,0c0,0.3,0,0.6,0,1C9.3,17.3,9,17.3,8.6,17.3z"/>
	<path d="M21,16.3c0,0.3,0,0.6,0,1c-0.3,0-0.6,0-1,0c0-0.3,0-0.6,0-1C20.3,16.3,20.6,16.3,21,16.3z"/>
	<path d="M15.3,18.8c-0.3,0-0.6,0-1,0c0-0.3,0-0.6,0-1c0.3,0,0.6,0,1,0C15.3,18.2,15.3,18.5,15.3,18.8z"/>
	<path d="M15.3,13.7c0,0.4,0,0.7,0,1.1c-0.3,0-0.7,0-1,0c0-0.3,0-0.7,0-1c-1.7-0.6-2.6-1.7-2.6-3.1c0.2,0,0.3,0,0.5,0
		c0.2,0,0.3,0,0.5,0c0.1,1,0.6,1.7,1.5,2c0-0.1,0-0.2,0-0.3c0-1.1,0-2.1,0-3.2c0-0.2-0.1-0.3-0.2-0.5C13.4,8.1,12.7,7.5,12,7
		c-0.2-0.2-0.3-0.4-0.3-0.6c0-1.3,1-2.4,2.2-2.8c0.1,0,0.2-0.1,0.4-0.1c0-0.3,0-0.7,0-1c0.3,0,0.7,0,1,0c0,0.3,0,0.7,0,1
		C17,3.9,18,5.1,17.9,6.4c-0.3,0-0.7,0-1,0c-0.1-1-0.6-1.6-1.5-2c0,0,0,0.1,0,0.1c0,1.2,0,2.3,0,3.5c0,0.1,0.1,0.3,0.2,0.3
		c0.7,0.6,1.4,1.1,2.1,1.7c0.3,0.2,0.3,0.4,0.3,0.8C17.8,12.2,16.9,13.3,15.3,13.7z M14.3,4.5c-0.6,0.2-1,0.5-1.3,0.9
		c-0.4,0.6-0.3,0.8,0.2,1.2c0.3,0.3,0.7,0.5,1.1,0.8C14.3,6.4,14.3,5.5,14.3,4.5z M15.4,12.6c0.7-0.2,1.4-0.8,1.5-1.6
		c0-0.1,0-0.2-0.1-0.2c-0.5-0.4-0.9-0.8-1.4-1.2C15.4,10.6,15.4,11.6,15.4,12.6z"/>
</g>
</svg>
