<svg 
 xmlns="http://www.w3.org/2000/svg"
 xmlns:xlink="http://www.w3.org/1999/xlink"
 width="27px" height="25px">
<path fill-rule="evenodd"  fill="rgb(0, 0, 0)"
 d="M25.705,20.658 C25.353,21.010 24.921,21.152 24.424,21.151 C20.706,21.145 16.989,21.148 13.272,21.148 C12.800,21.147 12.328,21.155 11.856,21.143 C11.679,21.139 11.604,21.199 11.537,21.365 C10.794,23.220 9.472,24.453 7.512,24.883 C5.416,25.344 3.664,24.638 2.259,23.061 C1.406,22.104 0.946,20.960 0.911,19.673 C0.866,17.967 1.526,16.550 2.771,15.402 C2.935,15.251 2.991,15.102 2.988,14.888 C2.977,14.093 3.005,13.297 2.979,12.502 C2.933,11.078 3.929,9.772 5.190,9.304 C5.370,9.237 5.426,9.158 5.424,8.971 C5.414,8.102 5.426,7.232 5.415,6.362 C5.409,5.851 5.563,5.405 5.875,5.006 C6.024,4.816 6.136,4.585 6.317,4.434 C6.507,4.275 6.747,4.144 6.986,4.078 C11.564,2.808 16.146,1.548 20.727,0.290 C21.752,0.009 22.753,0.700 22.962,1.806 C23.120,2.641 23.295,3.472 23.467,4.328 C23.790,4.328 24.079,4.328 24.369,4.329 C25.517,4.332 26.339,5.163 26.340,6.323 C26.340,7.881 26.340,9.438 26.340,10.995 C26.340,13.721 26.339,16.446 26.340,19.171 C26.340,19.759 26.113,20.249 25.705,20.658 ZM1.959,19.459 C1.939,22.001 3.851,23.946 6.379,23.955 C8.901,23.963 10.818,22.053 10.834,19.517 C10.850,16.980 8.929,15.037 6.400,15.032 C3.895,15.026 1.979,16.937 1.959,19.459 ZM21.823,1.679 C21.727,1.285 21.466,1.187 21.047,1.302 C18.090,2.116 15.133,2.932 12.175,3.746 C11.536,3.923 10.896,4.098 10.255,4.274 C10.258,4.287 10.260,4.300 10.262,4.314 C14.287,4.314 18.311,4.314 22.392,4.314 C22.201,3.417 22.034,2.542 21.823,1.679 ZM25.285,16.040 C25.159,16.040 25.062,16.040 24.965,16.040 C23.284,16.040 21.603,16.040 19.923,16.040 C19.460,16.039 19.269,15.857 19.269,15.396 C19.267,13.665 19.267,11.934 19.270,10.203 C19.271,9.710 19.451,9.537 19.953,9.537 C21.625,9.536 23.297,9.537 24.969,9.537 C25.066,9.537 25.163,9.537 25.271,9.537 C25.277,9.451 25.284,9.395 25.284,9.339 C25.285,8.320 25.290,7.301 25.283,6.282 C25.278,5.610 25.056,5.399 24.387,5.399 C20.455,5.400 16.523,5.400 12.590,5.400 C10.785,5.400 8.980,5.399 7.176,5.400 C6.787,5.401 6.599,5.550 6.512,5.928 C6.487,6.040 6.472,6.156 6.472,6.271 C6.468,7.141 6.469,8.011 6.470,8.880 C6.470,8.945 6.477,9.010 6.482,9.092 C7.391,9.112 8.166,9.442 8.801,10.078 C9.436,10.714 9.806,11.469 9.806,12.390 C9.435,12.390 9.101,12.390 8.765,12.390 C8.760,12.322 8.757,12.272 8.753,12.223 C8.690,11.266 8.105,10.493 7.200,10.263 C6.839,10.171 6.447,10.172 6.070,10.179 C5.092,10.199 4.191,10.945 4.100,11.914 C4.021,12.764 4.084,13.627 4.084,14.492 C5.984,13.644 7.836,13.778 9.542,15.019 C11.239,16.254 12.002,17.967 11.876,20.066 C11.934,20.071 11.966,20.076 11.999,20.076 C16.204,20.076 20.410,20.076 24.615,20.075 C24.959,20.074 25.178,19.895 25.242,19.558 C25.273,19.397 25.283,19.229 25.284,19.064 C25.288,18.161 25.285,17.258 25.285,16.355 C25.285,16.259 25.285,16.161 25.285,16.040 ZM25.251,14.962 C25.251,13.511 25.251,12.075 25.251,10.628 C23.594,10.628 21.969,10.628 20.343,10.628 C20.343,12.082 20.343,13.517 20.343,14.962 C21.985,14.962 23.611,14.962 25.251,14.962 ZM22.858,11.916 C23.193,11.938 23.464,12.219 23.544,12.627 C23.648,13.164 23.254,13.684 22.760,13.660 C22.361,13.641 22.059,13.266 22.058,12.788 C22.057,12.266 22.405,11.886 22.858,11.916 ZM7.776,18.567 C7.935,19.171 7.670,19.838 7.111,20.138 C6.907,20.247 6.861,20.370 6.866,20.579 C6.877,21.126 6.868,21.673 6.867,22.219 C6.867,22.235 6.860,22.251 6.849,22.304 C6.774,22.304 6.709,22.304 6.645,22.304 C6.415,22.304 6.184,22.304 5.922,22.304 C5.922,22.191 5.922,22.095 5.922,21.999 C5.921,21.560 5.911,21.120 5.925,20.682 C5.933,20.420 5.900,20.245 5.623,20.095 C5.076,19.798 4.852,19.102 5.033,18.497 C5.219,17.870 5.782,17.470 6.457,17.483 C7.080,17.496 7.608,17.930 7.776,18.567 Z"/>
</svg>