<svg 
 xmlns="http://www.w3.org/2000/svg"
 xmlns:xlink="http://www.w3.org/1999/xlink"
 width="31px" height="31px">
<path fill-rule="evenodd"  opacity="0.502" fill="rgb(235, 235, 235)"
 d="M29.908,25.101 C29.492,25.518 28.983,25.684 28.395,25.684 C24.005,25.677 19.614,25.680 15.223,25.680 C14.666,25.680 14.108,25.689 13.551,25.674 C13.342,25.669 13.253,25.740 13.174,25.937 C12.296,28.128 10.734,29.585 8.419,30.093 C5.943,30.636 3.875,29.802 2.215,27.940 C1.207,26.809 0.664,25.458 0.623,23.938 C0.569,21.923 1.349,20.250 2.819,18.893 C3.013,18.715 3.079,18.539 3.075,18.286 C3.063,17.347 3.095,16.407 3.065,15.468 C3.011,13.786 4.187,12.243 5.677,11.691 C5.890,11.612 5.955,11.518 5.953,11.298 C5.941,10.270 5.956,9.243 5.943,8.216 C5.935,7.612 6.117,7.085 6.485,6.614 C6.662,6.389 6.794,6.116 7.008,5.938 C7.233,5.750 7.516,5.596 7.798,5.517 C13.206,4.017 18.617,2.529 24.029,1.043 C25.239,0.711 26.422,1.527 26.669,2.834 C26.856,3.820 27.062,4.802 27.266,5.814 C27.647,5.814 27.988,5.813 28.330,5.814 C29.686,5.818 30.657,6.800 30.658,8.169 C30.659,10.009 30.658,11.848 30.658,13.688 C30.658,16.907 30.658,20.126 30.659,23.346 C30.659,24.039 30.391,24.618 29.908,25.101 ZM1.860,23.685 C1.836,26.688 4.095,28.985 7.081,28.995 C10.060,29.005 12.325,26.750 12.343,23.754 C12.362,20.757 10.093,18.462 7.106,18.456 C4.147,18.449 1.883,20.706 1.860,23.685 ZM25.323,2.683 C25.210,2.218 24.902,2.103 24.407,2.239 C20.914,3.201 17.421,4.163 13.928,5.126 C13.172,5.334 12.416,5.541 11.660,5.749 C11.663,5.765 11.665,5.780 11.668,5.796 C16.422,5.796 21.175,5.796 25.996,5.796 C25.771,4.737 25.573,3.704 25.323,2.683 ZM29.413,19.647 C29.264,19.647 29.149,19.647 29.034,19.647 C27.049,19.647 25.064,19.647 23.079,19.646 C22.532,19.646 22.307,19.430 22.306,18.886 C22.304,16.841 22.304,14.797 22.308,12.752 C22.309,12.170 22.522,11.966 23.114,11.966 C25.089,11.965 27.065,11.965 29.040,11.965 C29.154,11.965 29.268,11.965 29.396,11.965 C29.403,11.864 29.412,11.798 29.412,11.732 C29.412,10.528 29.418,9.325 29.410,8.121 C29.404,7.328 29.141,7.078 28.352,7.078 C23.707,7.079 19.062,7.078 14.418,7.079 C12.286,7.079 10.154,7.078 8.022,7.080 C7.563,7.080 7.341,7.256 7.238,7.703 C7.208,7.835 7.191,7.973 7.191,8.108 C7.186,9.135 7.187,10.163 7.188,11.190 C7.188,11.267 7.197,11.343 7.203,11.440 C8.277,11.464 9.192,11.853 9.942,12.604 C10.692,13.356 11.129,14.247 11.129,15.335 C10.691,15.335 10.296,15.335 9.899,15.335 C9.893,15.255 9.890,15.197 9.886,15.138 C9.811,14.008 9.120,13.095 8.051,12.823 C7.625,12.715 7.161,12.715 6.716,12.724 C5.561,12.747 4.496,13.629 4.389,14.773 C4.296,15.777 4.370,16.797 4.370,17.818 C6.614,16.817 8.802,16.975 10.817,18.441 C12.822,19.899 13.723,21.923 13.575,24.402 C13.642,24.408 13.681,24.414 13.719,24.414 C18.687,24.414 23.654,24.414 28.622,24.412 C29.028,24.412 29.286,24.200 29.362,23.802 C29.398,23.611 29.411,23.414 29.411,23.219 C29.416,22.152 29.413,21.086 29.413,20.019 C29.413,19.905 29.413,19.790 29.413,19.647 ZM29.372,18.373 C29.372,16.659 29.372,14.963 29.372,13.254 C27.415,13.254 25.496,13.254 23.575,13.254 C23.575,14.972 23.575,16.667 23.575,18.373 C25.514,18.373 27.435,18.373 29.372,18.373 ZM26.546,14.775 C26.942,14.801 27.262,15.133 27.356,15.615 C27.479,16.250 27.014,16.864 26.430,16.836 C25.958,16.813 25.602,16.371 25.601,15.806 C25.600,15.188 26.011,14.740 26.546,14.775 ZM8.731,22.631 C8.919,23.345 8.606,24.133 7.946,24.487 C7.705,24.616 7.650,24.762 7.656,25.009 C7.670,25.654 7.659,26.300 7.657,26.946 C7.657,26.965 7.650,26.983 7.636,27.046 C7.548,27.046 7.472,27.046 7.395,27.046 C7.123,27.046 6.851,27.046 6.541,27.046 C6.541,26.912 6.541,26.799 6.541,26.685 C6.541,26.167 6.528,25.648 6.545,25.130 C6.555,24.820 6.515,24.614 6.189,24.437 C5.542,24.085 5.277,23.264 5.491,22.548 C5.712,21.808 6.376,21.335 7.173,21.352 C7.909,21.366 8.532,21.879 8.731,22.631 Z"/>
</svg>