<svg 
 xmlns="http://www.w3.org/2000/svg"
 xmlns:xlink="http://www.w3.org/1999/xlink"
 width="30px" height="31px">
<path fill-rule="evenodd"  fill="rgb(107, 107, 107)"
 d="M18.392,28.561 C20.476,28.463 22.513,28.231 24.250,26.931 C25.356,26.104 25.944,24.971 26.075,23.542 C25.592,23.542 25.125,23.547 24.657,23.540 C23.952,23.530 23.375,23.057 23.225,22.369 C23.200,22.254 23.196,22.134 23.196,22.017 C23.194,19.312 23.194,16.607 23.195,13.902 C23.195,12.935 23.811,12.322 24.781,12.321 C25.201,12.321 25.621,12.321 26.097,12.321 C25.847,8.754 24.431,5.818 21.525,3.788 C17.664,1.089 13.542,0.881 9.443,3.171 C5.949,5.122 4.230,8.295 3.904,12.321 C4.360,12.321 4.768,12.321 5.176,12.322 C6.223,12.322 6.816,12.920 6.816,13.969 C6.816,16.624 6.816,19.280 6.817,21.935 C6.817,22.927 6.205,23.549 5.227,23.542 C4.433,23.537 3.635,23.575 2.846,23.505 C1.270,23.367 0.031,21.989 0.016,20.396 C-0.000,18.777 0.002,17.158 0.015,15.539 C0.028,13.930 1.130,12.649 2.721,12.369 C2.870,12.343 2.930,12.290 2.946,12.127 C3.427,6.992 6.040,3.364 10.782,1.483 C14.886,-0.145 18.806,0.544 22.325,3.209 C24.742,5.039 26.244,7.500 26.855,10.490 C26.963,11.019 27.010,11.562 27.063,12.101 C27.080,12.270 27.131,12.338 27.297,12.369 C28.927,12.665 29.997,13.960 29.999,15.634 C30.000,17.154 30.000,18.674 29.999,20.195 C29.998,21.927 28.947,23.190 27.249,23.514 C27.180,23.527 27.081,23.619 27.072,23.685 C26.724,26.394 25.039,27.935 22.627,28.828 C21.319,29.313 19.953,29.507 18.565,29.541 C18.353,29.546 18.239,29.611 18.128,29.796 C17.725,30.472 17.126,30.833 16.332,30.835 C15.430,30.837 14.527,30.842 13.625,30.833 C12.657,30.823 11.821,30.116 11.642,29.173 C11.434,28.080 12.361,26.953 13.544,26.913 C14.514,26.880 15.487,26.887 16.457,26.912 C17.371,26.935 18.031,27.509 18.392,28.561 ZM5.821,17.938 C5.821,16.566 5.822,15.195 5.820,13.823 C5.819,13.404 5.737,13.324 5.317,13.324 C4.641,13.323 3.964,13.348 3.289,13.323 C1.971,13.276 1.035,14.109 1.014,15.442 C0.988,17.109 0.991,18.777 1.013,20.445 C1.029,21.628 1.761,22.425 2.927,22.511 C3.718,22.569 4.515,22.535 5.308,22.538 C5.749,22.540 5.820,22.465 5.820,22.023 C5.820,20.661 5.820,19.300 5.821,17.938 ZM24.190,17.921 C24.190,19.273 24.190,20.625 24.190,21.977 C24.190,22.478 24.251,22.543 24.746,22.540 C25.393,22.538 26.042,22.492 26.686,22.529 C28.013,22.604 28.976,21.775 28.997,20.431 C29.023,18.774 29.020,17.115 28.998,15.457 C28.980,14.165 28.104,13.318 26.856,13.323 C26.150,13.326 25.444,13.324 24.739,13.323 C24.262,13.323 24.190,13.394 24.190,13.865 C24.191,15.217 24.190,16.569 24.190,17.921 ZM14.998,29.834 C15.281,29.834 15.565,29.838 15.849,29.832 C16.132,29.826 16.417,29.827 16.697,29.792 C17.040,29.749 17.270,29.537 17.357,29.202 C17.557,28.429 17.169,27.917 16.377,27.910 C15.466,27.902 14.556,27.905 13.646,27.908 C13.519,27.908 13.391,27.921 13.267,27.948 C12.955,28.018 12.746,28.213 12.654,28.520 C12.435,29.248 12.833,29.811 13.588,29.831 C14.058,29.844 14.528,29.833 14.998,29.834 Z"/>
</svg>