<svg 
 xmlns="http://www.w3.org/2000/svg"
 xmlns:xlink="http://www.w3.org/1999/xlink"
 width="32px" height="30px">
<path fill-rule="evenodd"  fill="rgb(107, 107, 107)"
 d="M31.006,10.115 L28.872,12.231 C29.096,12.608 29.233,13.044 29.233,13.514 C29.233,14.683 28.435,15.659 27.362,15.943 L27.362,19.420 C27.362,19.420 27.362,19.420 27.362,19.420 L27.362,20.898 C27.361,22.238 26.453,23.174 25.154,23.174 L12.464,23.174 L9.277,26.791 C9.324,26.984 9.356,27.183 9.356,27.390 C9.356,28.780 8.234,29.910 6.855,29.910 C5.585,29.910 4.544,28.947 4.386,27.709 L0.698,26.088 C0.378,25.948 0.232,25.573 0.372,25.252 C0.511,24.930 0.882,24.782 1.202,24.923 L4.557,26.398 C4.941,25.501 5.826,24.870 6.855,24.870 C7.547,24.870 8.173,25.155 8.627,25.614 L10.777,23.174 L3.972,23.174 C2.221,23.174 0.797,21.739 0.797,19.975 L0.794,3.175 C0.794,2.244 1.205,1.540 1.985,1.142 C2.254,1.004 2.587,0.928 2.921,0.927 C5.921,0.918 8.922,0.920 11.922,0.922 C13.104,0.922 14.017,1.847 14.048,3.072 C14.071,4.006 14.563,4.684 15.399,4.932 C15.542,4.974 15.717,4.995 15.937,4.996 C16.960,4.998 17.983,4.998 19.006,4.998 L21.974,5.001 C22.579,5.003 23.154,5.283 23.550,5.767 C23.949,6.255 24.118,6.884 24.019,7.503 L24.019,8.660 C24.408,8.660 24.797,8.660 25.186,8.660 C26.466,8.661 27.361,9.596 27.362,10.934 L27.362,11.085 C27.579,11.142 27.783,11.229 27.972,11.339 L30.122,9.209 C30.370,8.963 30.770,8.966 31.014,9.216 C31.258,9.466 31.255,9.869 31.006,10.115 ZM6.855,26.141 C6.171,26.141 5.616,26.701 5.616,27.390 C5.616,28.078 6.171,28.639 6.855,28.639 C7.538,28.639 8.094,28.078 8.094,27.390 C8.094,26.701 7.538,26.141 6.855,26.141 ZM25.154,21.902 C25.755,21.902 26.099,21.536 26.100,20.897 L26.100,18.212 C26.100,18.212 26.100,18.211 26.100,18.211 L26.101,15.943 C25.980,15.911 25.860,15.878 25.747,15.829 L21.854,19.674 C21.733,19.794 21.573,19.856 21.412,19.856 C21.294,19.856 21.175,19.822 21.070,19.754 L18.864,18.317 C18.473,19.197 17.600,19.813 16.583,19.813 C16.235,19.813 15.905,19.741 15.603,19.611 L13.584,21.903 L25.154,21.902 ZM17.822,17.293 C17.822,16.605 17.267,16.045 16.583,16.045 C15.900,16.045 15.344,16.605 15.344,17.293 C15.344,17.982 15.900,18.542 16.583,18.542 C17.267,18.542 17.822,17.982 17.822,17.293 ZM22.576,6.576 C22.420,6.384 22.198,6.274 21.970,6.273 L19.007,6.270 C17.982,6.273 16.957,6.271 15.933,6.267 C15.592,6.266 15.301,6.228 15.043,6.151 C13.687,5.749 12.823,4.581 12.786,3.103 C12.773,2.576 12.409,2.194 11.921,2.193 C10.692,2.192 9.462,2.191 8.232,2.191 C6.463,2.191 4.694,2.193 2.925,2.198 C2.788,2.199 2.650,2.228 2.555,2.276 C2.205,2.455 2.056,2.724 2.056,3.175 L2.059,19.975 C2.059,21.038 2.917,21.903 3.972,21.903 C5.027,21.903 5.886,21.038 5.886,19.975 L5.885,19.699 L5.886,10.876 C5.887,9.811 6.527,8.963 7.517,8.716 C7.712,8.667 7.899,8.661 8.072,8.661 C12.967,8.659 17.862,8.657 22.757,8.660 L22.757,7.448 C22.757,7.408 22.761,7.368 22.769,7.329 C22.820,7.062 22.749,6.788 22.576,6.576 ZM26.100,10.935 C26.099,10.298 25.766,9.932 25.185,9.932 C24.588,9.932 23.991,9.931 23.394,9.931 C23.390,9.931 23.386,9.931 23.382,9.931 C18.279,9.931 13.175,9.931 8.072,9.932 C7.978,9.932 7.883,9.934 7.820,9.950 C7.400,10.055 7.148,10.401 7.148,10.876 L7.147,19.697 L7.147,19.972 C7.147,20.700 6.896,21.364 6.489,21.903 L11.897,21.903 L14.610,18.823 C14.284,18.398 14.082,17.871 14.082,17.293 C14.082,15.904 15.204,14.773 16.583,14.773 C17.836,14.773 18.867,15.710 19.047,16.923 L21.331,18.410 L24.750,15.034 C24.429,14.610 24.230,14.087 24.230,13.514 C24.230,12.346 25.028,11.370 26.100,11.086 L26.100,10.935 ZM26.732,12.265 C26.048,12.265 25.492,12.825 25.492,13.514 C25.492,14.203 26.048,14.763 26.732,14.763 C27.415,14.763 27.971,14.203 27.971,13.514 C27.971,12.825 27.415,12.265 26.732,12.265 ZM29.259,3.958 L30.385,5.093 C30.631,5.341 30.631,5.744 30.385,5.992 C30.262,6.115 30.100,6.178 29.939,6.178 C29.777,6.178 29.616,6.115 29.493,5.991 L28.366,4.856 C28.120,4.608 28.120,4.206 28.367,3.957 C28.613,3.710 29.012,3.709 29.259,3.958 ZM29.326,3.114 C29.202,3.238 29.041,3.300 28.879,3.300 C28.718,3.300 28.556,3.238 28.433,3.114 C28.187,2.865 28.187,2.463 28.433,2.214 L29.493,1.147 C29.739,0.899 30.138,0.899 30.385,1.147 C30.631,1.396 30.631,1.798 30.385,2.046 L29.326,3.114 ZM26.448,5.991 C26.325,6.115 26.163,6.178 26.002,6.178 C25.840,6.178 25.679,6.115 25.556,5.992 C25.309,5.744 25.309,5.341 25.556,5.093 L26.681,3.958 C26.928,3.709 27.328,3.710 27.574,3.957 C27.820,4.206 27.820,4.608 27.574,4.856 L26.448,5.991 ZM27.061,3.300 C26.900,3.300 26.738,3.238 26.615,3.114 L25.556,2.046 C25.309,1.798 25.309,1.396 25.556,1.147 C25.802,0.899 26.201,0.899 26.448,1.147 L27.508,2.214 C27.754,2.463 27.754,2.865 27.508,3.114 C27.384,3.238 27.223,3.300 27.061,3.300 Z"/>
</svg>