<svg 
 xmlns="http://www.w3.org/2000/svg"
 xmlns:xlink="http://www.w3.org/1999/xlink"
 width="28px" height="35px">
<path fill-rule="evenodd"  fill="rgb(234, 247, 62)"
 d="M27.166,14.590 C26.634,19.136 24.212,22.418 20.140,24.572 C19.929,24.684 19.860,24.804 19.861,25.033 C19.871,26.612 19.875,28.191 19.863,29.770 C19.856,30.652 19.532,31.401 18.804,31.955 C18.424,32.244 17.996,32.446 17.529,32.520 C17.238,32.565 17.181,32.680 17.181,32.938 C17.181,33.617 16.918,34.178 16.271,34.480 C15.993,34.610 15.669,34.697 15.363,34.706 C14.405,34.734 13.444,34.723 12.485,34.715 C11.415,34.705 10.682,33.984 10.678,32.929 C10.677,32.688 10.607,32.606 10.361,32.575 C9.028,32.408 8.198,31.665 7.863,30.398 C7.794,30.139 7.780,29.862 7.776,29.592 C7.764,28.835 7.772,28.077 7.772,27.320 C7.771,26.498 7.766,25.677 7.775,24.855 C7.777,24.669 7.707,24.567 7.544,24.482 C4.788,23.031 2.778,20.903 1.570,18.070 C0.768,16.190 0.440,14.226 0.700,12.199 C1.321,7.362 4.002,3.998 8.464,1.966 C10.375,1.095 12.418,0.717 14.516,0.860 C19.829,1.223 23.772,3.681 26.115,8.422 C27.073,10.359 27.417,12.442 27.166,14.590 ZM9.399,29.752 C9.421,30.568 9.923,31.052 10.752,31.066 C11.183,31.074 11.614,31.076 12.045,31.066 C12.238,31.061 12.302,31.130 12.299,31.315 C12.291,31.841 12.301,32.368 12.295,32.894 C12.293,33.107 12.387,33.196 12.602,33.195 C13.480,33.191 14.359,33.192 15.237,33.195 C15.471,33.195 15.572,33.101 15.567,32.864 C15.556,32.369 15.574,31.875 15.559,31.381 C15.552,31.147 15.616,31.049 15.872,31.064 C16.204,31.084 16.538,31.074 16.871,31.066 C17.729,31.046 18.229,30.558 18.246,29.715 C18.256,29.197 18.236,28.678 18.254,28.160 C18.262,27.915 18.177,27.848 17.933,27.850 C16.567,27.860 15.201,27.855 13.835,27.855 C12.445,27.855 11.054,27.858 9.664,27.852 C9.471,27.851 9.386,27.894 9.390,28.102 C9.403,28.651 9.385,29.202 9.399,29.752 ZM23.911,7.710 C22.040,4.859 19.368,3.156 15.966,2.553 C14.516,2.295 13.067,2.319 11.626,2.591 C9.978,2.902 8.463,3.535 7.085,4.478 C3.417,6.991 1.555,11.346 2.472,15.593 C2.921,17.675 3.913,19.469 5.411,20.999 C6.464,22.076 7.695,22.908 9.089,23.505 C9.312,23.601 9.408,23.717 9.401,23.968 C9.382,24.661 9.401,25.355 9.390,26.049 C9.387,26.255 9.448,26.327 9.666,26.325 C10.723,26.316 11.781,26.316 12.838,26.324 C13.059,26.326 13.132,26.261 13.130,26.037 C13.120,24.729 13.122,23.421 13.129,22.113 C13.130,21.936 13.070,21.815 12.945,21.696 C12.081,20.876 11.221,20.050 10.361,19.226 C10.000,18.880 9.635,18.540 9.283,18.186 C9.055,17.957 8.980,17.680 9.115,17.373 C9.255,17.056 9.529,16.896 9.888,16.896 C10.176,16.895 10.372,17.054 10.561,17.235 C11.618,18.249 12.679,19.260 13.731,20.280 C13.883,20.428 13.974,20.425 14.125,20.279 C14.973,19.454 15.831,18.638 16.686,17.820 C16.942,17.575 17.188,17.319 17.460,17.092 C17.920,16.709 18.579,16.888 18.768,17.440 C18.888,17.791 18.722,18.054 18.475,18.291 C17.293,19.420 16.115,20.553 14.930,21.680 C14.792,21.811 14.726,21.944 14.730,22.137 C14.742,22.775 14.734,23.413 14.734,24.051 C14.734,24.721 14.741,25.391 14.730,26.061 C14.728,26.257 14.789,26.326 14.993,26.324 C15.985,26.316 16.977,26.317 17.969,26.324 C18.180,26.326 18.256,26.256 18.252,26.047 C18.241,25.473 18.287,24.895 18.237,24.325 C18.195,23.862 18.387,23.679 18.795,23.489 C22.803,21.625 25.159,18.572 25.574,14.195 C25.796,11.857 25.203,9.677 23.911,7.710 ZM16.200,7.150 C15.290,6.863 14.357,6.766 13.409,6.829 C10.632,7.013 8.080,8.731 7.100,11.440 C7.006,11.702 6.938,11.973 6.845,12.236 C6.705,12.633 6.289,12.834 5.859,12.724 C5.467,12.624 5.215,12.241 5.309,11.836 C5.708,10.121 6.589,8.679 7.923,7.510 C9.640,6.005 11.674,5.307 13.958,5.268 C14.875,5.291 15.774,5.403 16.648,5.680 C17.140,5.836 17.402,6.227 17.275,6.629 C17.136,7.072 16.686,7.304 16.200,7.150 Z"/>
</svg>