<?xml version="1.0" encoding="utf-8"?>
<!-- Generator: Adobe Illustrator 21.0.2, SVG Export Plug-In . SVG Version: 6.00 Build 0)  -->
<svg version="1.1" id="Layer_1" xmlns="http://www.w3.org/2000/svg" xmlns:xlink="http://www.w3.org/1999/xlink" x="0px" y="0px"
	 viewBox="0 0 94.3 24.9" style="enable-background:new 0 0 94.3 24.9;" xml:space="preserve">
<style type="text/css">
	.st0{clip-path:url(#SVGID_2_);fill:#FFFFFF;}
	.st1{clip-path:url(#SVGID_2_);fill:#6078BA;}
	.st2{fill:#E5E544;}
</style>
<g>
	<g>
		<defs>
			<rect id="SVGID_1_" x="1.6" y="1.3" width="88" height="22.6"/>
		</defs>
		<clipPath id="SVGID_2_">
			<use xlink:href="#SVGID_1_"  style="overflow:visible;"/>
		</clipPath>
		<path class="st0" d="M79.2,15.1l2.6,2.9c0.2,0,0.4,0,0.6,0c0.2,0,0.4,0,0.6,0l-2-2.1l-4.4-4.8c0.6-0.6,1-1,1.4-1.4l4.3-4.1
			c-0.2,0-0.4,0-0.6,0c-0.2,0-0.4,0-0.6,0c-0.3,0.3-0.5,0.6-0.7,0.8c-0.2,0.2-0.3,0.3-0.5,0.5l-1,1l-3.3,3.2L79.2,15.1z M74.8,18
			c0.1,0,0.3,0,0.5,0l0-2.7l0.4-11.6l0.1-2.4c-0.2,0-0.4,0-0.5,0c-0.1,0-0.3,0-0.5,0c0,1.2,0,2.8-0.1,4.9l-0.2,6.2
			c-0.1,2-0.2,3.9-0.3,5.6C74.6,18,74.7,18,74.8,18 M60.5,18c0.1,0,0.3,0,0.5,0c0-1.1,0-2.4,0.1-3.9c0.1-1.6,0.1-2.7,0.2-3.4
			c0.1-0.8,0.3-1.4,0.5-1.8c0.3-0.6,0.6-1.1,1-1.5s0.9-0.7,1.5-0.9c0.6-0.2,1.3-0.3,2.1-0.3c0.6,0,1.1,0.1,1.6,0.2
			c0.5,0.1,1,0.3,1.3,0.6c0.4,0.3,0.6,0.6,0.8,1.1c0.2,0.4,0.2,0.9,0.2,1.4c0,0.5,0,1.3-0.1,2.5L70,15.1c0,0.9-0.1,1.9-0.2,2.9
			c0.2,0,0.3,0,0.5,0c0.2,0,0.3,0,0.5,0l0-2l0.3-5.6c0-0.5,0-0.9,0-1.1c0-0.6-0.1-1.1-0.2-1.6c-0.2-0.5-0.5-0.9-0.9-1.3
			c-0.4-0.4-1-0.6-1.6-0.8c-0.6-0.2-1.3-0.2-2-0.2c-0.4,0-0.8,0-1.2,0.1c-0.4,0.1-0.8,0.2-1.2,0.3c-0.4,0.1-0.7,0.3-1,0.5
			c-0.3,0.2-0.5,0.4-0.7,0.6c-0.2,0.2-0.4,0.4-0.5,0.6c-0.1,0.2-0.3,0.5-0.4,0.9l0.2-2.8c-0.2,0-0.4,0-0.5,0c-0.1,0-0.3,0-0.5,0
			c0,0.3,0,0.7,0,1.4l-0.1,3.5L60,18C60.2,18,60.4,18,60.5,18 M49.6,6.4c0.4-0.1,0.8-0.2,1.3-0.3c0.5-0.1,1.1-0.1,1.7-0.1
			c0.5,0,1,0,1.5,0.1c0.5,0.1,0.9,0.2,1.2,0.5c0.3,0.2,0.5,0.5,0.7,0.7c0.1,0.3,0.2,0.5,0.2,0.8c0,0.4-0.1,0.8-0.4,1.1
			c-0.3,0.4-0.6,0.7-1.1,0.9c-0.5,0.2-1,0.4-1.5,0.5c-1.2,0.3-1.8,0.5-2,0.5c-0.6,0.2-1.2,0.4-1.7,0.6c-0.5,0.2-0.9,0.4-1.3,0.7
			c-0.3,0.2-0.6,0.4-0.8,0.7c-0.2,0.3-0.4,0.6-0.5,0.9c-0.1,0.3-0.2,0.7-0.2,1c0,0.4,0.1,0.9,0.3,1.3c0.2,0.4,0.5,0.8,0.9,1.1
			c0.4,0.3,0.9,0.5,1.5,0.6c0.6,0.1,1.2,0.2,1.9,0.2c0.4,0,0.8,0,1.2-0.1c0.4,0,0.9-0.1,1.6-0.3c0-0.3,0.1-0.6,0.2-0.9
			c-0.5,0.2-0.9,0.3-1.2,0.3c-0.3,0.1-0.6,0.1-0.9,0.1c-0.3,0-0.6,0.1-1,0.1c-0.7,0-1.3-0.1-1.8-0.2c-0.5-0.2-0.9-0.4-1.2-0.8
			c-0.3-0.4-0.5-0.8-0.5-1.4c0-0.3,0.1-0.7,0.2-1c0.1-0.3,0.3-0.5,0.5-0.7c0.3-0.3,0.6-0.5,1-0.7c0.4-0.2,0.9-0.4,1.6-0.6
			c0.3-0.1,0.8-0.2,1.5-0.4c0.7-0.2,1.2-0.3,1.4-0.4c0.2-0.1,0.4-0.1,0.6-0.2c0.2-0.1,0.4-0.2,0.6-0.3c0.2-0.1,0.3-0.2,0.4-0.3
			c0.1-0.1,0.3-0.3,0.6-0.5c0,0.8-0.1,1.6-0.1,2.5c0,0.9-0.1,1.7-0.1,2.5c0,0.8-0.1,1.8-0.2,3c0.2,0,0.4,0,0.5,0c0.1,0,0.3,0,0.5,0
			v-1c0-0.5,0-1.2,0.1-2.3c0-1.1,0.1-2,0.1-2.7c0-0.7,0.1-1.4,0.1-2c0-0.6,0-1.1,0-1.5c0-0.4-0.1-0.8-0.2-1.2
			c-0.1-0.4-0.4-0.7-0.8-1c-0.4-0.3-0.9-0.5-1.5-0.6c-0.6-0.1-1.3-0.2-2-0.2c-0.6,0-1.2,0-1.9,0.1c-0.6,0.1-1.3,0.2-2.2,0.5
			c0,0.4-0.1,0.7-0.1,1C48.8,6.7,49.3,6.6,49.6,6.4 M37.1,6.2c0.7-0.1,1.3-0.2,1.9-0.2c1,0,1.8,0.2,2.6,0.5c0.7,0.4,1.3,0.9,1.7,1.7
			c0.4,0.8,0.7,1.8,0.7,2.9c0,0.8-0.1,1.6-0.3,2.4c-0.2,0.8-0.5,1.5-1,2.1c-0.4,0.6-1,1-1.6,1.3c-0.6,0.3-1.3,0.4-2.1,0.4
			c-0.7,0-1.4-0.1-2-0.4c-0.6-0.3-1.1-0.7-1.5-1.2c-0.4-0.5-0.6-1.1-0.8-1.8c-0.1-0.7-0.2-1.4-0.2-2.3c0-0.7,0-1.2,0-1.7
			c0-0.5,0.1-1.6,0.1-3.2C35.7,6.5,36.5,6.3,37.1,6.2 M34,18c0.1,0,0.3,0,0.5,0l0-3c0.1,0.4,0.3,0.8,0.4,1c0.1,0.3,0.3,0.5,0.6,0.8
			c0.2,0.3,0.5,0.5,0.9,0.7c0.4,0.2,0.8,0.4,1.2,0.5c0.5,0.1,1,0.2,1.5,0.2c0.9,0,1.7-0.2,2.4-0.5c0.7-0.3,1.4-0.8,1.9-1.5
			c0.5-0.7,0.9-1.4,1.1-2.3c0.2-0.9,0.4-1.7,0.4-2.6c0-0.8-0.1-1.6-0.3-2.3c-0.2-0.7-0.6-1.4-1.1-2c-0.5-0.6-1.1-1-1.9-1.3
			c-0.8-0.3-1.7-0.4-2.7-0.4c-0.6,0-1.2,0-1.8,0.1c-0.6,0.1-1.4,0.2-2.3,0.5L34.9,4c0-0.9,0.1-1.8,0.2-2.7c-0.2,0-0.4,0-0.5,0
			c-0.1,0-0.3,0-0.5,0l-0.1,5.4l-0.3,10.1L33.5,18C33.7,18,33.9,18,34,18"/>
		<path class="st1" d="M21.4,23.9c0.3,0,0.7,0,1-0.1c0.3-0.1,0.6-0.2,0.8-0.3c0.2-0.1,0.4-0.2,0.6-0.4c0.2-0.2,0.4-0.4,0.7-0.7
			c0.3-0.4,0.6-0.9,0.9-1.7l2.3-5l2.4-5.1c1.1-2.3,1.8-3.9,2.2-4.8c-0.2,0-0.4,0-0.6,0c-0.1,0-0.3,0-0.6,0c-0.2,0.6-0.4,1-0.5,1.4
			c-0.1,0.3-0.4,0.9-0.7,1.7l-3.9,8.6l-2.8-7.9C23,8.6,22.8,8,22.6,7.5c-0.1-0.3-0.2-0.7-0.3-1l-0.2-0.9c-0.2,0-0.4,0-0.6,0
			c-0.2,0-0.3,0-0.6,0l1.9,5.2l2.7,7.5c-0.6,1.3-1,2.3-1.5,3c-0.4,0.7-0.8,1.2-1.2,1.4c-0.4,0.2-0.8,0.4-1.3,0.4
			c-0.2,0-0.4,0-0.6-0.1c-0.2,0-0.4-0.1-0.6-0.1c-0.2-0.1-0.4-0.1-0.6-0.3c0,0.4,0.1,0.7,0.1,1C20.3,23.8,20.9,23.9,21.4,23.9 M2,18
			c0.1,0,0.3,0,0.5,0c0-1.3,0-2.8,0.1-4.6C2.7,11.8,2.8,10.6,3,10c0.2-0.7,0.4-1.3,0.6-1.8c0.2-0.4,0.6-0.8,0.9-1.1
			c0.4-0.3,0.8-0.5,1.2-0.7c0.5-0.2,0.9-0.3,1.4-0.3c0.5,0,0.9,0.1,1.3,0.2c0.4,0.1,0.7,0.3,1,0.6C9.7,7.2,9.8,7.5,10,7.8
			c0.1,0.3,0.2,0.8,0.2,1.4c0,0.6,0,1.5-0.1,2.4l-0.1,3.1c0,1.1-0.1,2.2-0.2,3.3c0.2,0,0.4,0,0.5,0c0.1,0,0.3,0,0.5,0l0.1-4.9
			c0-1.6,0.1-2.7,0.3-3.3c0.1-0.7,0.3-1.3,0.6-1.7c0.2-0.4,0.5-0.8,0.9-1.1c0.4-0.3,0.8-0.5,1.2-0.7c0.4-0.2,0.9-0.2,1.5-0.2
			c0.4,0,0.7,0,1,0.1c0.3,0.1,0.6,0.2,0.8,0.3c0.2,0.1,0.4,0.3,0.6,0.5c0.2,0.2,0.3,0.4,0.4,0.6c0.1,0.2,0.1,0.4,0.2,0.6
			c0,0.2,0,0.5,0,0.7c0,0.5,0,1.2-0.1,2.1L18,14.4c-0.1,1.4-0.1,2.6-0.2,3.6c0.2,0,0.4,0,0.5,0c0.1,0,0.3,0,0.5,0c0-1.2,0-2.5,0.1-4
			c0.1-1.5,0.1-2.6,0.2-3.5c0.1-0.8,0.1-1.4,0.1-1.8c0-0.7-0.2-1.3-0.5-1.8c-0.3-0.5-0.8-0.9-1.4-1.1c-0.6-0.2-1.2-0.3-1.9-0.3
			c-0.4,0-0.9,0.1-1.3,0.2c-0.4,0.1-0.8,0.3-1.1,0.4c-0.3,0.2-0.6,0.4-0.9,0.6c-0.2,0.2-0.4,0.5-0.6,0.7c-0.1,0.2-0.3,0.5-0.5,0.8
			c-0.1-0.4-0.2-0.7-0.3-0.9c-0.1-0.2-0.2-0.4-0.4-0.7C10.1,6.3,9.8,6.1,9.5,6c-0.3-0.2-0.6-0.3-1-0.4C8.1,5.4,7.7,5.4,7.3,5.4
			c-0.5,0-1,0.1-1.5,0.2C5.3,5.7,4.9,6,4.5,6.2C4.1,6.5,3.8,6.7,3.6,7C3.4,7.3,3.2,7.7,2.9,8.2L3,5.6c-0.2,0-0.3,0-0.5,0
			c-0.2,0-0.3,0-0.5,0c0,0.4,0,0.9,0,1.5l-0.3,8.1c0,0.3,0,0.7-0.1,1L1.6,18C1.8,18,1.9,18,2,18"/>
	</g>
	<polygon class="st2" points="28.2,21.3 27.3,23.3 89.6,21.5 89.6,21.3 	"/>
</g>
</svg>
