<svg 
 xmlns="http://www.w3.org/2000/svg"
 xmlns:xlink="http://www.w3.org/1999/xlink"
 width="30px" height="30px">
<path fill-rule="evenodd"  fill="rgb(107, 107, 107)"
 d="M29.364,29.997 C23.404,29.998 17.443,29.998 11.483,29.998 C7.902,29.998 4.322,29.999 0.742,29.997 C0.160,29.997 0.037,29.864 0.037,29.269 C0.037,28.226 0.069,27.181 0.028,26.138 C-0.017,24.956 0.164,23.809 0.400,22.659 C0.958,19.952 1.491,17.240 2.031,14.529 C2.054,14.414 2.049,14.292 2.049,14.173 C2.050,11.668 2.049,9.162 2.050,6.657 C2.050,6.165 2.195,6.018 2.682,6.018 C3.453,6.017 4.223,6.018 5.031,6.018 C5.031,5.516 5.029,5.069 5.031,4.622 C5.033,4.197 5.203,4.021 5.625,4.020 C7.192,4.017 8.759,4.017 10.325,4.019 C10.858,4.020 10.986,4.158 10.985,4.698 C10.985,5.124 10.985,5.550 10.985,5.996 C13.337,5.996 15.652,5.996 18.000,5.996 C18.000,5.330 18.000,4.663 18.000,3.965 C17.878,3.965 17.771,3.965 17.664,3.965 C17.000,3.965 16.335,3.965 15.671,3.964 C15.185,3.964 15.029,3.810 15.028,3.329 C15.027,2.424 15.027,1.519 15.028,0.615 C15.028,0.193 15.200,0.004 15.615,0.004 C18.204,-0.000 20.793,0.000 23.381,0.003 C23.797,0.004 23.981,0.192 23.983,0.606 C23.987,1.530 23.988,2.455 23.984,3.379 C23.983,3.790 23.795,3.965 23.374,3.966 C22.670,3.967 21.966,3.973 21.262,3.961 C21.043,3.957 20.962,4.025 20.966,4.248 C20.976,4.822 20.969,5.396 20.969,5.999 C21.109,6.006 21.213,6.016 21.318,6.016 C23.312,6.016 25.305,6.016 27.299,6.016 C27.819,6.016 27.976,6.171 27.976,6.684 C27.975,9.199 27.946,11.715 27.992,14.229 C28.006,14.962 28.220,15.694 28.363,16.422 C28.865,18.969 29.395,21.510 29.870,24.062 C29.987,24.688 29.953,25.344 29.960,25.987 C29.972,27.120 29.962,28.253 29.961,29.387 C29.960,29.855 29.823,29.997 29.364,29.997 ZM10.006,5.000 C8.662,5.000 7.341,5.000 6.010,5.000 C6.010,6.670 6.010,8.317 6.010,9.997 C7.359,9.997 8.680,9.997 10.006,9.997 C10.006,8.317 10.006,6.657 10.006,5.000 ZM22.742,3.024 C22.866,3.024 23.016,3.054 23.015,2.850 C23.015,2.237 23.015,1.624 23.015,1.017 C22.957,0.997 22.930,0.980 22.903,0.979 C20.664,0.976 18.424,0.976 16.185,0.970 C16.001,0.970 15.973,1.064 15.974,1.212 C15.977,1.698 15.986,2.185 15.970,2.671 C15.961,2.938 16.041,3.034 16.321,3.031 C17.530,3.017 18.739,3.025 19.947,3.025 C20.879,3.025 21.810,3.026 22.742,3.024 ZM19.015,3.985 C19.015,4.671 19.015,5.336 19.015,6.002 C19.356,6.002 19.669,6.002 20.002,6.002 C20.002,5.309 20.002,4.652 20.002,3.985 C19.658,3.985 19.338,3.985 19.015,3.985 ZM27.028,7.390 C27.028,6.960 27.030,6.962 26.611,6.962 C24.062,6.963 21.512,6.962 18.963,6.962 C16.414,6.962 13.865,6.964 11.316,6.958 C11.085,6.957 10.975,7.004 10.979,7.266 C10.993,8.111 10.984,8.957 10.987,9.802 C10.987,9.867 11.010,9.932 11.026,10.017 C11.197,10.017 11.355,10.005 11.512,10.019 C11.875,10.053 12.087,10.395 11.940,10.705 C11.830,10.936 11.621,10.977 11.390,10.977 C9.863,10.979 8.335,10.983 6.808,10.984 C6.104,10.985 5.400,10.980 4.696,10.982 C4.269,10.983 4.054,10.825 4.055,10.497 C4.055,10.180 4.261,10.020 4.670,10.016 C4.777,10.015 4.884,10.016 5.031,10.016 L4.787,6.963 C4.301,6.964 3.814,6.977 3.329,6.956 C3.049,6.944 2.979,7.046 2.981,7.315 C2.991,9.413 2.987,11.511 2.988,13.609 C2.989,14.022 2.991,14.022 3.409,14.022 C11.165,14.022 18.922,14.020 26.678,14.028 C26.978,14.028 27.035,13.930 27.034,13.654 C27.023,11.566 27.027,9.478 27.028,7.390 ZM28.878,23.848 C28.307,20.982 27.733,18.116 27.166,15.249 C27.125,15.038 27.030,14.988 26.826,14.988 C18.961,14.993 11.096,14.993 3.231,14.987 C2.993,14.987 2.894,15.040 2.844,15.298 C2.364,17.767 1.865,20.234 1.372,22.701 C1.286,23.133 1.202,23.565 1.113,24.021 C10.392,24.021 19.623,24.021 28.879,24.021 C28.879,23.946 28.887,23.895 28.878,23.848 ZM28.992,25.024 C19.655,25.024 10.341,25.024 1.023,25.024 C1.023,26.371 1.023,27.690 1.023,29.025 C10.369,29.025 19.678,29.025 28.992,29.025 C28.992,27.678 28.992,26.353 28.992,25.024 ZM14.997,26.057 C15.546,26.054 15.966,26.460 15.973,27.000 C15.981,27.554 15.558,27.997 15.015,28.004 C14.485,28.011 14.020,27.548 14.026,27.019 C14.032,26.482 14.459,26.059 14.997,26.057 ZM4.509,17.048 C4.781,17.045 4.990,17.239 4.999,17.502 C5.007,17.751 4.787,17.979 4.531,17.984 C4.265,17.989 4.059,17.791 4.052,17.522 C4.044,17.243 4.229,17.051 4.509,17.048 ZM4.522,19.043 C4.776,19.044 5.001,19.267 4.999,19.516 C4.997,19.764 4.767,19.991 4.518,19.991 C4.257,19.990 4.052,19.779 4.053,19.513 C4.055,19.238 4.251,19.041 4.522,19.043 ZM4.512,21.050 C4.780,21.048 4.995,21.251 4.999,21.509 C5.002,21.765 4.790,21.978 4.527,21.983 C4.254,21.988 4.059,21.799 4.054,21.524 C4.050,21.250 4.241,21.052 4.512,21.050 ZM7.509,21.049 C7.780,21.045 7.978,21.239 7.981,21.511 C7.984,21.788 7.795,21.981 7.521,21.983 C7.246,21.984 7.049,21.793 7.047,21.523 C7.045,21.250 7.237,21.052 7.509,21.049 ZM7.524,19.993 C7.271,20.001 7.054,19.786 7.049,19.524 C7.044,19.249 7.233,19.050 7.505,19.044 C7.773,19.039 7.980,19.238 7.983,19.505 C7.986,19.769 7.784,19.984 7.524,19.993 ZM12.033,19.041 C12.287,19.056 12.500,19.284 12.491,19.531 C12.481,19.780 12.249,19.998 12.002,19.990 C11.751,19.982 11.529,19.759 11.529,19.513 C11.528,19.253 11.771,19.026 12.033,19.041 ZM12.004,21.050 C12.271,21.046 12.486,21.249 12.490,21.509 C12.495,21.766 12.281,21.980 12.017,21.983 C11.748,21.985 11.537,21.785 11.532,21.524 C11.528,21.265 11.738,21.054 12.004,21.050 ZM15.027,17.049 C15.297,17.055 15.488,17.259 15.478,17.530 C15.468,17.795 15.256,17.992 14.990,17.983 C14.723,17.973 14.534,17.767 14.543,17.494 C14.552,17.218 14.744,17.042 15.027,17.049 ZM15.004,19.044 C15.271,19.042 15.476,19.243 15.478,19.510 C15.480,19.768 15.269,19.986 15.012,19.989 C14.746,19.992 14.547,19.792 14.544,19.519 C14.542,19.242 14.731,19.047 15.004,19.044 ZM15.009,21.050 C15.281,21.052 15.481,21.250 15.480,21.517 C15.478,21.784 15.276,21.984 15.008,21.984 C14.736,21.985 14.545,21.791 14.544,21.515 C14.544,21.236 14.732,21.049 15.009,21.050 ZM18.017,19.040 C18.287,19.051 18.473,19.253 18.468,19.529 C18.463,19.795 18.247,20.004 17.990,19.991 C17.734,19.979 17.521,19.752 17.527,19.499 C17.534,19.243 17.761,19.029 18.017,19.040 ZM17.990,21.050 C18.267,21.041 18.461,21.225 18.466,21.503 C18.472,21.781 18.287,21.978 18.015,21.983 C17.746,21.988 17.535,21.792 17.528,21.529 C17.521,21.267 17.722,21.059 17.990,21.050 ZM22.503,19.041 C22.759,19.039 22.976,19.256 22.975,19.515 C22.975,19.771 22.756,19.990 22.501,19.989 C22.236,19.988 22.036,19.783 22.038,19.513 C22.039,19.239 22.231,19.044 22.503,19.041 ZM22.503,21.050 C22.775,21.051 22.976,21.250 22.975,21.517 C22.974,21.782 22.771,21.982 22.502,21.983 C22.225,21.983 22.039,21.796 22.039,21.516 C22.039,21.238 22.227,21.049 22.503,21.050 ZM22.507,17.984 C22.239,17.987 22.043,17.791 22.039,17.516 C22.035,17.234 22.215,17.051 22.498,17.050 C22.773,17.049 22.973,17.240 22.976,17.508 C22.979,17.765 22.766,17.981 22.507,17.984 ZM25.477,21.049 C25.752,21.040 25.951,21.225 25.960,21.498 C25.970,21.778 25.787,21.977 25.515,21.984 C25.243,21.990 25.036,21.800 25.024,21.534 C25.013,21.268 25.210,21.057 25.477,21.049 ZM25.493,19.989 C25.238,19.989 25.025,19.771 25.025,19.511 C25.026,19.248 25.236,19.041 25.500,19.044 C25.773,19.047 25.964,19.243 25.961,19.517 C25.957,19.789 25.758,19.989 25.493,19.989 ZM25.486,17.982 C25.219,17.976 25.020,17.768 25.025,17.502 C25.030,17.230 25.226,17.046 25.505,17.050 C25.787,17.054 25.964,17.238 25.960,17.522 C25.955,17.795 25.755,17.989 25.486,17.982 ZM18.014,17.983 C17.753,17.988 17.536,17.783 17.528,17.523 C17.521,17.257 17.719,17.055 17.992,17.050 C18.275,17.045 18.464,17.224 18.467,17.500 C18.470,17.778 18.282,17.978 18.014,17.983 ZM12.027,17.983 C11.769,17.993 11.544,17.786 11.533,17.528 C11.521,17.267 11.724,17.057 11.995,17.050 C12.270,17.043 12.482,17.234 12.490,17.495 C12.498,17.747 12.283,17.973 12.027,17.983 ZM7.512,17.982 C7.243,17.982 7.048,17.784 7.049,17.510 C7.049,17.234 7.237,17.049 7.518,17.050 C7.800,17.051 7.983,17.234 7.981,17.514 C7.980,17.785 7.781,17.983 7.512,17.982 ZM25.377,12.974 C23.414,12.976 21.452,12.975 19.490,12.975 C17.547,12.974 15.604,12.975 13.662,12.974 C13.180,12.974 13.046,12.843 13.045,12.357 C13.042,11.105 13.042,9.854 13.044,8.602 C13.044,8.175 13.189,8.032 13.615,8.032 C17.520,8.030 21.425,8.030 25.329,8.030 C25.836,8.030 25.965,8.161 25.965,8.660 C25.964,9.902 25.966,11.143 25.962,12.385 C25.961,12.831 25.817,12.974 25.377,12.974 ZM25.023,9.368 C25.023,9.251 25.023,9.135 25.023,8.997 C21.319,8.997 17.668,8.997 14.014,8.997 C14.014,10.015 14.014,11.011 14.014,12.036 C14.197,12.036 14.353,12.036 14.510,12.036 C16.066,12.036 17.622,12.036 19.177,12.036 C21.020,12.036 22.864,12.032 24.707,12.040 C24.949,12.041 25.033,11.973 25.029,11.722 C25.015,10.938 25.023,10.153 25.023,9.368 ZM7.495,8.034 C7.672,8.025 7.850,8.033 8.028,8.033 C8.196,8.033 8.364,8.026 8.531,8.035 C8.796,8.048 8.980,8.233 8.989,8.482 C8.998,8.724 8.814,8.955 8.564,8.968 C8.200,8.985 7.833,8.986 7.469,8.968 C7.210,8.955 7.042,8.741 7.047,8.486 C7.052,8.230 7.226,8.048 7.495,8.034 ZM8.530,6.959 C8.353,6.969 8.175,6.961 7.997,6.961 L7.997,6.959 C7.830,6.959 7.662,6.967 7.494,6.958 C7.225,6.943 7.054,6.763 7.049,6.505 C7.044,6.250 7.213,6.037 7.472,6.024 C7.826,6.006 8.182,6.008 8.537,6.022 C8.805,6.033 9.000,6.261 8.990,6.512 C8.981,6.760 8.798,6.944 8.530,6.959 Z"/>
</svg>