<svg 
 xmlns="http://www.w3.org/2000/svg"
 xmlns:xlink="http://www.w3.org/1999/xlink"
 width="30px" height="30px">
<path fill-rule="evenodd"  fill="rgb(107, 107, 107)"
 d="M29.606,28.007 C20.853,28.008 12.100,28.008 3.347,28.008 C2.797,28.008 2.797,28.007 2.798,28.570 C2.798,29.023 2.798,29.476 2.798,29.970 C2.528,29.970 2.296,29.994 2.073,29.957 C2.001,29.945 1.909,29.778 1.905,29.678 C1.888,29.263 1.904,28.847 1.902,28.432 C1.900,28.065 1.841,28.008 1.479,28.007 C1.006,28.006 0.533,28.007 0.017,28.007 C0.017,27.718 -0.001,27.467 0.030,27.223 C0.038,27.159 0.198,27.072 0.291,27.069 C0.685,27.053 1.080,27.067 1.474,27.066 C1.844,27.065 1.903,27.007 1.903,26.647 C1.902,18.609 1.901,10.571 1.907,2.533 C1.907,2.388 1.958,2.141 2.039,2.116 C2.240,2.054 2.473,2.083 2.691,2.101 C2.734,2.105 2.789,2.222 2.801,2.294 C2.820,2.402 2.807,2.516 2.807,2.628 C2.807,10.635 2.806,18.642 2.806,26.650 C2.806,27.035 2.847,27.067 3.323,27.067 C3.748,27.066 3.784,27.035 3.784,26.663 C3.784,24.838 3.783,23.014 3.782,21.190 C3.782,20.810 3.804,20.784 4.168,20.784 C5.767,20.784 7.366,20.784 8.964,20.784 C9.333,20.784 9.363,20.816 9.363,21.181 C9.362,22.996 9.358,24.810 9.368,26.624 C9.369,26.763 9.449,27.007 9.525,27.021 C9.763,27.064 10.020,27.038 10.263,26.995 C10.308,26.987 10.343,26.782 10.343,26.667 C10.347,23.262 10.346,19.856 10.345,16.450 C10.345,16.379 10.348,16.308 10.344,16.238 C10.330,15.996 10.422,15.902 10.682,15.904 C12.291,15.915 13.900,15.911 15.509,15.910 C15.888,15.910 15.918,15.937 15.919,16.328 C15.919,18.315 15.919,20.302 15.918,22.288 C15.918,23.738 15.918,25.187 15.918,26.637 C15.917,27.040 15.951,27.067 16.451,27.066 C16.873,27.066 16.903,27.040 16.902,26.656 C16.902,21.578 16.903,16.500 16.895,11.422 C16.895,11.153 16.981,11.069 17.244,11.071 C18.873,11.079 20.502,11.080 22.131,11.071 C22.415,11.069 22.490,11.176 22.489,11.450 C22.482,16.518 22.483,21.585 22.482,26.653 C22.482,27.002 22.538,27.058 22.885,27.066 C22.986,27.068 23.103,27.098 23.184,27.058 C23.290,27.005 23.384,26.905 23.450,26.804 C23.487,26.747 23.457,26.647 23.457,26.566 C23.457,19.916 23.457,13.267 23.451,6.618 C23.450,6.321 23.557,6.237 23.843,6.239 C25.442,6.250 27.041,6.244 28.640,6.244 C29.003,6.244 29.040,6.283 29.040,6.643 C29.040,13.303 29.039,19.962 29.038,26.621 C29.038,27.003 29.088,27.059 29.439,27.066 C29.999,27.078 29.999,27.078 30.000,27.636 C30.000,27.737 30.000,27.837 30.000,27.981 C29.845,27.992 29.726,28.007 29.606,28.007 ZM8.478,24.407 C8.478,24.407 8.477,24.407 8.477,24.407 C8.477,23.647 8.476,22.888 8.477,22.128 C8.477,21.792 8.405,21.712 8.070,21.711 C7.069,21.709 6.068,21.714 5.067,21.707 C4.809,21.706 4.698,21.817 4.698,22.070 C4.700,23.620 4.701,25.169 4.697,26.718 C4.697,26.959 4.797,27.070 5.042,27.069 C6.063,27.064 7.084,27.064 8.105,27.068 C8.372,27.069 8.486,26.962 8.482,26.685 C8.471,25.926 8.478,25.166 8.478,24.407 ZM15.028,17.278 C15.028,16.918 14.965,16.860 14.596,16.860 C13.646,16.859 12.695,16.861 11.744,16.860 C11.293,16.860 11.255,16.894 11.255,17.338 C11.254,18.877 11.255,20.417 11.254,21.957 C11.254,23.527 11.257,25.098 11.251,26.668 C11.250,26.924 11.318,27.071 11.607,27.069 C12.628,27.063 13.650,27.065 14.671,27.068 C14.926,27.069 15.034,26.958 15.033,26.700 C15.029,23.559 15.030,20.419 15.028,17.278 ZM21.608,19.557 C21.608,17.185 21.608,14.814 21.608,12.443 C21.608,12.087 21.558,12.028 21.213,12.027 C20.201,12.024 19.190,12.030 18.178,12.023 C17.917,12.021 17.820,12.124 17.821,12.384 C17.825,17.147 17.825,21.910 17.821,26.673 C17.820,26.955 17.917,27.074 18.211,27.071 C19.202,27.060 20.193,27.068 21.185,27.066 C21.548,27.065 21.608,27.002 21.608,26.641 C21.608,24.279 21.608,21.918 21.608,19.557 ZM28.163,7.611 C28.163,7.218 28.098,7.155 27.701,7.155 C26.760,7.154 25.818,7.156 24.877,7.155 C24.417,7.154 24.380,7.190 24.379,7.657 C24.379,10.809 24.379,13.962 24.380,17.114 C24.380,17.844 24.380,18.574 24.380,19.304 C24.380,21.747 24.379,24.190 24.379,26.633 C24.379,27.006 24.427,27.065 24.756,27.066 C25.758,27.068 26.760,27.069 27.762,27.065 C28.100,27.064 28.164,26.995 28.164,26.648 C28.164,20.303 28.164,13.957 28.163,7.611 ZM25.864,4.266 C25.795,4.257 25.723,4.264 25.652,4.265 C25.436,4.271 25.338,4.166 25.340,3.951 C25.345,3.545 25.348,3.140 25.340,2.734 C25.338,2.642 25.302,2.479 25.260,2.472 C25.167,2.456 25.042,2.492 24.962,2.550 C23.520,3.612 22.086,4.683 20.646,5.747 C16.701,8.664 12.753,11.577 8.807,14.492 C8.075,15.033 7.341,15.573 6.616,16.124 C6.438,16.259 6.333,16.216 6.217,16.058 C5.839,15.544 5.831,15.537 6.351,15.152 C8.618,13.470 10.888,11.793 13.158,10.115 C16.079,7.957 19.000,5.799 21.921,3.641 C22.759,3.022 23.600,2.406 24.436,1.784 C24.511,1.729 24.626,1.615 24.609,1.573 C24.574,1.486 24.475,1.399 24.383,1.365 C23.977,1.212 23.564,1.078 23.153,0.939 C23.115,0.926 23.072,0.924 23.036,0.908 C22.848,0.827 22.870,0.429 23.114,0.048 C23.147,-0.004 23.329,0.004 23.426,0.036 C23.904,0.194 24.376,0.372 24.852,0.538 C25.252,0.678 25.660,0.797 26.050,0.960 C26.143,0.999 26.224,1.175 26.230,1.292 C26.250,1.737 26.238,2.184 26.238,2.630 C26.238,3.056 26.228,3.482 26.242,3.907 C26.251,4.188 26.140,4.302 25.864,4.266 Z"/>
</svg>