<svg 
 xmlns="http://www.w3.org/2000/svg"
 xmlns:xlink="http://www.w3.org/1999/xlink"
 width="32px" height="32px">
<path fill-rule="evenodd"  fill="rgb(107, 107, 107)"
 d="M31.049,31.762 L1.300,31.762 C0.950,31.762 0.666,31.478 0.666,31.128 L0.666,1.379 C0.666,1.029 0.950,0.745 1.300,0.745 L31.049,0.745 C31.399,0.745 31.683,1.029 31.683,1.379 L31.683,31.128 C31.683,31.478 31.399,31.762 31.049,31.762 ZM30.415,2.014 L1.934,2.014 L1.934,30.493 L30.415,30.493 L30.415,2.014 ZM7.018,21.606 L23.799,21.606 L19.616,17.422 C19.369,17.174 19.369,16.774 19.616,16.526 C19.864,16.278 20.265,16.278 20.513,16.526 L25.778,21.791 L25.778,21.792 L25.779,21.792 C25.779,21.792 25.779,21.793 25.780,21.793 C25.837,21.851 25.883,21.921 25.915,21.997 C25.979,22.153 25.979,22.327 25.915,22.483 C25.883,22.559 25.837,22.629 25.780,22.687 C25.779,22.687 25.779,22.688 25.778,22.688 L25.778,22.688 L25.778,22.689 L20.513,27.953 C20.389,28.077 20.227,28.139 20.064,28.139 C19.902,28.139 19.740,28.077 19.616,27.953 C19.369,27.705 19.369,27.305 19.616,27.057 L23.799,22.874 L7.018,22.874 C6.668,22.874 6.384,22.591 6.384,22.240 C6.384,21.889 6.668,21.606 7.018,21.606 ZM25.330,10.761 L8.549,10.761 L12.732,14.944 C12.980,15.192 12.980,15.593 12.732,15.841 C12.608,15.965 12.446,16.027 12.284,16.027 C12.122,16.027 11.959,15.965 11.835,15.841 L6.570,10.575 C6.570,10.575 6.570,10.575 6.570,10.575 L6.569,10.575 C6.569,10.575 6.569,10.574 6.569,10.573 C6.511,10.515 6.465,10.446 6.433,10.369 C6.369,10.214 6.369,10.039 6.433,9.884 C6.465,9.807 6.511,9.738 6.569,9.680 C6.569,9.680 6.570,9.678 6.570,9.678 L6.570,9.678 L6.570,9.678 L11.835,4.413 C12.083,4.165 12.484,4.165 12.732,4.413 C12.980,4.661 12.980,5.062 12.732,5.310 L8.549,9.492 L25.330,9.492 C25.680,9.492 25.964,9.776 25.964,10.127 C25.964,10.477 25.680,10.761 25.330,10.761 Z"/>
</svg>