<?xml version="1.0" encoding="utf-8"?>
<!-- Generator: Adobe Illustrator 16.0.2, SVG Export Plug-In . SVG Version: 6.00 Build 0)  -->
<!DOCTYPE svg PUBLIC "-//W3C//DTD SVG 1.1 Basic//EN" "http://www.w3.org/Graphics/SVG/1.1/DTD/svg11-basic.dtd">
<svg version="1.1" baseProfile="basic" id="Layer_1"
	 xmlns="http://www.w3.org/2000/svg" xmlns:xlink="http://www.w3.org/1999/xlink" x="0px" y="0px" width="396.52px"
	 height="101.836px" viewBox="0 0 396.52 101.836" xml:space="preserve">
<path fill="#FFFFFF" d="M350.035,62.08l11.61,13.059c0.882-0.036,1.819-0.056,2.813-0.056c0.92,0,1.839,0.02,2.758,0.056
	l-8.91-9.366l-19.913-21.543c2.565-2.565,4.729-4.655,6.489-6.268l19.417-18.42c-0.881,0.037-1.816,0.055-2.807,0.055
	s-1.943-0.018-2.86-0.055c-1.395,1.503-2.45,2.64-3.166,3.409c-0.716,0.77-1.44,1.54-2.175,2.31l-4.679,4.618l-14.974,14.351
	L350.035,62.08z M330.198,75.083c0.484,0,1.227,0.02,2.232,0.056l0.215-12l1.776-52.129l0.647-11.01
	c-0.955,0.037-1.707,0.055-2.258,0.055c-0.552,0-1.305-0.018-2.259-0.055c0,5.212-0.146,12.57-0.439,22.074l-0.88,28.019
	c-0.33,9.175-0.733,17.524-1.21,25.046C328.99,75.103,329.715,75.083,330.198,75.083 M265.438,75.083
	c0.513,0,1.248,0.02,2.203,0.056c0-4.845,0.136-10.763,0.409-17.754c0.273-6.99,0.629-12.026,1.065-15.109
	c0.477-3.559,1.174-6.33,2.091-8.312c1.21-2.715,2.77-4.963,4.677-6.743s4.126-3.128,6.658-4.046
	c2.677-0.954,5.759-1.431,9.244-1.431c2.494,0,4.915,0.284,7.263,0.853c2.349,0.569,4.374,1.486,6.08,2.752s2.907,2.854,3.604,4.762
	c0.696,1.908,1.046,4.073,1.046,6.495c0,2.312-0.146,6.074-0.437,11.285l-0.762,14.092c-0.217,4.183-0.507,8.568-0.87,13.156
	c0.698-0.036,1.396-0.056,2.095-0.056s1.414,0.02,2.15,0.056l0.219-8.974l1.152-25.046c0.109-2.238,0.164-3.926,0.164-5.064
	c0-2.532-0.359-4.908-1.074-7.129c-0.716-2.22-2.028-4.183-3.938-5.89c-1.909-1.706-4.315-2.908-7.215-3.605
	c-2.902-0.697-5.895-1.046-8.979-1.046c-1.837,0-3.691,0.137-5.563,0.413c-1.874,0.275-3.701,0.715-5.481,1.321
	c-1.781,0.605-3.305,1.358-4.571,2.257c-1.267,0.899-2.359,1.863-3.276,2.89c-0.919,1.028-1.645,1.991-2.177,2.89
	s-1.202,2.211-2.011,3.936l0.742-12.551c-0.955,0.037-1.653,0.055-2.094,0.055c-0.479,0-1.193-0.018-2.148-0.055
	c0,1.285-0.037,3.34-0.109,6.165l-0.495,15.799l-1.869,33.633C264.188,75.103,264.923,75.083,265.438,75.083 M216.549,23.201
	c1.614-0.458,3.595-0.861,5.941-1.211c2.346-0.348,4.859-0.523,7.536-0.523c2.311,0,4.511,0.203,6.601,0.606
	c2.09,0.404,3.841,1.12,5.253,2.147c1.412,1.028,2.393,2.119,2.943,3.275c0.55,1.156,0.825,2.359,0.825,3.606
	c0,1.722-0.587,3.418-1.76,5.085c-1.175,1.668-2.825,2.97-4.952,3.904c-2.127,0.935-4.382,1.714-6.767,2.337
	c-5.28,1.356-8.307,2.144-9.078,2.364c-2.787,0.807-5.391,1.686-7.811,2.639c-2.091,0.807-3.999,1.796-5.723,2.969
	c-1.468,0.953-2.641,1.979-3.521,3.078c-1.063,1.319-1.853,2.703-2.366,4.15c-0.514,1.448-0.77,2.942-0.77,4.481
	c0,2.016,0.421,3.94,1.266,5.772c0.844,1.833,2.147,3.446,3.908,4.839c1.762,1.394,3.945,2.327,6.551,2.804s5.45,0.715,8.532,0.715
	c1.652,0,3.404-0.083,5.257-0.248c1.854-0.165,4.267-0.542,7.239-1.128c0.22-1.395,0.495-2.789,0.825-4.184
	c-2.386,0.771-4.211,1.294-5.478,1.568c-1.266,0.275-2.613,0.496-4.046,0.661c-1.431,0.165-2.917,0.247-4.458,0.247
	c-3.083,0-5.717-0.357-7.899-1.071c-2.184-0.714-3.99-1.951-5.423-3.71c-1.431-1.758-2.146-3.828-2.146-6.21
	c0-1.576,0.294-3.059,0.881-4.452c0.514-1.172,1.321-2.289,2.422-3.353c1.247-1.208,2.808-2.307,4.678-3.297
	c1.726-0.915,4.165-1.886,7.322-2.912c1.395-0.44,3.714-1.1,6.962-1.979s5.293-1.456,6.139-1.731
	c0.844-0.274,1.77-0.604,2.778-0.989c1.009-0.385,1.871-0.761,2.587-1.127c0.717-0.366,1.376-0.778,1.982-1.237
	c0.604-0.457,1.477-1.163,2.614-2.116c-0.221,3.487-0.395,7.239-0.522,11.257c-0.129,4.019-0.294,7.771-0.495,11.257
	c-0.201,3.487-0.559,8.037-1.071,13.652c0.919-0.036,1.689-0.056,2.315-0.056c0.588,0,1.36,0.02,2.315,0.056v-4.624
	c0-2.128,0.091-5.605,0.273-10.432c0.183-4.825,0.383-8.853,0.604-12.083c0.219-3.229,0.393-6.248,0.521-9.055
	c0.127-2.808,0.192-5.128,0.192-6.964c0-1.797-0.285-3.559-0.854-5.284c-0.568-1.725-1.742-3.256-3.522-4.596
	c-1.78-1.34-4.073-2.294-6.881-2.863c-2.808-0.568-5.845-0.853-9.11-0.853c-2.826,0-5.614,0.193-8.367,0.578
	c-2.752,0.385-6,1.092-9.743,2.119c-0.146,1.615-0.349,3.047-0.605,4.294C212.9,24.385,214.937,23.661,216.549,23.201
	 M160.248,22.183c2.939-0.476,5.77-0.716,8.49-0.716c4.446,0,8.315,0.789,11.605,2.365c3.289,1.577,5.918,4.189,7.884,7.836
	c1.966,3.648,2.95,8.038,2.95,13.169c0,3.63-0.506,7.268-1.515,10.916c-1.01,3.648-2.471,6.828-4.38,9.54
	c-1.91,2.713-4.298,4.702-7.162,5.967c-2.865,1.265-5.95,1.896-9.256,1.896c-3.269,0-6.254-0.631-8.953-1.894
	c-2.7-1.265-4.895-3.087-6.584-5.467s-2.828-5.091-3.415-8.13c-0.589-3.04-0.882-6.518-0.882-10.437
	c0-3.008,0.071-5.632,0.213-7.871c0.142-2.238,0.356-7.082,0.64-14.533C153.852,23.541,157.307,22.66,160.248,22.183
	 M146.123,75.083c0.544,0,1.288,0.02,2.23,0.056l0.122-13.321c0.66,1.98,1.303,3.55,1.928,4.706
	c0.624,1.156,1.469,2.312,2.534,3.468s2.396,2.212,3.994,3.165c1.598,0.955,3.453,1.707,5.565,2.257
	c2.112,0.551,4.325,0.826,6.639,0.826c4.003,0,7.649-0.688,10.936-2.064c3.288-1.376,6.098-3.596,8.43-6.66
	c2.333-3.064,4.05-6.514,5.151-10.35c1.102-3.834,1.654-7.789,1.654-11.862c0-3.633-0.469-7.101-1.407-10.404
	c-0.937-3.303-2.537-6.303-4.797-9c-2.262-2.698-5.129-4.624-8.603-5.78c-3.475-1.156-7.546-1.734-12.215-1.734
	c-2.683,0-5.395,0.165-8.134,0.495c-2.738,0.331-6.13,1.01-10.174,2.037l0.394-8.587c0.15-4.074,0.43-8.183,0.843-12.331
	c-0.955,0.037-1.744,0.055-2.369,0.055c-0.588,0-1.359-0.018-2.313-0.055l-0.592,24.331l-1.561,45.358l-0.431,5.45
	C144.89,75.103,145.615,75.083,146.123,75.083"/>
<path d="M89.402,101.836c1.506,0,2.975-0.184,4.408-0.551c1.322-0.294,2.553-0.734,3.692-1.321c0.955-0.477,1.818-1.046,2.59-1.706
	c1.028-0.918,2.02-2.019,2.975-3.303c1.175-1.651,2.571-4.221,4.188-7.707l10.286-22.679l10.725-23.175
	c4.877-10.458,8.232-17.743,10.066-21.853c-1.068,0.037-1.915,0.055-2.542,0.055c-0.59,0-1.418-0.018-2.486-0.055
	c-0.88,2.604-1.631,4.694-2.254,6.272c-0.622,1.577-1.722,4.145-3.297,7.702l-17.368,38.731L97.866,36.541
	c-1.287-3.558-2.261-6.4-2.924-8.528c-0.514-1.54-0.974-3.062-1.378-4.566l-0.993-3.906c-1.024,0.037-1.884,0.055-2.579,0.055
	c-0.695,0-1.573-0.018-2.633-0.055l8.712,23.572l12.13,33.76c-2.498,5.706-4.684,10.191-6.559,13.458
	c-1.874,3.267-3.73,5.432-5.567,6.495c-1.837,1.064-3.803,1.597-5.898,1.597c-0.882,0-1.846-0.083-2.894-0.248
	c-1.047-0.165-1.938-0.366-2.673-0.604c-0.734-0.24-1.671-0.615-2.811-1.129c0.22,1.651,0.33,3.083,0.33,4.294
	C84.665,101.468,87.088,101.836,89.402,101.836 M2.205,75.083c0.513,0,1.248,0.02,2.204,0.056c0-5.688,0.18-12.588,0.543-20.698
	c0.326-7.339,0.783-12.444,1.371-15.314c0.698-3.31,1.607-5.968,2.728-7.974c1.119-2.005,2.488-3.697,4.104-5.077
	c1.616-1.38,3.462-2.446,5.537-3.2c2.076-0.755,4.253-1.132,6.53-1.132c2.094,0,4.014,0.322,5.758,0.967s3.195,1.538,4.353,2.68
	c1.157,1.143,1.993,2.441,2.507,3.897c0.514,1.455,0.772,3.546,0.772,6.272c0,2.9-0.112,6.551-0.335,10.955l-0.669,13.873
	c-0.186,4.808-0.465,9.725-0.836,14.752c0.954-0.036,1.69-0.056,2.204-0.056c0.514,0,1.248,0.02,2.204,0.056l0.613-22.02
	c0.223-7.082,0.623-12,1.199-14.752c0.661-3.229,1.514-5.771,2.56-7.624s2.376-3.449,3.991-4.789c1.615-1.339,3.431-2.376,5.45-3.11
	c2.019-0.734,4.221-1.101,6.607-1.101c1.651,0,3.211,0.174,4.679,0.523c1.468,0.349,2.725,0.825,3.771,1.431
	c1.046,0.605,1.936,1.312,2.671,2.119c0.733,0.808,1.293,1.661,1.679,2.56c0.385,0.9,0.633,1.816,0.743,2.752
	c0.11,0.936,0.165,2.046,0.165,3.331c0,2.459-0.111,5.578-0.331,9.357l-0.827,15.138c-0.331,6.276-0.662,11.67-0.992,16.185
	c0.954-0.036,1.69-0.056,2.205-0.056c0.514,0,1.249,0.02,2.204,0.056c0.037-5.321,0.21-11.349,0.522-18.083
	c0.31-6.734,0.593-11.926,0.849-15.579c0.257-3.651,0.385-6.376,0.385-8.174c0-3.229-0.744-6.001-2.231-8.313
	c-1.487-2.311-3.589-3.99-6.306-5.036c-2.717-1.046-5.599-1.569-8.646-1.569c-1.983,0-3.92,0.239-5.81,0.715
	c-1.892,0.478-3.608,1.129-5.15,1.955c-1.542,0.825-2.873,1.789-3.992,2.89c-1.12,1.101-2.011,2.174-2.672,3.22
	c-0.66,1.046-1.358,2.284-2.092,3.715c-0.441-1.797-0.891-3.21-1.349-4.238c-0.459-1.027-1.111-2.018-1.954-2.973
	c-0.845-0.953-1.899-1.816-3.165-2.587c-1.267-0.77-2.799-1.412-4.597-1.926s-3.688-0.771-5.67-0.771
	c-2.312,0-4.54,0.33-6.687,0.991c-2.147,0.66-4.055,1.578-5.725,2.752c-1.67,1.175-3,2.404-3.991,3.688
	c-0.991,1.285-2.073,3.047-3.248,5.285l0.568-11.56c-0.698,0.037-1.396,0.055-2.093,0.055c-0.699,0-1.414-0.018-2.149-0.055
	c0,1.908-0.019,4.202-0.055,6.881L0.879,63.139c-0.074,1.505-0.165,3.009-0.275,4.514L0,75.139
	C0.955,75.103,1.69,75.083,2.205,75.083"/>
<polygon fill="#E5E645" points="119.953,90.146 115.793,99.302 396.519,90.894 396.519,90.146 "/>
</svg>
